<svg fill="none" height="42" viewBox="0 0 137 42" width="137" xmlns="http://www.w3.org/2000/svg"><g fill="#1c2624"><path d="m8.338 16.075c.85067 0 1.59133-.1173 2.222-.352.638-.242 1.1-.4767 1.386-.704l.957 1.903c-.33.2933-.9057.5903-1.727.891s-1.804.451-2.948.451c-1.07067 0-2.068-.1907-2.992-.572-.91667-.3813-1.72333-.913-2.42-1.595s-1.23933-1.474-1.628-2.376c-.388667-.9093-.583-1.8957-.583-2.959 0-1.06333.194333-2.04967.583-2.959.38867-.91667.92767-1.716 1.617-2.398.69667-.68933 1.507-1.22467 2.431-1.606.924-.38867 1.92133-.583 2.992-.583 1.144 0 2.1267.15033 2.948.451s1.397.59767 1.727.891l-.957 1.903c-.286-.23467-.748-.46933-1.386-.704-.63067-.23467-1.37133-.352-2.222-.352-.79933 0-1.52533.13567-2.178.407s-1.21733.649-1.694 1.133c-.46933.484-.83233 1.04867-1.089 1.694-.24933.64533-.374 1.342-.374 2.09 0 .7553.12467 1.4593.374 2.112.25667.6453.61967 1.21 1.089 1.694.47667.484 1.04133.8617 1.694 1.133s1.37867.407 2.178.407zm10.1258 2.189c-.946 0-1.7856-.2053-2.519-.616-.726-.418-1.298-.9863-1.716-1.705s-.627-1.529-.627-2.431.209-1.716.627-2.442c.418-.7333.99-1.309 1.716-1.727.7334-.42533 1.573-.638 2.519-.638.9387 0 1.771.21267 2.497.638.726.418 1.2944.9937 1.705 1.727.4107.726.616 1.54.616 2.442s-.2053 1.7123-.616 2.431c-.4106.7187-.979 1.287-1.705 1.705-.726.4107-1.5583.616-2.497.616zm0-1.914c.5354 0 1.001-.121 1.397-.363.4034-.2493.715-.5867.935-1.012.22-.4327.33-.924.33-1.474 0-.5427-.11-1.0303-.33-1.463-.22-.44-.5316-.7847-.935-1.034-.396-.2567-.8616-.385-1.397-.385-.5426 0-1.0156.1283-1.419.385-.4033.2493-.715.594-.935 1.034-.22.4327-.33.9203-.33 1.463 0 .55.11 1.0413.33 1.474.22.4253.5317.7627.935 1.012.4034.242.8764.363 1.419.363zm8.0715-2.915c0 .8873.187 1.595.561 2.123s.957.792 1.749.792c.8066 0 1.3933-.264 1.76-.792.374-.528.561-1.2357.561-2.123v-4.466h2.233v4.752c0 .8947-.1797 1.6867-.539 2.376-.352.682-.8654 1.2137-1.54 1.595-.6747.3813-1.4997.572-2.475.572-.9607 0-1.7784-.1907-2.453-.572-.6747-.3813-1.1917-.913-1.551-1.595-.352-.6893-.528-1.4813-.528-2.376v-4.752h2.222zm13.7831-4.73c.6014 0 1.1844.12467 1.749.374.572.24933 1.0414.64533 1.408 1.188.374.5427.561 1.2503.561 2.123v5.61h-2.277v-5.181c0-.836-.198-1.4483-.594-1.837-.3886-.3887-.891-.583-1.507-.583-.4106 0-.803.1173-1.177.352-.374.2273-.6783.539-.913.935-.2346.396-.352.8507-.352 1.364v4.95h-2.266v-9.031h2.266v1.54c.066-.2493.242-.51333.528-.792.2934-.27867.6637-.517 1.111-.715.4474-.198.935-.297 1.463-.297zm9.6257 7.722c.5354 0 .968-.0843 1.298-.253.3374-.176.55-.308.638-.396l1.078 1.595c-.088.0733-.2713.1833-.55.33-.2713.1393-.6233.2677-1.056.385-.4253.1173-.913.176-1.463.176-.8726 0-1.6756-.187-2.409-.561-.726-.374-1.309-.9167-1.749-1.628-.4326-.7187-.649-1.584-.649-2.596 0-1.0193.2164-1.881.649-2.585.44-.7113 1.023-1.254 1.749-1.628.7334-.374 1.5364-.561 2.409-.561.5427 0 1.023.06233 1.441.187s.7664.264 1.045.418c.2787.14667.4657.264.561.352l-1.089 1.595c-.0586-.0513-.1686-.1357-.33-.253-.1613-.1173-.374-.2237-.638-.319-.2566-.0953-.5683-.143-.935-.143-.44 0-.869.121-1.287.363-.4106.2347-.748.572-1.012 1.012-.2566.4327-.385.9533-.385 1.562s.1284 1.133.385 1.573c.264.44.6014.781 1.012 1.023.418.2347.847.352 1.287.352zm4.0484 1.573v-9.031h2.255v9.031zm1.155-11.825c-.3887 0-.7224-.13567-1.001-.407-.2714-.27867-.407-.60867-.407-.99 0-.38867.1356-.72233.407-1.001.2786-.27867.6123-.418 1.001-.418.2566 0 .4913.066.704.198.22.12467.396.29333.528.506.132.20533.198.44367.198.715 0 .38133-.1394.71133-.418.99-.2787.27133-.616.407-1.012.407zm5.3197 11.825h-2.277v-15.136h2.277zm13.6413-1.925c.8507 0 1.5914-.1173 2.222-.352.638-.242 1.1-.4767 1.386-.704l.957 1.903c-.33.2933-.9056.5903-1.727.891-.8213.3007-1.804.451-2.948.451-1.0706 0-2.068-.1907-2.992-.572-.9166-.3813-1.7233-.913-2.42-1.595-.6966-.682-1.2393-1.474-1.628-2.376-.3886-.9093-.583-1.8957-.583-2.959 0-1.06333.1944-2.04967.583-2.959.3887-.91667.9277-1.716 1.617-2.398.6967-.68933 1.507-1.22467 2.431-1.606.924-.38867 1.9214-.583 2.992-.583 1.144 0 2.1267.15033 2.948.451.8214.30067 1.397.59767 1.727.891l-.957 1.903c-.286-.23467-.748-.46933-1.386-.704-.6306-.23467-1.3713-.352-2.222-.352-.7993 0-1.5253.13567-2.178.407-.6526.27133-1.2173.649-1.694 1.133-.4693.484-.8323 1.04867-1.089 1.694-.2493.64533-.374 1.342-.374 2.09 0 .7553.1247 1.4593.374 2.112.2567.6453.6197 1.21 1.089 1.694.4767.484 1.0414.8617 1.694 1.133.6527.2713 1.3787.407 2.178.407zm8.1679 1.925h-2.277v-15.136h2.277zm1.9059 0v-9.031h2.255v9.031zm1.155-11.825c-.3887 0-.7223-.13567-1.001-.407-.2713-.27867-.407-.60867-.407-.99 0-.38867.1357-.72233.407-1.001.2787-.27867.6123-.418 1.001-.418.2567 0 .4913.066.704.198.22.12467.396.29333.528.506.132.20533.198.44367.198.715 0 .38133-.1393.71133-.418.99-.2787.27133-.616.407-1.012.407zm14.2187 2.53c.667 0 1.243.143 1.727.429.491.286.869.726 1.133 1.32s.396 1.353.396 2.277v5.269h-2.222v-4.851c0-.8947-.128-1.573-.385-2.035-.2493-.4693-.715-.704-1.397-.704-.374 0-.726.1027-1.056.308-.3227.198-.5867.4987-.792.902-.198.4033-.297.913-.297 1.529v4.851h-2.09v-4.851c0-.8947-.154-1.573-.462-2.035-.308-.4693-.7553-.704-1.342-.704-.374 0-.7223.099-1.045.297-.3227.1907-.583.4877-.781.891-.1907.4033-.286.9203-.286 1.551v4.851h-2.244v-9.031h2.244v1.364c.0807-.2273.2567-.46567.528-.715.2787-.25667.6307-.473 1.056-.649.4327-.176.902-.264 1.408-.264.5427 0 .9973.10267 1.364.308s.6563.462.869.77c.22.3007.3777.6013.473.902.1027-.308.3007-.6123.594-.913.3007-.308.6747-.561 1.122-.759.4473-.20533.9423-.308 1.485-.308zm12.045 9.295v-1.683c-.058.1687-.227.4107-.506.726-.278.3153-.656.5977-1.133.847-.469.2493-1.03.374-1.683.374-.843 0-1.602-.2017-2.277-.605-.674-.4033-1.206-.9643-1.595-1.683-.388-.7187-.583-1.5473-.583-2.486s.195-1.7673.583-2.486c.389-.7187.921-1.27967 1.595-1.683.675-.41067 1.434-.616 2.277-.616.638 0 1.188.11367 1.65.341.47.22.844.47667 1.122.77.286.286.462.539.528.759v-1.606h2.244v9.031zm-5.555-4.51c0 .594.132 1.111.396 1.551s.609.781 1.034 1.023c.426.242.88.363 1.364.363.521 0 .987-.121 1.397-.363.411-.2493.734-.594.968-1.034.235-.44.352-.9533.352-1.54s-.117-1.1-.352-1.54c-.234-.44-.557-.7847-.968-1.034-.41-.2493-.876-.374-1.397-.374-.484 0-.938.1247-1.364.374-.425.242-.77.583-1.034 1.023s-.396.957-.396 1.551zm8.571-4.521h1.716v-3.707h2.233v3.707h2.255v1.914h-2.255v3.982c0 .4987.084.869.253 1.111.176.242.418.363.726.363.256 0 .458-.0477.605-.143.154-.1027.245-.1687.275-.198l.858 1.639c-.052.0367-.18.11-.385.22-.206.1027-.473.1943-.803.275-.33.088-.708.132-1.133.132-.748 0-1.375-.2237-1.881-.671-.499-.4547-.748-1.1623-.748-2.123v-4.587h-1.716zm8.951 5.071c.014.4767.128.9057.341 1.287.212.3813.524.682.935.902.418.2127.927.319 1.529.319.52 0 .968-.0697 1.342-.209.381-.1467.696-.319.946-.517.249-.2053.432-.396.55-.572l1.045 1.419c-.228.308-.514.583-.858.825-.345.242-.774.429-1.287.561-.506.1393-1.133.209-1.881.209-.983 0-1.837-.2017-2.563-.605s-1.291-.9717-1.694-1.705c-.396-.7333-.594-1.5913-.594-2.574 0-.88.183-1.672.55-2.376.366-.7113.898-1.27233 1.595-1.683.704-.41067 1.547-.616 2.53-.616.916 0 1.712.18333 2.387.55.674.36667 1.195.8947 1.562 1.584.374.682.561 1.507.561 2.475 0 .0587-.004.1797-.011.363 0 .1833-.008.3043-.022.363zm4.796-1.716c-.008-.2347-.088-.5023-.242-.803-.147-.3007-.385-.561-.715-.781-.33-.2273-.77-.341-1.32-.341-.565 0-1.023.11-1.375.33-.352.2127-.613.4693-.781.77-.169.2933-.268.5683-.297.825z" opacity=".9"/><path d="m1 27.44h2.88c.66133 0 1.256.1067 1.784.32s.94933.5493 1.264 1.008c.31467.4533.472 1.048.472 1.784 0 .7307-.15733 1.336-.472 1.816-.31467.4747-.736.8293-1.264 1.064s-1.12267.352-1.784.352h-1.64v4.216h-1.24zm1.24 5.288h1.304c.46933 0 .896-.0667 1.28-.2.384-.1387.69067-.3653.92-.68.22933-.32.344-.744.344-1.272 0-.5387-.11467-.9573-.344-1.256-.22933-.304-.536-.5173-.92-.64s-.81067-.184-1.28-.184h-1.304zm8.6507 5.272h-1.27995v-11.008h1.27995zm7.8387 0v-1.304c-.0374.1333-.16.32-.368.56s-.4907.456-.848.648c-.3574.192-.7814.288-1.272.288-.6027 0-1.152-.1413-1.648-.424-.496-.288-.8907-.6907-1.184-1.208-.288-.5227-.432-1.136-.432-1.84s.144-1.3147.432-1.832c.2933-.5227.688-.928 1.184-1.216s1.0453-.432 1.648-.432c.4853 0 .904.088 1.256.264.3573.176.64.3787.848.608.2133.2293.3386.424.376.584v-1.264h1.248v6.568zm-4.504-3.28c0 .496.1066.9253.32 1.288.2186.3573.5013.6347.848.832.3466.192.7146.288 1.104.288.4213 0 .7973-.0987 1.128-.296.3306-.1973.592-.4773.784-.84s.288-.7867.288-1.272-.096-.9093-.288-1.272-.4534-.6427-.784-.84c-.3307-.2027-.7067-.304-1.128-.304-.3894 0-.7574.0987-1.104.296-.3467.1973-.6294.4773-.848.84-.2134.3573-.32.784-.32 1.28zm11.6935-3.48c.4266 0 .84.0907 1.24.272.4053.176.7386.4613 1 .856.2666.3893.4.896.4 1.52v4.112h-1.28v-3.848c0-.672-.1574-1.16-.472-1.464-.3147-.304-.7174-.456-1.208-.456-.3307 0-.6454.0933-.944.28-.2987.1867-.544.44-.736.76s-.288.6827-.288 1.088v3.64h-1.272v-6.568h1.272v1.192c.0426-.1813.1706-.3787.384-.592.2133-.2187.4853-.4053.816-.56.336-.1547.6986-.232 1.088-.232zm12.7029-3.992c.6026 0 1.12.0693 1.552.208s.7733.2853 1.024.44c.2506.1547.3973.256.44.304l-.648 1.024c-.08-.0693-.2214-.168-.424-.296-.2027-.1333-.4587-.2533-.768-.36-.304-.1067-.656-.16-1.056-.16-.624 0-1.1174.128-1.48.384-.3627.256-.544.6133-.544 1.072 0 .3147.096.5893.288.824.192.2293.4586.4427.8.64.3413.192.736.3867 1.184.584.3626.1547.7226.3307 1.08.528.3573.1973.6826.4293.976.696.2933.2667.528.576.704.928.1813.352.272.76.272 1.224 0 .4427-.0934.8453-.28 1.208-.1814.3573-.4347.664-.76.92-.3254.2507-.7067.4427-1.144.576-.4374.1333-.912.2-1.424.2-.64 0-1.216-.08-1.728-.24s-.9254-.3253-1.24-.496c-.3147-.176-.4934-.2827-.536-.32l.688-1.08c.064.0533.1786.1333.344.24.1706.1013.3813.208.632.32.2506.112.5333.208.848.288.3146.0747.6533.112 1.016.112.7466 0 1.3093-.168 1.688-.504.384-.3413.576-.7707.576-1.288 0-.4053-.1227-.752-.368-1.04-.2454-.288-.568-.544-.968-.768-.3947-.2293-.8267-.448-1.296-.656-.48-.2187-.9227-.4587-1.328-.72-.4-.2613-.72-.5707-.96-.928-.24-.3627-.36-.8-.36-1.312 0-.5013.1413-.944.424-1.328.288-.384.6746-.6827 1.16-.896.4906-.2187 1.0293-.328 1.616-.328zm8.6466 9.88c.4266 0 .7706-.0667 1.032-.2.2666-.1387.432-.2373.496-.296l.624.92c-.0534.048-.1787.1227-.376.224-.1974.1013-.4534.1947-.768.28-.3094.0907-.6614.136-1.056.136-.5814 0-1.128-.1333-1.64-.4s-.928-.6587-1.248-1.176c-.3147-.5173-.472-1.152-.472-1.904 0-.7573.1573-1.392.472-1.904.32-.512.736-.9013 1.248-1.168s1.0586-.4 1.64-.4c.3946 0 .7413.048 1.04.144.304.0907.552.192.744.304.1973.112.328.1973.392.256l-.632.928c-.0427-.0427-.128-.1093-.256-.2-.1227-.096-.288-.1813-.496-.256s-.456-.112-.744-.112c-.352 0-.696.096-1.032.288-.336.1867-.6107.4613-.824.824-.2134.3573-.32.7893-.32 1.296s.1066.9413.32 1.304c.2133.3627.488.64.824.832.336.1867.68.28 1.032.28zm7.0494 1.064c-.672 0-1.2694-.152-1.792-.456-.5174-.304-.9254-.7173-1.224-1.24-.2934-.5227-.44-1.1093-.44-1.76s.1466-1.24.44-1.768c.2986-.5333.7066-.9547 1.224-1.264.5226-.3093 1.12-.464 1.792-.464.6666 0 1.2586.1547 1.776.464.5173.3093.92.7307 1.208 1.264.2933.528.44 1.1173.44 1.768s-.1467 1.2373-.44 1.76c-.288.5227-.6907.936-1.208 1.24-.5174.304-1.1094.456-1.776.456zm0-1.096c.4426 0 .8293-.1013 1.16-.304.336-.208.5946-.4907.776-.848.1813-.3573.272-.7627.272-1.216 0-.448-.0907-.8507-.272-1.208-.1814-.3627-.44-.6507-.776-.864-.3307-.2133-.7174-.32-1.16-.32-.448 0-.84.1067-1.176.32s-.5974.5013-.784.864c-.1814.3573-.272.76-.272 1.208 0 .4533.0906.8587.272 1.216.1866.3573.448.64.784.848.336.2027.728.304 1.176.304zm6.7203.904h-1.256v-6.568h1.256v1.144h-.04c.032-.1333.1307-.304.296-.512.1707-.2133.4054-.4027.704-.568.304-.1707.6614-.256 1.072-.256.304 0 .5707.0427.8.128.2294.08.392.16.488.24l-.528 1.048c-.0693-.0693-.2-.1413-.392-.216-.1866-.08-.416-.12-.688-.12-.3573 0-.664.1147-.92.344-.256.224-.4533.4933-.592.808-.1333.3147-.2.6053-.2.872zm5.383-3.032c.0054.4053.0907.7787.256 1.12.1707.336.4214.6053.752.808.336.1973.7494.296 1.24.296.416 0 .7654-.0613 1.048-.184.288-.1227.5227-.2693.704-.44.1814-.176.312-.3333.392-.472l.664.792c-.1813.2667-.4.4987-.656.696-.2506.1973-.5573.3467-.92.448-.3573.1067-.7946.16-1.312.16-.704 0-1.312-.152-1.824-.456-.5066-.304-.8986-.7227-1.176-1.256-.272-.5387-.408-1.152-.408-1.84 0-.64.128-1.216.384-1.728.2614-.5173.64-.9253 1.136-1.224.5014-.2987 1.1014-.448 1.8-.448.64 0 1.1974.136 1.672.408.4747.2667.8427.6453 1.104 1.136.2614.4907.392 1.072.392 1.744 0 .0427-.0026.1173-.008.224-.0053.1013-.0106.1733-.016.216zm3.992-1c-.0106-.2293-.0773-.4773-.2-.744-.1173-.272-.3146-.504-.592-.696-.272-.1973-.64-.296-1.104-.296-.4853 0-.8746.0933-1.168.28-.2933.1867-.5093.416-.648.688-.1333.2667-.2106.5227-.232.768zm6.3378 3.16c.4266 0 .7706-.0667 1.032-.2.2666-.1387.432-.2373.496-.296l.624.92c-.0534.048-.1787.1227-.376.224-.1974.1013-.4534.1947-.768.28-.3094.0907-.6614.136-1.056.136-.5814 0-1.128-.1333-1.64-.4s-.928-.6587-1.248-1.176c-.3147-.5173-.472-1.152-.472-1.904 0-.7573.1573-1.392.472-1.904.32-.512.736-.9013 1.248-1.168s1.0586-.4 1.64-.4c.3946 0 .7413.048 1.04.144.304.0907.552.192.744.304.1973.112.328.1973.392.256l-.632.928c-.0427-.0427-.128-.1093-.256-.2-.1227-.096-.288-.1813-.496-.256s-.456-.112-.744-.112c-.352 0-.696.096-1.032.288-.336.1867-.6107.4613-.824.824-.2134.3573-.32.7893-.32 1.296s.1066.9413.32 1.304c.2133.3627.488.64.824.832.336.1867.68.28 1.032.28zm9.3453.872v-1.304c-.0373.1333-.16.32-.368.56s-.4906.456-.848.648c-.3573.192-.7813.288-1.272.288-.6026 0-1.152-.1413-1.648-.424-.496-.288-.8906-.6907-1.184-1.208-.288-.5227-.432-1.136-.432-1.84s.144-1.3147.432-1.832c.2934-.5227.688-.928 1.184-1.216s1.0454-.432 1.648-.432c.4854 0 .904.088 1.256.264.3574.176.64.3787.848.608.2134.2293.3387.424.376.584v-1.264h1.248v6.568zm-4.504-3.28c0 .496.1067.9253.32 1.288.2187.3573.5014.6347.848.832.3467.192.7147.288 1.104.288.4214 0 .7974-.0987 1.128-.296.3307-.1973.592-.4773.784-.84s.288-.7867.288-1.272-.096-.9093-.288-1.272-.4533-.6427-.784-.84c-.3306-.2027-.7066-.304-1.128-.304-.3893 0-.7573.0987-1.104.296-.3466.1973-.6293.4773-.848.84-.2133.3573-.32.784-.32 1.28zm9.3816 3.28h-1.256v-6.568h1.256v1.144h-.04c.032-.1333.1306-.304.296-.512.1706-.2133.4053-.4027.704-.568.304-.1707.6613-.256 1.072-.256.304 0 .5706.0427.8.128.2293.08.392.16.488.24l-.528 1.048c-.0694-.0693-.2-.1413-.392-.216-.1867-.08-.416-.12-.688-.12-.3574 0-.664.1147-.92.344-.256.224-.4534.4933-.592.808-.1334.3147-.2.6053-.2.872zm11.3432 0v-11.008h-1.28v5.704c-.032-.1707-.158-.368-.376-.592-.219-.2293-.518-.4293-.8963-.6-.3733-.176-.8026-.264-1.288-.264-.608 0-1.152.144-1.632.432-.4746.288-.8506.6933-1.128 1.216-.272.5173-.408 1.128-.408 1.832s.136 1.3173.408 1.84c.2774.5173.6534.92 1.128 1.208.48.2827 1.024.424 1.632.424.464 0 .88-.088 1.248-.264.3733-.176.6743-.3813.9043-.616.234-.2347.378-.44.432-.616v1.304zm-5.7523-3.28c0-.496.1014-.9227.304-1.28.2027-.3627.4667-.6427.792-.84.3307-.1973.6907-.296 1.08-.296.4214 0 .8054.1013 1.152.304.3523.1973.6293.4773.8323.84.208.3627.312.7867.312 1.272s-.104.9093-.312 1.272c-.203.3627-.48.6427-.8323.84-.3466.1973-.7306.296-1.152.296-.3893 0-.7493-.096-1.08-.288-.3253-.1973-.5893-.4747-.792-.832-.2026-.3627-.304-.792-.304-1.288zm10.2003-3.48c.331 0 .64.0347.928.104.294.0693.544.152.752.248.214.096.368.1813.464.256l-.52.816c-.112-.096-.306-.2027-.584-.32-.277-.1227-.586-.184-.928-.184-.389 0-.72.0773-.992.232-.272.1493-.408.3733-.408.672 0 .2827.139.5093.416.68.283.1707.656.312 1.12.424.368.0907.71.208 1.024.352.315.144.568.3413.76.592.198.2507.296.5867.296 1.008 0 .3733-.08.6933-.24.96-.154.2613-.365.4747-.632.64-.261.16-.557.2773-.888.352-.33.08-.669.12-1.016.12-.394 0-.752-.0427-1.072-.128-.314-.08-.584-.176-.808-.288-.218-.1173-.381-.2187-.488-.304l.536-.92c.139.1387.366.2827.68.432.32.1493.683.224 1.088.224.464 0 .84-.0987 1.128-.296.288-.2027.432-.464.432-.784 0-.2453-.069-.44-.208-.584-.138-.144-.322-.2587-.552-.344-.229-.0907-.48-.168-.752-.232-.261-.064-.514-.144-.76-.24-.245-.1013-.466-.2267-.664-.376-.192-.1493-.346-.3333-.464-.552-.117-.2187-.176-.4747-.176-.768 0-.3733.118-.6933.352-.96.235-.2667.544-.472.928-.616s.8-.216 1.248-.216z" opacity=".9"/></g></svg>