<svg width="18" height="18" viewBox="0 0 18 18" fill="none" xmlns="http://www.w3.org/2000/svg">
<path d="M8.75 0C3.91797 0 0 3.91797 0 8.75C0 13.582 3.91797 17.5 8.75 17.5C13.582 17.5 17.5 13.582 17.5 8.75C17.5 3.91797 13.582 0 8.75 0ZM8.75 16.0156C4.73828 16.0156 1.48438 12.7617 1.48438 8.75C1.48438 4.73828 4.73828 1.48438 8.75 1.48438C12.7617 1.48438 16.0156 4.73828 16.0156 8.75C16.0156 12.7617 12.7617 16.0156 8.75 16.0156Z" fill="#FDFDFD"/>
<path d="M7.8125 12.1875C7.8125 12.4361 7.91127 12.6746 8.08709 12.8504C8.2629 13.0262 8.50136 13.125 8.75 13.125C8.99864 13.125 9.2371 13.0262 9.41291 12.8504C9.58873 12.6746 9.6875 12.4361 9.6875 12.1875C9.6875 11.9389 9.58873 11.7004 9.41291 11.5246C9.2371 11.3488 8.99864 11.25 8.75 11.25C8.50136 11.25 8.2629 11.3488 8.08709 11.5246C7.91127 11.7004 7.8125 11.9389 7.8125 12.1875ZM8.28125 10H9.21875C9.30469 10 9.375 9.92969 9.375 9.84375V4.53125C9.375 4.44531 9.30469 4.375 9.21875 4.375H8.28125C8.19531 4.375 8.125 4.44531 8.125 4.53125V9.84375C8.125 9.92969 8.19531 10 8.28125 10Z" fill="#FDFDFD"/>
</svg>
