<svg fill="none" height="32" viewBox="0 0 33 32" width="33" xmlns="http://www.w3.org/2000/svg" xmlns:xlink="http://www.w3.org/1999/xlink"><clipPath id="a"><path d="m.992188 0h32v32h-32z"/></clipPath><g clip-path="url(#a)"><path clip-rule="evenodd" d="m16.9922 32c8.837 0 16-7.163 16-16s-7.163-16-16-16c-8.83701 0-16.000012 7.163-16.000012 16s7.163002 16 16.000012 16zm8.643-20.022c.008.173.01.347.01.52 0 5.33-4.055 11.475-11.472 11.475-2.276 0-4.39501-.668-6.18001-1.812.316.038.637.056.962.056 1.89001 0 3.62801-.644 5.00801-1.725-1.765-.033-3.253-1.198-3.767-2.8.247.048.5.073.76.073.367 0 .723-.05 1.062-.142-1.846-.37-3.23601-2-3.23601-3.952v-.05c.543.3 1.165.482 1.82701.504-1.08301-.725-1.79401-1.958-1.79401-3.357 0-.74.198-1.432.545-2.028 1.99001 2.44 4.96001 4.045 8.31201 4.214-.07-.294-.104-.602-.104-.918 0-2.231 1.804-4.036 4.032-4.036 1.16 0 2.207.49 2.943 1.273.92-.18 1.783-.517 2.562-.98-.302.944-.94 1.734-1.773 2.232.815-.097 1.592-.314 2.315-.635-.54.81-1.225 1.52-2.012 2.088z" fill="#404040" fill-rule="evenodd"/></g></svg>