<svg height="1100" viewBox="0 0 1100 1100" width="1100" xmlns="http://www.w3.org/2000/svg" xmlns:xlink="http://www.w3.org/1999/xlink"><radialGradient id="a" cx="50%" cy="50%" r="50%"><stop offset="0" stop-color="#fff"/><stop offset="1" stop-color="#fff" stop-opacity=".7"/></radialGradient><g fill="none" fill-rule="evenodd"><path d="m0 0h1100v1100h-1100z" fill="#3db9ea"/><g fill-rule="nonzero" transform="translate(-101 -47)"><g fill="#fff"><path d="m98.4148924 35.6326381 519.2224076 527.7064299-588.7914179-505.6479663s74.6594279-22.0584636 69.5690103-22.0584636z"/><path d="m225.675 6.787 390.265 546.371-463.227-544.674z"/><path d="m680.584 624.848 612.547 535.767v-82.295z"/><path d="m685.633877 620.606244 604.062703 372.024557v-72.114223s-604.062703-298.637728-604.062703-299.910334zm529.278873-615.51610685-539.584068 575.21697685 617.637108-556.5521252s-79.74984-20.36165045-78.05304-18.66485165z"/><path d="m682.363 587.518 617.637-392.386v-73.811z"/><path d="m629.514942 5.09013715 22.058463 571.82336485 22.058471-571.82336485s-45.813726-1.6967988-44.116934 0zm89.930675-3.39360481-67.872212 575.21697666 118.776349-570.12655864s-49.207331-5.09041802-50.904137-5.09041802z"/><path d="m928.153 6.787-259.612 568.429 324.09-570.126z"/><path d="m877.249 8.567-215.495 571.823 166.287-571.823z"/><path d="m1065.59389 8.56700762-397.052432 575.21698438 478.499082-575.21698438s-81.44665 3.43444548-81.44665 0z"/><path d="m307.122 8.484 320.696 556.552-264.701-563.339z"/><path d="m417.414 6.787 225.675 573.52-174.77-575.217z"/><path d="m526.01 6.787 125.564 576.914-76.357-583.701z"/><path d="m646.483 637.998-18.665 654.967-52.601-1.696z"/><path d="m924.759 1289.572-259.611-656.664 322.393 661.754z"/><path d="m3.394 765.259 636.302-152.713-637.999 100.112z"/><path d="m5.091 266.398 648.179 334.271-653.27-274.883z"/><path d="m1.697 400.446 636.302 195.132-632.908-144.228z"/><path d="m3.394 502.254 641.392 101.809-639.695-50.905z"/><path d="m1.697 614.243 614.243-13.574-612.546 64.478z"/><path d="m3.394 201.92 617.637 378.387-619.334-449.653z"/><path d="m1293.131 259.611-613.395 327.907 613.395-263.429z"/><path d="m695.69 588.791 598.973-203.616-1.697 54.297z"/><path d="m690.765 599.396 602.366-56.419v-50.055z"/><path d="m3.394 1287.875 636.302-675.329-544.675 682.116z"/><path d="m193.436 1291.269 453.047-675.329-380.084 678.722z"/><path d="m330.877 1292.965 312.212-665.148-247.733 663.452z"/><path d="m464.925 1289.572 181.558-673.632-125.563 677.025z"/><path d="m690.6 1299.917-35.633-666.844 91.627 666.844z"/><path d="m799.195 1292.965-145.925-692.296 203.617 693.993z"/><path d="m1057.11 1291.269-397.053-671.935 473.409 678.722z"/><path d="m1236.971 1294.662-575.216-683.812 632.908 643.089z"/><path d="m1293.131 653.27-615.94-47.511 615.94-5.09z"/><path d="m1293.131 756.775-609.153-145.925 609.153 91.627z"/><path d="m1291.269 872.158-617.637-259.612 615.94 196.83z"/><path d="m3.394 945.12 622.727-325.786-624.424 403.839z"/><path d="m3.39379926 828.04069 626.12114274-215.494269-624.42433674 276.579242s1.69680601-61.084973-1.696806-61.084973z"/><path d="m3.394 1104.62 617.637-478.499-621.031 575.217z"/></g><path d="m100.594 47.097h1100v1100h-1100z" fill="url(#a)"/></g></g></svg>