<svg height="1100" viewBox="0 0 1100 1100" width="1100" xmlns="http://www.w3.org/2000/svg"><g fill="none" fill-rule="evenodd"><path d="m0 0h1100v1100h-1100z" fill="#fff"/><g fill="#ffd110" fill-rule="nonzero" opacity=".25" transform="translate(-49.633 -41)"><circle cx="29.881" cy="91.861" r="28.835" transform="matrix(.03695766 -.99931683 .99931683 .03695766 -63.021539 118.324657)"/><path d="m41.2205561 234.403363c-6.3510673 11.267451-5.2894076 25.251229 2.6899276 35.430705 7.9793351 10.179475 21.3049478 14.549969 33.763111 11.073522 12.4581631-3.476447 21.5954476-14.115206 23.1511423-26.955429 1.555694-12.840224-4.7765701-25.353241-16.0440609-31.704238-7.388333-4.164563-16.1284322-5.223531-24.2975519-2.94394-8.1691197 2.27959-15.0980793 7.711005-19.2625681 15.09938z"/><circle cx="126.973" cy="145.434" r="30.399" transform="matrix(.96554988 -.26021804 .26021804 .96554988 -33.470315 38.050883)"/><circle cx="184.867" cy="40.762" r="28.823" transform="matrix(.70710678 -.70710678 .70710678 .70710678 25.323204 142.659623)"/><circle cx="57.252" cy="500.601" r="33.745" transform="matrix(.45945585 -.88820061 .88820061 .45945585 -413.685991 321.447663)"/><path d="m77.4923561 391.452633c-6.8745017 12.428871-5.5851126 27.775017 3.2669258 38.882538 8.8520384 11.107522 23.5234641 15.788975 37.1729981 11.861402s23.589127-15.690703 25.183951-29.804247c1.594825-14.113545-5.469193-27.798076-17.898105-34.672503-8.149908-4.507778-17.756729-5.593375-26.7070561-3.017971-8.950327 2.575404-16.5109891 8.600844-21.0187138 16.750781z"/><circle cx="166.143" cy="303.728" r="33.54" transform="matrix(.96268702 -.27061725 .27061725 .96268702 -75.994746 56.294157)"/><circle cx="224.065" cy="199.006" r="31.965" transform="matrix(.9644883 -.26412556 .26412556 .9644883 -44.605643 66.248335)"/><path d="m255.696596 79.038103c-6.166868 10.6331379-5.32125 23.934102 2.142542 33.700661 7.463792 9.76656 20.075889 14.075355 31.955279 10.917197 11.879391-3.158158 20.686627-13.161322 22.314901-25.3450243 1.628274-12.1837024-4.243075-24.148566-14.876242-30.3153837-14.519304-8.420624-33.115788-3.4767143-41.53648 11.04255zm-231.7147999 643.84644c-8.6659219 15.668275-2.9894247 35.395038 12.6788246 44.061006 15.6682494 8.665967 35.3950294 2.989528 44.0610428-12.678696s2.9896314-35.395021-12.6785674-44.06108c-7.5241803-4.161681-16.3934258-5.163892-24.6565507-2.786153s-15.2432368 7.94065-19.4047493 15.464923z"/><circle cx="103.321" cy="646.424" r="33.838" transform="matrix(.31867809 -.94786301 .94786301 .31867809 -542.327215 538.356042)"/><circle cx="154.29" cy="554.272" r="35.256" transform="matrix(.61460191 -.78883743 .78883743 .61460191 -377.767429 335.325098)"/><circle cx="205.259" cy="462.121" r="36.673" transform="matrix(.89429486 -.44747816 .44747816 .89429486 -185.09157 140.697826)"/><circle cx="263.208" cy="357.35" r="35.101" transform="matrix(.96221324 -.27229704 .27229704 .96221324 -87.35957 85.173858)"/><circle cx="321.157" cy="252.579" r="33.53" transform="matrix(.38084446 -.92463912 .92463912 .38084446 -34.699212 453.340633)"/><path d="m351.365496 131.935773c-8.766215 15.320433-3.452972 34.846521 11.867461 43.612737s34.84652 3.452973 43.612737-11.86746c8.766216-15.320432 3.452975-34.84652-11.867458-43.612737-15.320436-8.7662-34.846512-3.452961-43.61274 11.86746zm59.39946-104.14487c-4.043814 6.9723972-5.152196 15.2656328-3.081311 23.0552534s7.151398 14.4375269 14.123861 18.4812266c14.519383 8.4203751 33.115721 3.4763976 41.53645-11.04278 4.043735-6.9724433 5.152049-15.2656838 3.081122-23.0552937-2.070926-7.78961-7.151451-14.4375014-14.123912-18.4812063-6.972401-4.043718-15.265597-5.1520205-23.05516-3.0810907-7.789562 2.0709299-14.4374 7.15145-18.48105 14.1238907z"/><circle cx="47.451" cy="976.551" r="30.91" transform="matrix(.69307478 -.72086569 .72086569 .69307478 -689.397791 333.9329)"/><circle cx="98.42" cy="884.399" r="32.374" transform="matrix(.97614467 -.21712114 .21712114 .97614467 -189.673881 42.466697)"/><path d="m178.999346 808.624933c6.624182-11.976296 5.38174-26.763643-3.147974-37.466699-8.529715-10.703057-22.666914-15.21403-35.819421-11.429453-13.152506 3.784576-22.730148 15.119393-24.26687 28.719023s5.270108 26.785847 17.246465 33.409919c16.353324 9.044965 36.942703 3.120461 45.9878-13.23279zm-9.53255-125.61551c-9.436316 17.060926-3.25537 38.541184 13.805539 47.977532 17.060908 9.436348 38.541178 3.255443 47.977558-13.805447 9.43638-17.060891 3.255516-38.541173-13.805357-47.977585-8.192957-4.531567-17.850517-5.62287-26.848102-3.033833s-16.59815 8.646332-21.129638 16.839333z"/><circle cx="251.327" cy="607.944" r="36.766" transform="matrix(.15051892 -.98860713 .98860713 .15051892 -387.520241 764.900589)"/><path d="m320.800036 482.338423c-13.530792-7.483918-30.237461-6.080161-42.329701 3.556701s-17.188688 25.60901-12.912876 40.468647c4.275813 14.859636 17.081837 25.680405 32.446636 27.416592 15.364798 1.736187 30.262532-5.954121 37.746401-19.48494 10.218956-18.475998 3.525432-41.737852-14.95046-51.957z"/><circle cx="360.273" cy="410.972" r="36.663" transform="matrix(.49371422 -.86962421 .86962421 .49371422 -174.990104 521.371405)"/><circle cx="418.249" cy="306.152" r="35.097" transform="matrix(.37204835 -.92821335 .92821335 .37204835 -21.534225 580.472959)"/><circle cx="476.225" cy="201.332" r="33.53" transform="matrix(.7596233 -.65036332 .65036332 .7596233 -16.465553 358.114792)"/><circle cx="534.201" cy="96.512" r="31.965" transform="matrix(.9644883 -.26412556 .26412556 .9644883 -6.520902 144.523444)"/><circle cx="93.519" cy="1122.374" r="30.725" transform="matrix(.37827705 -.92569243 .92569243 .37827705 -980.830206 784.375503)"/><circle cx="144.488" cy="1030.222" r="32.235" transform="matrix(.70710678 -.70710678 .70710678 .70710678 -686.157407 403.913482)"/><path d="m179.124646 967.600003c11.94352 6.606045 26.690393 5.367 37.364154-3.139369 10.673762-8.506369 15.172392-22.604873 11.398179-35.721383-3.774212-13.11651-15.077998-22.667944-28.640404-24.200473-13.562407-1.532528-26.712541 5.255656-33.318499 17.199225-4.331772 7.831639-5.374987 17.063315-2.900144 25.664127 2.474842 8.600813 8.265012 15.866215 16.096714 20.197873zm98.15288-104.61745c9.424043-17.038548 3.251268-38.490716-13.78728-47.914759s-38.490716-3.251268-47.914759 13.78728c-9.424043 17.038547-3.251268 38.490716 13.787279 47.914759 8.182187 4.525645 17.827067 5.615541 26.812845 3.029919 8.985777-2.585621 16.576372-8.634956 21.101915-16.817199zm52.29084-91.42088c9.827524-17.768479 3.390154-40.139458-14.378288-49.967048s-40.139446-3.390302-49.967101 14.378104c-9.827656 17.768406-3.390451 40.139433 14.377919 49.967154 8.532749 4.71952 18.590854 5.856075 27.961598 3.15963 9.370745-2.696445 17.286507-9.005006 22.005872-17.53784z"/><circle cx="348.365" cy="661.615" r="38.276" transform="matrix(.61079488 -.79178887 .79178887 .61079488 -388.273952 533.335477)"/><path d="m364.518216 550.206883c-10.6352 19.228295-3.669121 43.437442 15.559173 54.072644 19.228294 10.635203 43.437441 3.669127 54.072646-15.559166s3.669133-43.437441-15.559159-54.072648c-19.2283-10.635193-43.437445-3.669118-54.07266 15.55917zm111.36514-119.03719c-18.459802-10.242482-41.727601-3.581052-51.970118 14.878732-10.242516 18.459783-3.581129 41.727594 14.878635 51.970145s41.727587 3.581208 51.970173-14.878537c4.918718-8.86472 6.114452-19.320326 3.324151-29.066672-2.7903-9.746347-9.338065-17.985051-18.202841-22.903668zm7.42469-89.28002c-7.213648 12.956079-5.912429 28.981817 3.296898 40.604423 9.209328 11.622606 24.513141 16.553201 38.775281 12.492652 14.262139-4.060549 24.673915-16.312586 26.380321-31.042992 1.706407-14.730406-5.628603-29.038273-18.58472-36.251853-8.495612-4.730176-18.522326-5.891729-27.874361-3.229128-9.352034 2.662602-17.263309 8.931249-21.993419 17.426898z"/><circle cx="573.344" cy="254.855" r="35.102" transform="matrix(.50217498 -.86476603 .86476603 .50217498 65.035042 622.681612)"/><path d="m647.761016 120.736313c-11.830283-6.638549-26.494645-5.497034-37.155118 2.89226-10.660472 8.389293-15.217658 22.374237-11.546547 35.433673 3.67111 13.059436 14.847555 22.621532 28.317774 24.227498 13.470219 1.605965 26.581483-5.060468 33.220031-16.890751 4.353137-7.757411 5.446328-16.926386 3.03908-25.489819-2.407249-8.563434-8.117744-15.819839-15.87522-20.172861zm13.73235-91.32258c-8.672128 15.3854313-3.229959 34.8879352 12.15544 43.56012 7.388291 4.1646624 16.1284 5.223711 24.297544 2.9441602 8.169143-2.2795508 15.098126-7.710966 19.262606-15.0993602 8.672095-15.3855096 3.229947-34.8880476-12.15544-43.56036-15.385442-8.67211255-34.887942-3.2299489-43.56015 12.15544z"/><circle cx="241.526" cy="1083.894" r="33.56" transform="matrix(.13178928 -.99127775 .99127775 .13178928 -864.744547 1180.467745)"/><circle cx="292.493" cy="991.739" r="35.117" transform="matrix(.80281748 -.59622487 .59622487 .80281748 -533.625549 369.9454)"/><path d="m325.713956 931.681933c12.979847 7.179153 29.006232 5.832528 40.606075-3.411945 11.599844-9.244474 16.488755-24.566254 12.387042-38.820818-4.101712-14.254565-16.386287-24.63472-31.125445-26.300216s-29.030274 5.711659-36.209422 18.691509c-9.802913 17.723714-3.381907 40.038453 14.34175 49.84147zm102.173-105.74002c10.219033-18.475989 3.525471-41.737899-14.9505-51.956965-18.47597-10.219067-41.737893-3.525546-51.956992 14.950406-10.2191 18.475951-3.525621 41.737886 14.950312 51.957019 18.476044 10.219042 41.738006 3.525511 51.95718-14.95046z"/><circle cx="445.402" cy="715.287" r="39.787" transform="matrix(.68931614 -.72446067 .72446067 .68931614 -379.818084 544.904353)"/><circle cx="496.372" cy="623.135" r="41.343" transform="matrix(.91097904 -.41245265 .41245265 .91097904 -212.826171 260.202025)"/><path d="m519.586306 498.959703c-10.635022 19.228415-3.668732 43.437514 15.559657 54.072583 19.228389 10.63507 43.437505 3.66884 54.072622-15.559523 10.635117-19.228362 3.668948-43.437495-15.559389-54.07266-9.233829-5.107244-20.118318-6.337153-30.258971-3.419157-10.140652 2.917996-18.706785 9.744867-23.813919 18.978757zm111.34991-119.1161c-18.476054-10.218974-41.73797-3.525309-51.956976 14.950728-10.219005 18.476037-3.52538 41.737964 14.950639 51.957001 18.476019 10.219038 41.737958 3.525453 51.957027-14.950549 10.219047-18.4761 3.525398-41.738112-14.95069-51.95718z"/><circle cx="670.464" cy="308.379" r="36.673" transform="matrix(.70710678 -.70710678 .70710678 .70710678 -21.682523 564.411759)"/><path d="m697.765166 186.463233c-9.38689 16.971322-3.238496 38.338875 13.732824 47.725769s38.338875 3.238504 47.725772-13.732815c9.386897-16.971318 3.238511-38.338874-13.732806-47.725774-16.971332-9.386852-38.338861-3.238469-47.72579 13.73282z"/><circle cx="786.525" cy="98.541" r="33.56"/><circle cx="340.703" cy="1138.749" r="32.235" transform="matrix(.38671096 -.92220097 .92220097 .38671096 -841.206019 1012.578917)"/><circle cx="391.672" cy="1046.597" r="33.745" transform="matrix(.70710678 -.70710678 .70710678 .70710678 -625.337763 583.495091)"/><circle cx="442.641" cy="954.445" r="35.256" transform="matrix(.96100631 -.27652643 .27652643 .96100631 -246.669063 159.619264)"/><path d="m475.815746 894.466153c17.768439 9.827621 40.139466 3.390351 49.967137-14.37806 9.827672-17.768411 3.390465-40.139456-14.377918-49.967178-17.768384-9.827722-40.139447-3.390578-49.967219 14.377778-4.719607 8.532707-5.856231 18.590815-3.159821 27.961575 2.696411 9.37076 9.004972 17.286536 17.537821 22.005885z"/><circle cx="544.58" cy="770.142" r="38.276" transform="matrix(.70710678 -.70710678 .70710678 .70710678 -385.068842 610.64558)"/><circle cx="595.549" cy="677.99" r="39.787" transform="matrix(.70710678 -.70710678 .70710678 .70710678 -304.979063 619.69541)"/><circle cx="653.554" cy="573.122" r="38.276" transform="matrix(.61842211 -.7858461 .7858461 .61842211 -201.003933 732.283545)"/><circle cx="711.556" cy="468.251" r="36.766" transform="matrix(.14768858 -.98903391 .98903391 .14768858 143.351186 1102.848691)"/><circle cx="769.559" cy="363.382" r="35.256" transform="matrix(.41361299 -.9104528 .9104528 .41361299 120.417831 913.730541)"/><path d="m843.895336 228.982923c-11.94349-6.605991-26.690301-5.366925-37.364013 3.139423-10.673711 8.506348-15.172316 22.604798-11.398121 35.721258 3.774196 13.11646 15.077928 22.667866 28.64028 24.200409s26.712448-5.255586 33.318414-17.19909c4.331751-7.831643 5.374956-17.06331 2.900117-25.664116s-8.264992-15.866209-16.096677-20.197884z"/><circle cx="885.566" cy="153.643" r="32.235" transform="matrix(.34146246 -.93989541 .93989541 .34146246 438.770106 933.519106)"/><path d="m958.439956 21.887273c-10.874388-6.0146374-24.301145-4.8864556-34.019387 2.8584754-9.718242 7.7449309-13.814125 20.581377-10.377742 32.5237158s13.728294 20.6387274 26.076624 22.0340483 24.321284-4.7852109 30.335885-15.6596195c3.943982-7.1306004 4.893785-15.5358979 2.64046-23.3667971-2.253325-7.8308993-7.525194-14.4459237-14.65584-18.3898229z"/><circle cx="490.849" cy="1101.452" r="32.374" transform="matrix(.36292599 -.93181797 .93181797 .36292599 -713.644987 1159.089296)"/><circle cx="541.818" cy="1009.3" r="33.838" transform="matrix(.68166641 -.73166311 .73166311 .68166641 -565.988706 717.722332)"/><path d="m623.679266 934.234673c6.910722-12.49451 5.614454-27.921649-3.284357-39.08776-8.898811-11.16611-23.647693-15.872214-37.369259-11.923861-13.721565 3.948353-23.713583 15.773603-25.316786 29.961647s5.498133 27.944787 17.992662 34.855474c17.06099 9.436231 38.541229 3.255335 47.97774-13.8055z"/><circle cx="643.757" cy="824.997" r="36.766" transform="matrix(.88507701 -.46544461 .46544461 .88507701 -310.007926 394.444343)"/><circle cx="694.726" cy="732.845" r="38.23" transform="matrix(.7943192 -.60750062 .60750062 .7943192 -302.311994 572.778617)"/><circle cx="752.702" cy="628.025" r="36.766" transform="matrix(.52775657 -.84939567 .84939567 .52775657 -177.98314 935.922503)"/><circle cx="810.678" cy="523.205" r="35.302" transform="matrix(.9822054 -.1878099 .1878099 .9822054 -83.837386 161.56358)"/><path d="m885.031956 388.774373c-16.353392-9.044973-36.942833-3.120346-45.987832 13.233031s-3.120405 36.942829 13.232958 45.987853c16.353363 9.045025 36.942823 3.120464 45.987874-13.232884 9.044706-16.353466 3.120162-36.942745-13.233-45.988z"/><circle cx="926.63" cy="313.565" r="32.374" transform="matrix(.96100631 -.27652643 .27652643 .96100631 -50.57629 268.46474)"/><path d="m999.567056 181.696493c-10.939947-6.050985-24.447702-4.916082-34.224615 2.875506-9.776912 7.791587-13.897585 20.705436-10.440552 32.719835 3.457032 12.014399 13.810965 20.763314 26.233772 22.167137 12.422807 1.403822 24.468029-4.813907 30.518989-15.753868 3.96781-7.173595 4.92339-15.629589 2.65652-23.507742-2.26686-7.878153-7.57049-14.53312-14.744114-18.500868zm17.248684-92.02382c-7.87104 14.230692-2.71554 32.147685 11.51514 40.018745s32.14768 2.715582 40.01876-11.515088c7.87108-14.230671 2.71563-32.1476784-11.51503-40.018777-14.23073-7.871034-32.14774-2.7155518-40.01887 11.51512zm-399.659874 1081.639787c6.069148-10.97281 4.930813-24.52113-2.884198-34.32739s-20.767661-13.93927-32.818132-10.47181c-12.050471 3.46745-20.825621 13.85252-22.233599 26.31265-1.407978 12.46012 4.828493 24.54149 15.801349 30.61055 7.195124 3.97971 15.676494 4.93814 23.578276 2.66444 7.901783-2.27369 14.576693-7.59326 18.556304-14.78844zm8.14854-78.78736c11.474566 6.34649 25.642304 5.15595 35.896818-3.01648 10.254514-8.17242 14.576352-21.71731 10.950247-34.31869-3.626105-12.60139-14.486054-21.77764-27.515867-23.2499-13.029813-1.47225-25.663491 5.04943-32.009968 16.524-4.161681 7.52415-5.163892 16.39336-2.786151 24.65645 2.377742 8.26309 7.940656 15.24316 15.464921 19.40462z"/><circle cx="691.965" cy="972.004" r="33.838" transform="matrix(.97897789 -.2039664 .2039664 .97897789 -183.709595 161.571189)"/><path d="m773.784956 896.915753c6.901627-12.47804 5.60708-27.884852-3.279996-39.036256s-23.61652-15.851318-37.320007-11.908178c-13.703488 3.943141-23.682348 15.752801-25.283448 29.922148-1.601099 14.169348 5.49087 27.907968 17.968931 34.809556 17.038479 9.423977 38.490539 3.251207 47.91452-13.78727zm2.36859-77.1239c12.979847 7.179153 29.006232 5.832528 40.606075-3.411945 11.599844-9.244474 16.488755-24.566254 12.387042-38.820818-4.101712-14.254565-16.386287-24.63472-31.125445-26.300216s-29.030274 5.711659-36.209422 18.691509c-4.70763 8.511208-5.841346 18.54393-3.15174 27.89104s8.982211 17.242927 17.49349 21.95043zm106.54948-119.79864c6.901697-12.478075 5.60718-27.884963-3.279919-39.036431-8.887098-11.151468-23.616608-15.851416-37.320158-11.908258-13.703549 3.943158-23.682447 15.752882-25.283532 29.922296s5.49095 27.908082 17.969089 34.809663c17.038493 9.423852 38.49046 3.251108 47.91452-13.78727zm56.70823-105.4569c6.624075-11.976306 5.381542-26.763596-3.148207-37.46657-8.529749-10.702975-22.666924-15.213863-35.819374-11.429243-13.152449 3.784621-22.73002 15.119432-24.2667 28.719024s5.270153 26.785753 17.246481 33.409789c7.853165 4.343563 17.11016 5.389565 25.734547 2.907895 8.624387-2.481669 15.909701-8.287724 20.253253-16.140895z"/><circle cx="967.75" cy="473.388" r="32.42" transform="matrix(.58485858 -.81113528 .81113528 .58485858 17.771401 981.499133)"/><circle cx="1025.698" cy="368.617" r="31.002" transform="matrix(.45761012 -.88915296 .88915296 .45761012 228.571322 1111.93654)"/><circle cx="1083.647" cy="263.847" r="29.585" transform="matrix(.99722555 -.07443919 .07443919 .99722555 -16.634037 81.39783)"/><path d="m1155.22908 134.427593c-9.96925-5.514068-22.27845-4.479852-31.18785 2.620395-8.90939 7.100247-12.66442 18.86825-9.51412 29.816601 3.15031 10.948352 12.58554 18.920958 23.90607 20.2002 11.32053 1.279243 22.29696-4.386803 27.811-14.356066 7.52922-13.612788 2.59761-30.75177-11.0151-38.28113zm-387.926924 999.588097c6.069121-10.97279 4.93077-24.52108-2.884239-34.3273s-20.767636-13.93919-32.818067-10.47171c-12.050432 3.46748-20.82553 13.85255-22.233463 26.31265-1.407934 12.4601 4.828567 24.54141 15.801419 30.61041 14.983048 8.28708 33.847211 2.85897 42.13435-12.12405zm8.17092-78.82749c15.645899 8.65379 35.344689 2.98558 43.998489-12.66032 8.653799-15.64589 2.985592-35.34468-12.660297-43.998492-15.64589-8.653807-35.344686-2.98561-43.998502 12.660272-8.653721 15.64592-2.985527 35.34467 12.66031 43.99854z"/><circle cx="842.111" cy="934.707" r="33.745" transform="matrix(.85363263 -.52087555 .52087555 .85363263 -363.608448 575.445639)"/><path d="m923.809866 859.551603c9.386826-16.971384 3.238329-38.338934-13.733053-47.725763-16.971382-9.386828-38.338934-3.238335-47.725765 13.733046-9.386831 16.97138-3.238341 38.338933 13.733038 47.725767 8.149935 4.507775 17.756786 5.593346 26.707123 3.017895 8.950337-2.575452 16.510983-8.600954 21.018657-16.750945z"/><circle cx="951.002" cy="737.834" r="33.745" transform="matrix(.25600257 -.9666761 .9666761 .25600257 -5.703447 1468.257509)"/><circle cx="1008.923" cy="633.113" r="32.374" transform="matrix(.12105511 -.99264579 .99264579 .12105511 258.33076 1557.974601)"/><circle cx="1066.845" cy="528.391" r="31.003" transform="matrix(.20336834 -.9791023 .9791023 .20336834 332.533657 1465.483394)"/><path d="m1098.83696 409.328253c-7.92054 14.320365-2.73248 32.350173 11.58786 40.270755 14.32033 7.920582 32.35016 2.73259 40.27079-11.587718 7.92063-14.320309 2.73271-32.350154-11.58757-40.270837-6.87691-3.803682-14.98317-4.719714-22.53547-2.546576-7.55231 2.173137-13.932 7.25743-17.73561 14.134376z"/><circle cx="890.319" cy="1081.714" r="30.91" transform="matrix(.18892406 -.9819917 .9819917 .18892406 -340.117037 1751.639055)"/><circle cx="941.289" cy="989.562" r="32.235" transform="matrix(.88313598 -.46911709 .46911709 .88313598 -354.217626 557.218947)"/><path d="m1021.6247 913.653333c6.56967-11.877878 5.33739-26.54366-3.12224-37.158712-8.45962-10.615053-22.480611-15.088924-35.524999-11.335455-13.044388 3.75347-22.543305 14.995099-24.067422 28.482933-1.524116 13.487834 5.226717 26.565674 17.104597 33.135344 16.218996 8.970721 36.639294 3.094863 45.610064-13.12411z"/><circle cx="1050.152" cy="792.738" r="32.235" transform="matrix(.02343763 -.9997253 .9997253 .02343763 233.018695 1824.021628)"/><path d="m1093.08564 715.114423c10.93998 6.050962 24.44776 4.916003 34.22465-2.875646 9.77689-7.791648 13.89749-20.705547 10.44037-32.719942-3.45712-12.014396-13.81114-20.763248-26.23398-22.166965-12.42284-1.403718-24.46802 4.81414-30.51887 15.754183-3.96772 7.173601-4.92322 15.62956-2.65631 23.507659 2.2669 7.878098 7.57053 14.533004 14.74414 18.500711z"/><circle cx="989.496" cy="1136.569" r="29.446" transform="matrix(.01012274 -.99994876 .99994876 .01012274 -157.031174 2114.509113)"/><path d="m1067.35153 1059.28762c6.01465-10.87437 4.88649-24.30113-2.85844-34.01938-7.74493-9.71824-20.58138-13.81412-32.52371-10.37772-11.94233 3.43641-20.6387 13.72834-22.03398 26.07667-1.39528 12.34834 4.7853 24.32127 15.65974 30.33581 14.84866 8.21273 33.54362 2.83326 41.75639-12.01538z"/><circle cx="1091.435" cy="952.265" r="32.003" transform="matrix(.38753168 -.92185639 .92185639 .38753168 -209.382208 1589.378475)"/><path d="m1134.43084 874.528593c10.87435 6.014718 24.30113 4.886623 34.01942-2.858254 9.7183-7.744878 13.81426-20.581312 10.37794-32.523678-3.43633-11.942367-13.7282-20.638813-26.07654-22.034189-12.34833-1.395376-24.32132 4.785115-30.33596 15.659511-8.21276 14.848673-2.83342 33.54365 12.01514 41.75661z"/><circle cx="1139.643" cy="1099.272" r="29.214" transform="matrix(.68675773 -.72688639 .72688639 .68675773 -442.061493 1172.729438)"/></g></g></svg>