<svg fill="none" height="18" viewBox="0 0 18 18" width="18" xmlns="http://www.w3.org/2000/svg"><path clip-rule="evenodd" d="m12.6041 11.4159 4.4834 4.4834c.1576.1577.246.3715.246.5944-.0001.223-.0888.4367-.2464.5943-.1577.1576-.3716.2461-.5945.246s-.4367-.0887-.5943-.2464l-4.4833-4.4833c-1.3403 1.038-3.02563 1.5265-4.71326 1.3661-1.68762-.1604-3.25074-.9578-4.37137-2.2298-1.12062-1.272-1.714575-2.92314-1.661024-4.61753s.750584-3.30474 1.949294-4.50345c1.19871-1.19872 2.80906-1.895746 4.50345-1.949298 1.69439-.053551 3.34551.540398 4.61751 1.661028 1.2721 1.12062 2.0694 2.68374 2.2298 4.37137.1605 1.68762-.328 3.37298-1.3661 4.71318zm-5.2708.9175c1.32609 0 2.59786-.5267 3.5355-1.4644.9377-.9377 1.4645-2.20947 1.4645-3.53555 0-1.32609-.5268-2.59786-1.4645-3.53554-.93764-.93768-2.20941-1.46446-3.5355-1.46446-1.32608 0-2.59785.52678-3.53553 1.46446s-1.46447 2.20945-1.46447 3.53554c0 1.32608.52679 2.59785 1.46447 3.53555s2.20945 1.4644 3.53553 1.4644z" fill="#1c2624" fill-rule="evenodd"/></svg>