<svg width="32" height="32" viewBox="0 0 32 32" xmlns="http://www.w3.org/2000/svg"><path d="M16 0c8.837 0 16 7.163 16 16s-7.163 16-16 16S0 24.837 0 16 7.163 0 16 0zm-4.2 12.204H8.212V23H11.8V12.204zm8.808-.253c-1.852 0-2.71.99-3.194 1.721l-.04.061v-1.529h-3.588c.047 1.013 0 10.796 0 10.796h3.588v-6.029c0-.322.024-.645.118-.875.26-.645.85-1.313 1.841-1.313 1.299 0 1.818.99 1.818 2.442V23h3.588v-6.19c0-3.316-1.77-4.86-4.13-4.86l-.001.001zM10.03 7C8.803 7 8 7.806 8 8.865c0 1.036.779 1.865 1.983 1.865h.023c1.252 0 2.03-.829 2.03-1.865C12.013 7.806 11.258 7 10.03 7z" fill="#FFF" fill-rule="evenodd"/></svg>