<svg xmlns="http://www.w3.org/2000/svg" width="1698" height="533" fill="none" viewBox="0 0 1698 533"><path fill="#432ecc" d="M64.844 157.37c0-24.453 19.823-44.276 44.276-44.276h213.992c24.453 0 44.276 19.823 44.276 44.276 0 24.452-19.823 44.275-44.276 44.275H109.12c-24.453 0-44.276-19.823-44.276-44.275"/><path fill="#30d1ff" d="M64.844 157.37c0-24.453 19.823-44.276 44.276-44.276h127.493c24.453 0 44.276 19.823 44.276 44.276 0 24.452-19.823 44.275-44.276 44.275H109.12c-24.453 0-44.276-19.823-44.276-44.275"/><path fill="#432ecc" d="M65.098 157.37c0-24.453 19.823-44.276 44.275-44.276h213.82c24.453 0 44.276 19.823 44.276 44.276 0 24.452-19.823 44.275-44.276 44.275H109.374c-24.453 0-44.276-19.823-44.276-44.275"/><path fill="#2780c9" d="m731.305 504.903-2.199-43.806 44.652-49.218h43.467l-50.064 55.138-22.156 22.664zm-35.688 25.371V411.879h39.24v118.395zm77.802 0-34.841-46.005 25.877-27.4 55.138 73.405zM619.636 532.98q-27.231 0-42.453-14.715t-15.222-41.269v-65.117h39.916v63.933q0 13.531 4.905 19.281 4.905 5.582 13.192 5.582 8.457 0 13.193-5.582 4.905-5.75 4.905-19.281v-63.933h39.239v65.117q0 26.554-15.222 41.269t-42.453 14.715"/><path fill="#432ecc" d="M1613 325.221v-51.925l9.13 23.848-53.78-90.318h42.11l36.37 61.735h-24.53l36.7-61.735h38.57l-53.45 90.318 8.8-23.848v51.925zM1517.9 327.928c-9.47 0-18.26-1.466-26.38-4.397q-12.015-4.567-20.97-12.855c-5.87-5.525-10.43-12.065-13.7-19.619s-4.91-15.899-4.91-25.032 1.64-17.478 4.91-25.032c3.27-7.555 7.83-14.095 13.7-19.62q8.955-8.288 20.97-12.685c8.12-3.045 16.91-4.567 26.38-4.567 11.62 0 21.88 2.03 30.79 6.089q13.53 6.089 22.32 17.59l-25.2 22.495q-5.235-6.596-11.67-10.148c-4.17-2.481-8.91-3.721-14.21-3.721-4.17 0-7.95.676-11.33 2.03q-5.07 2.03-8.79 5.919-3.555 3.89-5.58 9.472c-1.36 3.608-2.03 7.667-2.03 12.178 0 4.51.67 8.625 2.03 12.346q2.025 5.413 5.58 9.303 3.72 3.89 8.79 5.92c3.38 1.353 7.16 2.029 11.33 2.029 5.3 0 10.04-1.184 14.21-3.552q6.435-3.72 11.67-10.317l25.2 22.495q-8.79 11.332-22.32 17.59c-8.91 4.059-19.17 6.089-30.79 6.089M1320.75 325.221V206.826h32.81l60.21 72.052h-15.22v-72.052h38.9v118.395h-32.81l-60.21-72.052h15.22v72.052zM1243.48 250.801h52.77v28.753h-52.77zm2.7 44.314h59.2v30.106h-98.43V206.826h96.23v30.106h-57zM1138.35 327.928c-9.58 0-18.44-1.466-26.55-4.397-8.01-3.045-15-7.33-20.98-12.855-5.86-5.525-10.43-12.065-13.7-19.619s-4.9-15.899-4.9-25.032 1.63-17.478 4.9-25.032c3.27-7.555 7.9-14.095 13.87-19.62 5.98-5.525 13.03-9.754 21.14-12.685 8.24-3.045 17.26-4.567 27.07-4.567q17.58 0 31.29 5.92 13.86 5.92 22.83 16.913l-25.54 22.495q-5.58-6.426-12.18-9.64-6.42-3.383-14.37-3.383c-4.4 0-8.4.676-12.01 2.03q-5.25 2.03-8.97 5.919c-2.48 2.594-4.39 5.694-5.75 9.303-1.35 3.608-2.03 7.724-2.03 12.347 0 4.397.68 8.456 2.03 12.177 1.36 3.609 3.27 6.709 5.75 9.303 2.48 2.593 5.42 4.623 8.8 6.089q5.235 2.03 11.67 2.029c4.51 0 8.91-.733 13.19-2.199 4.29-1.578 8.85-4.228 13.7-7.949l22.33 27.4c-7.22 4.849-15.45 8.57-24.7 11.163-9.24 2.593-18.21 3.89-26.89 3.89m16.91-20.127v-44.99h34.68v50.064zM950.945 325.221V206.826h56.995q16.575 0 28.59 5.413c8.12 3.608 14.37 8.795 18.77 15.56q6.6 9.98 6.6 23.679 0 13.7-6.6 23.679c-4.4 6.54-10.65 11.557-18.77 15.053q-12.015 5.243-28.59 5.243h-34.838l17.759-16.406v46.174zm70.865 0-29.088-43.13h42.288l29.42 43.13zm-30.949-41.777-17.759-18.097h32.308c5.52 0 9.58-1.24 12.17-3.721 2.71-2.481 4.06-5.863 4.06-10.148s-1.35-7.668-4.06-10.148c-2.59-2.481-6.65-3.721-12.17-3.721h-32.308l17.759-18.098zM873.67 250.801h52.77v28.753h-52.77zm2.706 44.314h59.197v30.106h-98.436V206.826h96.238v30.106h-56.999zM675.766 325.221V206.826h32.812l47.358 77.295h-17.252l46.005-77.295h32.812l.338 118.395h-36.364l-.338-63.595h5.75l-31.459 52.939h-17.59l-32.812-52.939h7.104v63.595zM598.494 250.801h52.77v28.753h-52.77zm2.706 44.314h59.198v30.106h-98.437V206.826h96.238v30.106H601.2zM1294.97 46.684h52.77v28.753h-52.77zm2.7 44.314h59.2v30.106h-98.44V2.709h96.24v30.106h-57zM1173.48 121.104V33.661h-34.67V2.709h109.26v30.952h-34.67v87.443zM1004.59 121.104l51.75-118.395h39.24l51.76 118.395h-41.27l-38.23-99.452h15.56l-38.22 99.452zm30.78-20.635 10.15-28.753h54.46l10.15 28.753zM856.059 121.104V2.709h32.812l47.358 77.295h-17.252l46.005-77.295h32.812l.338 118.395h-36.364l-.338-63.595h5.75l-31.459 52.939h-17.59l-32.812-52.94h7.104v63.596zM796.945 121.104V2.709h39.916v118.395zM692.547 121.104V2.709h39.916v87.443h53.446v30.952zM627.924 123.807q-14.208 0-26.385-4.398-12.009-4.566-20.973-12.854-8.795-8.287-13.7-19.62-4.905-11.331-4.905-25.031t4.905-25.033 13.7-19.62q8.964-8.287 20.973-12.684Q613.716 0 627.924 0q17.42 0 30.782 6.089 13.531 6.09 22.326 17.59l-25.201 22.495q-5.244-6.596-11.67-10.148-6.258-3.72-14.208-3.721-6.258 0-11.332 2.03-5.073 2.028-8.795 5.92-3.552 3.89-5.581 9.47-2.03 5.413-2.03 12.179 0 6.765 2.03 12.346 2.03 5.413 5.581 9.303 3.722 3.89 8.795 5.92t11.332 2.03q7.95 0 14.208-3.553 6.426-3.72 11.67-10.317l25.201 22.495q-8.794 11.332-22.326 17.59-13.361 6.089-30.782 6.089M108.262 268.84c0-24.453 19.823-44.276 44.276-44.276h127.537c24.452 0 44.275 19.823 44.275 44.276s-19.823 44.276-44.275 44.276H152.538c-24.453 0-44.276-19.823-44.276-44.276M.457 47.061c0-24.453 19.823-44.276 44.276-44.276H388.3c24.453 0 44.275 19.823 44.275 44.276s-19.822 44.276-44.275 44.276H44.733C20.28 91.337.457 71.514.457 47.06"/><path fill="#30d1ff" d="M0 47.061C0 22.608 19.823 2.785 44.276 2.785H215.09c24.453 0 44.276 19.823 44.276 44.276s-19.823 44.276-44.276 44.276H44.276C19.823 91.337 0 71.514 0 47.06"/><path fill="#432ecc" d="M.223 485.448c0-24.453 19.823-44.276 44.276-44.276h343.567c24.453 0 44.276 19.823 44.276 44.276s-19.823 44.276-44.276 44.276H44.499c-24.453 0-44.276-19.823-44.276-44.276M65.055 376.096c0-24.453 19.823-44.276 44.276-44.276h213.992c24.453 0 44.276 19.823 44.276 44.276s-19.823 44.276-44.276 44.276H109.331c-24.453 0-44.276-19.823-44.276-44.276"/><path fill="#30d1ff" d="M64.844 157.37c0-24.453 19.823-44.276 44.276-44.276h41.081c24.453 0 44.276 19.823 44.276 44.276 0 24.452-19.823 44.275-44.276 44.275H109.12c-24.453 0-44.276-19.823-44.276-44.275M108.406 268.84c0-24.453 19.823-44.276 44.276-44.276h84.143c24.453 0 44.276 19.823 44.276 44.276s-19.823 44.276-44.276 44.276h-84.143c-24.453 0-44.276-19.823-44.276-44.276M65.258 376.096c0-24.453 19.823-44.276 44.276-44.276h84.143c24.452 0 44.275 19.823 44.275 44.276s-19.823 44.276-44.275 44.276h-84.143c-24.453 0-44.276-19.823-44.276-44.276M.492 485.448c0-24.453 19.823-44.276 44.276-44.276h256.621c24.453 0 44.275 19.823 44.275 44.276s-19.822 44.276-44.275 44.276H44.768c-24.453 0-44.276-19.823-44.276-44.276"/></svg>