<svg xmlns="http://www.w3.org/2000/svg" width="1680" height="528" fill="none" viewBox="0 0 1680 528"><path fill="#432ecc" d="M64.168 155.727c0-24.197 19.616-43.813 43.813-43.813h211.755c24.198 0 43.813 19.616 43.813 43.813s-19.615 43.813-43.813 43.813H107.981c-24.197 0-43.813-19.616-43.813-43.813"/><path fill="#30d1ff" d="M64.168 155.727c0-24.197 19.616-43.813 43.813-43.813h126.161c24.197 0 43.813 19.616 43.813 43.813s-19.616 43.813-43.813 43.813H107.981c-24.197 0-43.813-19.616-43.813-43.813"/><path fill="#432ecc" d="M64.414 155.727c0-24.197 19.616-43.813 43.813-43.813h211.584c24.197 0 43.813 19.616 43.813 43.813s-19.616 43.813-43.813 43.813H108.227c-24.197 0-43.813-19.616-43.813-43.813"/><path fill="#30d1ff" d="m723.658 499.624-2.176-43.348 44.185-48.704h43.014l-49.541 54.562-21.925 22.427zm-35.314 25.105V407.572h38.829v117.157zm76.989 0-34.478-45.524 25.607-27.113 54.562 72.637zM613.162 527.407q-26.946 0-42.009-14.561t-15.063-40.837v-64.437h39.498v63.265q0 13.389 4.854 19.08 4.854 5.523 13.055 5.523 8.368 0 13.054-5.523 4.854-5.691 4.854-19.08v-63.265h38.829v64.437q0 26.276-15.063 40.837-15.063 14.56-42.009 14.561"/><path fill="#fff" d="M1596.14 321.819v-51.382l9.04 23.599-53.23-89.374h41.68l35.98 61.089h-24.27l36.32-61.089h38.16l-52.89 89.374 8.71-23.599v51.382zM1502.04 324.495c-9.37 0-18.07-1.45-26.11-4.351-7.92-3.013-14.84-7.253-20.75-12.72q-8.7-8.202-13.56-19.415c-3.23-7.476-4.85-15.732-4.85-24.77s1.62-17.295 4.85-24.771q4.86-11.213 13.56-19.414c5.91-5.467 12.83-9.652 20.75-12.553 8.04-3.012 16.74-4.519 26.11-4.519 11.5 0 21.65 2.009 30.46 6.026 8.93 4.016 16.29 9.819 22.1 17.406l-24.94 22.26q-5.19-6.528-11.55-10.042c-4.13-2.455-8.81-3.682-14.06-3.682-4.13 0-7.87.669-11.21 2.008-3.35 1.339-6.25 3.291-8.71 5.858q-3.51 3.849-5.52 9.372-2.01 5.356-2.01 12.051 0 6.694 2.01 12.218 2.01 5.355 5.52 9.205c2.46 2.566 5.36 4.519 8.71 5.858 3.34 1.338 7.08 2.008 11.21 2.008 5.25 0 9.93-1.172 14.06-3.515q6.36-3.682 11.55-10.209l24.94 22.26c-5.81 7.475-13.17 13.277-22.1 17.406-8.81 4.017-18.96 6.025-30.46 6.025M1306.94 321.819V204.662h32.47l59.58 71.298h-15.06v-71.298h38.49v117.157h-32.46l-59.59-71.298h15.07v71.298zM1230.48 248.178h52.22v28.452h-52.22zm2.68 43.85h58.58v29.791h-97.41V204.662h95.23v29.791h-56.4zM1126.45 324.495c-9.49 0-18.24-1.45-26.28-4.351-7.92-3.013-14.84-7.253-20.75-12.72q-8.7-8.202-13.56-19.415c-3.23-7.476-4.85-15.732-4.85-24.77s1.62-17.295 4.85-24.771c3.24-7.475 7.81-13.947 13.73-19.414 5.91-5.467 12.88-9.652 20.92-12.553 8.14-3.012 17.07-4.519 26.78-4.519q17.4 0 30.96 5.858 13.725 5.857 22.59 16.737l-25.27 22.26c-3.68-4.24-7.7-7.42-12.05-9.54-4.24-2.232-8.98-3.347-14.23-3.347q-6.525 0-11.88 2.008c-3.46 1.339-6.42 3.291-8.87 5.858s-4.35 5.634-5.69 9.205q-2.01 5.355-2.01 12.218 0 6.527 2.01 12.05c1.34 3.571 3.24 6.639 5.69 9.205 2.45 2.567 5.36 4.575 8.7 6.026q5.19 2.007 11.55 2.008c4.46 0 8.82-.725 13.06-2.176 4.24-1.562 8.75-4.184 13.55-7.866l22.1 27.113c-7.15 4.798-15.29 8.48-24.44 11.047q-13.725 3.849-26.61 3.849m16.73-19.917v-44.519h34.32v49.54zM941.008 321.819V204.662h56.402c10.94 0 20.36 1.785 28.29 5.356q12.045 5.355 18.57 15.398c4.35 6.583 6.53 14.393 6.53 23.431s-2.18 16.848-6.53 23.431q-6.525 9.708-18.57 14.896c-7.93 3.459-17.35 5.188-28.29 5.188h-34.477l17.573-16.234v45.691zm70.122 0-28.783-42.679h41.843l29.12 42.679zm-30.624-41.34-17.573-17.908H994.9c5.47 0 9.48-1.227 12.05-3.682q4.02-3.682 4.02-10.042t-4.02-10.042c-2.57-2.455-6.58-3.682-12.05-3.682h-31.967l17.573-17.908zM864.538 248.178h52.218v28.452h-52.218zm2.678 43.85h58.578v29.791h-97.407V204.662h95.232v29.791h-56.403zM668.699 321.819V204.662h32.469l46.863 76.487H730.96l45.524-76.487h32.469l.334 117.157h-35.983l-.335-62.93h5.69l-31.13 52.386h-17.406l-32.469-52.386h7.029v62.93zM592.241 248.178h52.219v28.452h-52.219zm2.678 43.85h58.578v29.791H556.09V204.662h95.232v29.791h-56.403zM1281.43 46.199h52.22v28.452h-52.22zm2.68 43.85h58.57v29.791h-97.4V2.684h95.23v29.79h-56.4zM1161.21 119.84V33.312h-34.31V2.684h108.12v30.628h-34.31v86.528zM994.09 119.84 1045.3 2.684h38.83l51.22 117.156h-40.84l-37.82-98.411h15.39l-37.82 98.411zm30.46-20.418 10.04-28.453h53.89l10.05 28.453zM847.109 119.84V2.684h32.47l46.862 76.486H909.37l45.524-76.486h32.469l.335 117.156h-35.984l-.335-62.93h5.69l-31.13 52.386h-17.406L876.064 56.91h7.029v62.93zM788.613 119.84V2.684h39.499V119.84zM685.309 119.84V2.684h39.498v86.528h52.888v30.628zM621.363 122.513q-14.06 0-26.109-4.352-11.883-4.519-20.754-12.72-8.703-8.201-13.557-19.414-4.853-11.214-4.853-24.77 0-13.557 4.853-24.771 4.854-11.213 13.557-19.415 8.871-8.2 20.754-12.552Q607.304-.001 621.363 0q17.238 0 30.461 6.025 13.389 6.026 22.092 17.406l-24.937 22.26q-5.189-6.527-11.549-10.042-6.192-3.682-14.059-3.682-6.192 0-11.213 2.008-5.022 2.01-8.703 5.858-3.514 3.85-5.523 9.373-2.009 5.355-2.009 12.05t2.009 12.218q2.008 5.355 5.523 9.205 3.681 3.85 8.703 5.858 5.02 2.009 11.213 2.008 7.867 0 14.059-3.514 6.36-3.682 11.549-10.21l24.937 22.26q-8.703 11.214-22.092 17.406-13.223 6.026-30.461 6.026"/><path fill="#432ecc" d="M107.133 266.032c0-24.198 19.616-43.813 43.813-43.813h126.203c24.198 0 43.813 19.615 43.813 43.813 0 24.197-19.615 43.813-43.813 43.813H150.946c-24.197 0-43.813-19.616-43.813-43.813M.45 46.569c0-24.197 19.615-43.813 43.812-43.813h339.976c24.197 0 43.813 19.616 43.813 43.813s-19.616 43.813-43.813 43.813H44.262C20.065 90.382.45 70.766.45 46.569"/><path fill="#30d1ff" d="M0 46.569C0 22.372 19.616 2.756 43.813 2.756h169.03c24.197 0 43.813 19.616 43.813 43.813s-19.616 43.813-43.813 43.813H43.813C19.616 90.382 0 70.766 0 46.569"/><path fill="#432ecc" d="M.227 480.372c0-24.198 19.615-43.813 43.812-43.813h339.977c24.197 0 43.812 19.615 43.812 43.813 0 24.197-19.615 43.813-43.812 43.813H44.039c-24.197 0-43.812-19.616-43.812-43.813M64.371 372.165c0-24.198 19.616-43.813 43.813-43.813H319.94c24.197 0 43.813 19.615 43.813 43.813 0 24.197-19.616 43.812-43.813 43.812H108.184c-24.197 0-43.813-19.615-43.813-43.812"/><path fill="#30d1ff" d="M64.168 155.727c0-24.197 19.616-43.813 43.813-43.813h40.652c24.197 0 43.813 19.616 43.813 43.813s-19.616 43.813-43.813 43.813h-40.652c-24.197 0-43.813-19.616-43.813-43.813M107.273 266.032c0-24.198 19.616-43.813 43.813-43.813h83.264c24.197 0 43.813 19.615 43.813 43.813 0 24.197-19.616 43.813-43.813 43.813h-83.264c-24.197 0-43.813-19.616-43.813-43.813M64.586 372.165c0-24.198 19.616-43.813 43.813-43.813h83.263c24.197 0 43.813 19.615 43.813 43.813 0 24.197-19.616 43.812-43.813 43.812h-83.263c-24.197 0-43.813-19.615-43.813-43.812M.484 480.372c0-24.198 19.616-43.813 43.813-43.813h253.938c24.197 0 43.813 19.615 43.813 43.813 0 24.197-19.616 43.813-43.813 43.813H44.297C20.1 524.185.484 504.569.484 480.372"/></svg>