<svg fill="none" height="18" viewBox="0 0 20 18" width="20" xmlns="http://www.w3.org/2000/svg"><path d="m12.9746 5.64882.0011-.00098c.3449-.33117.3013-.89178-.0797-1.17166-.493-.36657-1.0705-.59629-1.6734-.67524v-.43605c0-.54976-.4432-.99301-.993-.99301h-.46339c-.54977 0-.99302.44325-.99302.99301v.42481c-1.39465.18562-2.46297 1.40786-2.46731 2.88076v.00088c0 1.28344.83321 2.43531 2.03815 2.79639.00005.00002.00009.00003.00014.00004l2.60073.78063.0012.0004c.1504.0444.2902.2172.2902.4471 0 .2896-.2022.4639-.3805.4639h-1.62396c-.21174 0-.40664-.0555-.58327-.1667l-.00136-.0009c-.28139-.1751-.67513-.1869-.95084.0802l-.67935.646-.00102.001c-.34497.3311-.30139.8917.07965 1.1716.49302.3666 1.07048.5963 1.67337.6752v.4361c0 .5498.44325.993.99302.993h.46336c.5498 0 .9931-.4432.9931-.993v-.4248c1.3945-.1856 2.4673-1.4074 2.4673-2.8816 0-1.28349-.8332-2.43536-2.0382-2.79644 0-.00002-.0001-.00003-.0001-.00005l-2.60078-.78064-.00116-.00035c-.1504-.04448-.29024-.21725-.29024-.44708 0-.28961.20219-.46399.3805-.46399h1.62398c.2117 0 .4066.05557.5833.16679l.0013.00084c.2814.17509.6752.18696.9509-.08016zm5.409 3.03477c0 4.63121-3.7524 8.38361-8.3836 8.38361-4.78215 0-8.38359-3.7489-8.38359-8.38361 0-4.63116 3.75242-8.38359 8.38359-8.38359 4.6312 0 8.3836 3.75243 8.3836 8.38359z" fill="#045c88" stroke="#404040" stroke-width=".6"/></svg>