<svg xmlns="http://www.w3.org/2000/svg" width="120" height="120" fill="none" viewBox="0 0 120 120"><path fill="#fff" d="M60 0c33.137 0 60 26.863 60 60s-26.863 60-60 60S0 93.137 0 60 26.863 0 60 0M29.085 45.914V90h13.679V45.914zm48.51-1.097a14.36 14.36 0 0 0-7.453 1.769 14.4 14.4 0 0 0-5.49 5.352h-.183v-6.024H51.35V90h13.665V68.19c0-5.75 1.088-11.32 8.206-11.32 7.016 0 7.107 6.58 7.107 11.693V90h13.665L94 65.816c0-11.872-2.554-20.999-16.404-20.999M38.965 24.605a7.92 7.92 0 0 0-8.643 1.723 7.95 7.95 0 0 0-1.716 8.657 7.94 7.94 0 0 0 2.92 3.565 7.92 7.92 0 0 0 11.732-3.568 7.96 7.96 0 0 0-.734-7.453 7.93 7.93 0 0 0-3.56-2.924"/></svg>