<svg xmlns="http://www.w3.org/2000/svg" width="120" height="120" fill="none" viewBox="0 0 120 120"><path fill="#fff" d="M60 0c33.137 0 60 26.863 60 60s-26.863 60-60 60S0 93.137 0 60 26.863 0 60 0M44.843 22.5C32.523 22.5 22.5 32.523 22.5 44.843v30.314c0 12.32 10.023 22.343 22.343 22.343h30.314c12.32 0 22.343-10.023 22.343-22.343V44.843c0-12.32-10.023-22.343-22.343-22.343zm30.314 7.545c8.173 0 14.798 6.625 14.798 14.798v30.314c0 8.173-6.625 14.798-14.798 14.798H44.843c-8.173 0-14.798-6.625-14.798-14.798V44.843c0-8.173 6.625-14.798 14.798-14.798zM60 40.602c-10.696 0-19.397 8.702-19.397 19.398S49.304 79.397 60 79.397 79.397 70.696 79.397 60 70.696 40.603 60 40.603m0 7.546c6.546 0 11.853 5.306 11.853 11.852S66.546 71.853 60 71.853 48.148 66.546 48.148 60 53.454 48.148 60 48.148M79.647 36.1a4.648 4.648 0 1 0 0 9.295 4.648 4.648 0 0 0 0-9.295"/></svg>