<svg fill="none" height="32" viewBox="0 0 32 32" width="32" xmlns="http://www.w3.org/2000/svg"><path clip-rule="evenodd" d="m20.017 31.49c6.893-1.78 11.983-8.04 11.983-15.49 0-8.837-7.163-16-16-16s-16 7.163-16 16c0 7.45 5.09 13.71 11.982 15.49.036-.1.052-.207.052-.31 0-.388-.013-1.42-.02-2.79-4.452.992-5.39-2.2-5.39-2.2-.73-1.894-1.778-2.4-1.778-2.4-1.452-1.016.11-.996.11-.996 1.606.116 2.45 1.69 2.45 1.69 1.428 2.508 3.746 1.784 4.658 1.364.145-1.06.56-1.783 1.015-2.193-3.553-.413-7.29-1.82-7.29-8.108 0-1.79.625-3.256 1.648-4.402-.165-.415-.714-2.083.158-4.34 0 0 1.342-.442 4.4 1.68 1.275-.363 2.645-.545 4.005-.551 1.36.007 2.728.188 4.006.553 3.054-2.124 4.394-1.683 4.394-1.683.875 2.258.326 3.926.162 4.34 1.025 1.147 1.644 2.613 1.644 4.403 0 6.303-3.74 7.69-7.305 8.095.575.507 1.086 1.508 1.086 3.04 0 2.19-.02 3.96-.02 4.498 0 .103.017.21.05.31z" fill="#fdfdfd" fill-rule="evenodd"/></svg>