<svg xmlns="http://www.w3.org/2000/svg" width="120" height="120" fill="none" viewBox="0 0 120 120"><path fill="#fff" d="M60.016 119.999 60 120zM60 0c33.137 0 60 26.863 60 60 0 30.652-22.984 55.933-52.658 59.554V78.24h16.314v.025l3.378-18.378H67.317v-6.495c0-9.719 3.814-13.447 13.708-13.447s5.551.072 6.975.216v-16.67C85.297 22.746 78.709 22 74.895 22c-20.15 0-29.442 9.478-29.442 29.948v7.914H33V78.24h12.453v39.98a60.6 60.6 0 0 0 13.518 1.77C26.308 119.441 0 92.793 0 60 0 26.863 26.863 0 60 0"/></svg>