<svg fill="none" height="72" viewBox="0 0 240 72" width="240" xmlns="http://www.w3.org/2000/svg"><g fill="#fdfdfd"><path d="m15.16 28.5c1.5467 0 2.8933-.2133 4.04-.64 1.16-.44 2-.8667 2.52-1.28l1.74 3.46c-.6.5333-1.6467 1.0733-3.14 1.62s-3.28.82-5.36.82c-1.9467 0-3.76-.3467-5.44-1.04-1.66667-.6933-3.13333-1.66-4.4-2.9s-2.25333-2.68-2.96-4.32c-.70667-1.6533-1.06-3.4467-1.06-5.38s.35333-3.7267 1.06-5.38c.70667-1.6667 1.68667-3.12 2.94-4.36 1.26667-1.25334 2.74-2.22667 4.42-2.92 1.68-.70667 3.4933-1.06 5.44-1.06 2.08 0 3.8667.27333 5.36.82 1.4933.54666 2.54 1.08667 3.14 1.62l-1.74 3.46c-.52-.4267-1.36-.8533-2.52-1.28-1.1467-.42667-2.4933-.64-4.04-.64-1.4533 0-2.7733.24667-3.96.74-1.1867.4933-2.21333 1.18-3.08 2.06-.85333.88-1.51333 1.9067-1.98 3.08-.45333 1.1733-.68 2.44-.68 3.8 0 1.3733.22667 2.6533.68 3.84.46667 1.1733 1.12667 2.2 1.98 3.08.86667.88 1.8933 1.5667 3.08 2.06s2.5067.74 3.96.74zm18.4106 3.98c-1.72 0-3.2466-.3733-4.58-1.12-1.32-.76-2.36-1.7933-3.12-3.1s-1.14-2.78-1.14-4.42.38-3.12 1.14-4.44c.76-1.3333 1.8-2.38 3.12-3.14 1.3334-.7733 2.86-1.16 4.58-1.16 1.7067 0 3.22.3867 4.54 1.16 1.32.76 2.3534 1.8067 3.1 3.14.7467 1.32 1.12 2.8 1.12 4.44s-.3733 3.1133-1.12 4.42c-.7466 1.3067-1.78 2.34-3.1 3.1-1.32.7467-2.8333 1.12-4.54 1.12zm0-3.48c.9734 0 1.82-.22 2.54-.66.7334-.4533 1.3-1.0667 1.7-1.84.4-.7867.6-1.68.6-2.68 0-.9867-.2-1.8733-.6-2.66-.4-.8-.9666-1.4267-1.7-1.88-.72-.4667-1.5666-.7-2.54-.7-.9866 0-1.8466.2333-2.58.7-.7333.4533-1.3 1.08-1.7 1.88-.4.7867-.6 1.6733-.6 2.66 0 1 .2 1.8933.6 2.68.4.7733.9667 1.3867 1.7 1.84.7334.44 1.5934.66 2.58.66zm14.6753-5.3c0 1.6133.34 2.9 1.02 3.86s1.74 1.44 3.18 1.44c1.4667 0 2.5334-.48 3.2-1.44.68-.96 1.02-2.2467 1.02-3.86v-8.12h4.06v8.64c0 1.6267-.3266 3.0667-.98 4.32-.64 1.24-1.5733 2.2067-2.8 2.9-1.2266.6933-2.7266 1.04-4.5 1.04-1.7466 0-3.2333-.3467-4.46-1.04-1.2266-.6933-2.1666-1.66-2.82-2.9-.64-1.2533-.96-2.6933-.96-4.32v-8.64h4.04zm25.0604-8.6c1.0933 0 2.1533.2267 3.18.68 1.04.4533 1.8933 1.1733 2.56 2.16.68.9867 1.02 2.2733 1.02 3.86v10.2h-4.14v-9.42c0-1.52-.36-2.6333-1.08-3.34-.7067-.7067-1.62-1.06-2.74-1.06-.7467 0-1.46.2133-2.14.64-.68.4133-1.2334.98-1.66 1.7-.4267.72-.64 1.5467-.64 2.48v9h-4.12v-16.42h4.12v2.8c.12-.4533.44-.9333.96-1.44.5333-.5067 1.2066-.94 2.02-1.3.8133-.36 1.7-.54 2.66-.54zm17.5012 14.04c.9733 0 1.76-.1533 2.36-.46.6133-.32 1-.56 1.16-.72l1.96 2.9c-.16.1333-.4933.3333-1 .6-.4933.2533-1.1333.4867-1.92.7-.7733.2133-1.66.32-2.66.32-1.5867 0-3.0467-.34-4.38-1.02-1.32-.68-2.38-1.6667-3.18-2.96-.7867-1.3067-1.18-2.88-1.18-4.72 0-1.8533.3933-3.42 1.18-4.7.8-1.2933 1.86-2.28 3.18-2.96 1.3333-.68 2.7933-1.02 4.38-1.02.9867 0 1.86.1133 2.62.34s1.3933.48 1.9.76c.5067.2667.8467.48 1.02.64l-1.98 2.9c-.1067-.0933-.3067-.2467-.6-.46s-.68-.4067-1.16-.58c-.4667-.1733-1.0333-.26-1.7-.26-.8 0-1.58.22-2.34.66-.7467.4267-1.36 1.04-1.84 1.84-.4667.7867-.7 1.7333-.7 2.84s.2333 2.06.7 2.86c.48.8 1.0933 1.42 1.84 1.86.76.4267 1.54.64 2.34.64zm7.3606 2.86v-16.42h4.0999v16.42zm2.0999-21.5c-.7065 0-1.3132-.2467-1.8199-.74-.4933-.50667-.74-1.10667-.74-1.8 0-.70667.2467-1.31334.74-1.82.5067-.50667 1.1134-.76 1.8199-.76.467 0 .893.12 1.28.36.4.22667.72.53333.96.92.24.37333.36.80667.36 1.3 0 .69333-.253 1.29333-.76 1.8-.507.4933-1.12.74-1.84.74zm9.672 21.5h-4.14v-27.52h4.14zm24.803-3.5c1.546 0 2.893-.2133 4.04-.64 1.16-.44 2-.8667 2.52-1.28l1.74 3.46c-.6.5333-1.647 1.0733-3.14 1.62-1.494.5467-3.28.82-5.36.82-1.947 0-3.76-.3467-5.44-1.04-1.667-.6933-3.134-1.66-4.4-2.9-1.267-1.24-2.254-2.68-2.96-4.32-.707-1.6533-1.06-3.4467-1.06-5.38s.353-3.7267 1.06-5.38c.706-1.6667 1.686-3.12 2.94-4.36 1.266-1.25334 2.74-2.22667 4.42-2.92 1.68-.70667 3.493-1.06 5.44-1.06 2.08 0 3.866.27333 5.36.82 1.493.54666 2.54 1.08667 3.14 1.62l-1.74 3.46c-.52-.4267-1.36-.8533-2.52-1.28-1.147-.42667-2.494-.64-4.04-.64-1.454 0-2.774.24667-3.96.74-1.187.4933-2.214 1.18-3.08 2.06-.854.88-1.514 1.9067-1.98 3.08-.454 1.1733-.68 2.44-.68 3.8 0 1.3733.226 2.6533.68 3.84.466 1.1733 1.126 2.2 1.98 3.08.866.88 1.893 1.5667 3.08 2.06 1.186.4933 2.506.74 3.96.74zm14.85 3.5h-4.14v-27.52h4.14zm3.466 0v-16.42h4.1v16.42zm2.1-21.5c-.707 0-1.314-.2467-1.82-.74-.494-.50667-.74-1.10667-.74-1.8 0-.70667.246-1.31334.74-1.82.506-.50667 1.113-.76 1.82-.76.466 0 .893.12 1.28.36.4.22667.72.53333.96.92.24.37333.36.80667.36 1.3 0 .69333-.254 1.29333-.76 1.8-.507.4933-1.12.74-1.84.74zm25.852 4.6c1.213 0 2.26.26 3.14.78.893.52 1.58 1.32 2.06 2.4s.72 2.46.72 4.14v9.58h-4.04v-8.82c0-1.6267-.233-2.86-.7-3.7-.453-.8533-1.3-1.28-2.54-1.28-.68 0-1.32.1867-1.92.56-.587.36-1.067.9067-1.44 1.64-.36.7333-.54 1.66-.54 2.78v8.82h-3.8v-8.82c0-1.6267-.28-2.86-.84-3.7-.56-.8533-1.373-1.28-2.44-1.28-.68 0-1.313.18-1.9.54-.587.3467-1.06.8867-1.42 1.62-.347.7333-.52 1.6733-.52 2.82v8.82h-4.08v-16.42h4.08v2.48c.147-.4133.467-.8467.96-1.3.507-.4667 1.147-.86 1.92-1.18.787-.32 1.64-.48 2.56-.48.987 0 1.813.1867 2.48.56s1.193.84 1.58 1.4c.4.5467.687 1.0933.86 1.64.187-.56.547-1.1133 1.08-1.66.547-.56 1.227-1.02 2.04-1.38.813-.3733 1.713-.56 2.7-.56zm21.9 16.9v-3.06c-.106.3067-.413.7467-.92 1.32-.506.5733-1.193 1.0867-2.06 1.54-.853.4533-1.873.68-3.06.68-1.533 0-2.913-.3667-4.14-1.1-1.226-.7333-2.193-1.7533-2.9-3.06-.706-1.3067-1.06-2.8133-1.06-4.52s.354-3.2133 1.06-4.52c.707-1.3067 1.674-2.3267 2.9-3.06 1.227-.7467 2.607-1.12 4.14-1.12 1.16 0 2.16.2067 3 .62.854.4 1.534.8667 2.04 1.4.52.52.84.98.96 1.38v-2.92h4.08v16.42zm-10.1-8.2c0 1.08.24 2.02.72 2.82s1.107 1.42 1.88 1.86c.774.44 1.6.66 2.48.66.947 0 1.794-.22 2.54-.66.747-.4533 1.334-1.08 1.76-1.88.427-.8.64-1.7333.64-2.8s-.213-2-.64-2.8c-.426-.8-1.013-1.4267-1.76-1.88-.746-.4533-1.593-.68-2.54-.68-.88 0-1.706.2267-2.48.68-.773.44-1.4 1.06-1.88 1.86s-.72 1.74-.72 2.82zm15.583-8.22h3.12v-6.74h4.06v6.74h4.1v3.48h-4.1v7.24c0 .9067.153 1.58.46 2.02.32.44.76.66 1.32.66.466 0 .833-.0867 1.1-.26.28-.1867.446-.3067.5-.36l1.56 2.98c-.094.0667-.327.2-.7.4-.374.1867-.86.3533-1.46.5-.6.16-1.287.24-2.06.24-1.36 0-2.5-.4067-3.42-1.22-.907-.8267-1.36-2.1133-1.36-3.86v-8.34h-3.12zm16.274 9.22c.027.8667.234 1.6467.62 2.34.387.6933.954 1.24 1.7 1.64.76.3867 1.687.58 2.78.58.947 0 1.76-.1267 2.44-.38.694-.2667 1.267-.58 1.72-.94.454-.3733.787-.72 1-1.04l1.9 2.58c-.413.56-.933 1.06-1.56 1.5-.626.44-1.406.78-2.34 1.02-.92.2533-2.06.38-3.42.38-1.786 0-3.34-.3667-4.66-1.1s-2.346-1.7667-3.08-3.1c-.72-1.3333-1.08-2.8933-1.08-4.68 0-1.6.334-3.04 1-4.32.667-1.2933 1.634-2.3133 2.9-3.06 1.28-.7467 2.814-1.12 4.6-1.12 1.667 0 3.114.3333 4.34 1 1.227.6667 2.174 1.6267 2.84 2.88.68 1.24 1.02 2.74 1.02 4.5 0 .1067-.006.3267-.02.66 0 .3333-.013.5533-.04.66zm8.72-3.12c-.013-.4267-.16-.9133-.44-1.46-.266-.5467-.7-1.02-1.3-1.42-.6-.4133-1.4-.62-2.4-.62-1.026 0-1.86.2-2.5.6-.64.3867-1.113.8533-1.42 1.4-.306.5333-.486 1.0333-.54 1.5z" opacity=".9"/><path d="m1.75 46.52h5.04c1.15733 0 2.198.1867 3.122.56s1.6613.9613 2.212 1.764c.5507.7933.826 1.834.826 3.122 0 1.2787-.2753 2.338-.826 3.178-.5507.8307-1.288 1.4513-2.212 1.862s-1.96467.616-3.122.616h-2.87v7.378h-2.17zm2.17 9.254h2.282c.82133 0 1.568-.1167 2.24-.35.672-.2427 1.20867-.6393 1.61-1.19.4013-.56.602-1.302.602-2.226 0-.9427-.2007-1.6753-.602-2.198-.40133-.532-.938-.9053-1.61-1.12s-1.41867-.322-2.24-.322h-2.282zm15.1388 9.226h-2.24v-19.264h2.24zm13.7176 0v-2.282c-.0653.2333-.28.56-.644.98s-.8587.798-1.484 1.134-1.3673.504-2.226.504c-1.0547 0-2.016-.2473-2.884-.742-.868-.504-1.5587-1.2087-2.072-2.114-.504-.9147-.756-1.988-.756-3.22s.252-2.3007.756-3.206c.5133-.9147 1.204-1.624 2.072-2.128s1.8293-.756 2.884-.756c.8493 0 1.582.154 2.198.462.6253.308 1.12.6627 1.484 1.064.3733.4013.5927.742.658 1.022v-2.212h2.184v11.494zm-7.882-5.74c0 .868.1867 1.6193.56 2.254.3827.6253.8773 1.1107 1.484 1.456.6067.336 1.2507.504 1.932.504.7373 0 1.3953-.1727 1.974-.518s1.036-.8353 1.372-1.47.504-1.3767.504-2.226-.168-1.5913-.504-2.226-.7933-1.1247-1.372-1.47c-.5787-.3547-1.2367-.532-1.974-.532-.6813 0-1.3253.1727-1.932.518s-1.1013.8353-1.484 1.47c-.3733.6253-.56 1.372-.56 2.24zm20.4636-6.09c.7467 0 1.47.1587 2.17.476.7094.308 1.2927.8073 1.75 1.498.4667.6813.7 1.568.7 2.66v7.196h-2.24v-6.734c0-1.176-.2753-2.03-.826-2.562-.5506-.532-1.2553-.798-2.114-.798-.5786 0-1.1293.1633-1.652.49-.5226.3267-.952.77-1.288 1.33s-.504 1.1947-.504 1.904v6.37h-2.226v-11.494h2.226v2.086c.0747-.3173.2987-.6627.672-1.036.3734-.3827.8494-.7093 1.428-.98.588-.2707 1.2227-.406 1.904-.406zm22.2301-6.986c1.0546 0 1.96.1213 2.716.364s1.3533.4993 1.792.77c.4386.2707.6953.448.77.532l-1.134 1.792c-.14-.1213-.3874-.294-.742-.518-.3547-.2333-.8027-.4433-1.344-.63-.532-.1867-1.148-.28-1.848-.28-1.092 0-1.9554.224-2.59.672-.6347.448-.952 1.0733-.952 1.876 0 .5507.168 1.0313.504 1.442.336.4013.8026.7747 1.4 1.12.5973.336 1.288.6767 2.072 1.022.6346.2707 1.2646.5787 1.89.924.6253.3453 1.1946.7513 1.708 1.218.5133.4667.924 1.008 1.232 1.624.3173.616.476 1.33.476 2.142 0 .7747-.1634 1.4793-.49 2.114-.3174.6253-.7607 1.162-1.33 1.61-.5694.4387-1.2367.7747-2.002 1.008-.7654.2333-1.596.35-2.492.35-1.12 0-2.128-.14-3.024-.42s-1.6194-.5693-2.17-.868c-.5507-.308-.8634-.4947-.938-.56l1.204-1.89c.112.0933.3126.2333.602.42.2986.1773.6673.364 1.106.56.4386.196.9333.364 1.484.504.5506.1307 1.1433.196 1.778.196 1.3066 0 2.2913-.294 2.954-.882.672-.5973 1.008-1.3487 1.008-2.254 0-.7093-.2147-1.316-.644-1.82-.4294-.504-.994-.952-1.694-1.344-.6907-.4013-1.4467-.784-2.268-1.148-.84-.3827-1.6147-.8027-2.324-1.26-.7-.4573-1.26-.9987-1.68-1.624-.42-.6347-.63-1.4-.63-2.296 0-.8773.2473-1.652.742-2.324.504-.672 1.1806-1.1947 2.03-1.568.8586-.3827 1.8013-.574 2.828-.574zm15.1316 17.29c.7466 0 1.3486-.1167 1.806-.35.4666-.2427.756-.4153.868-.518l1.092 1.61c-.0934.084-.3127.2147-.658.392-.3454.1773-.7934.3407-1.344.49-.5414.1587-1.1574.238-1.848.238-1.0174 0-1.974-.2333-2.87-.7s-1.624-1.1527-2.184-2.058c-.5507-.9053-.826-2.016-.826-3.332 0-1.3253.2753-2.436.826-3.332.56-.896 1.288-1.5773 2.184-2.044s1.8526-.7 2.87-.7c.6906 0 1.2973.084 1.82.252.532.1587.966.336 1.302.532.3453.196.574.3453.686.448l-1.106 1.624c-.0747-.0747-.224-.1913-.448-.35-.2147-.168-.504-.3173-.868-.448s-.798-.196-1.302-.196c-.616 0-1.218.168-1.806.504-.588.3267-1.0687.8073-1.442 1.442-.3734.6253-.56 1.3813-.56 2.268s.1866 1.6473.56 2.282c.3733.6347.854 1.12 1.442 1.456.588.3267 1.19.49 1.806.49zm12.3364 1.862c-1.176 0-2.2214-.266-3.136-.798-.9054-.532-1.6194-1.2553-2.142-2.17-.5134-.9147-.77-1.9413-.77-3.08s.2566-2.17.77-3.094c.5226-.9333 1.2366-1.6707 2.142-2.212.9146-.5413 1.96-.812 3.136-.812 1.1666 0 2.2026.2707 3.108.812.9053.5413 1.61 1.2787 2.1139 2.212.513.924.77 1.9553.77 3.094s-.257 2.1653-.77 3.08c-.5039.9147-1.2086 1.638-2.1139 2.17-.9054.532-1.9414.798-3.108.798zm0-1.918c.7746 0 1.4513-.1773 2.03-.532.588-.364 1.0406-.8587 1.358-1.484.3173-.6253.476-1.3347.476-2.128 0-.784-.1587-1.4887-.476-2.114-.3174-.6347-.77-1.1387-1.358-1.512-.5787-.3733-1.2554-.56-2.03-.56-.784 0-1.47.1867-2.058.56s-1.0454.8773-1.372 1.512c-.3174.6253-.476 1.33-.476 2.114 0 .7933.1586 1.5027.476 2.128.3266.6253.784 1.12 1.372 1.484.588.3547 1.274.532 2.058.532zm11.7609 1.582h-2.198v-11.494h2.198v2.002h-.07c.056-.2333.228-.532.518-.896.298-.3733.709-.7047 1.232-.994.532-.2987 1.157-.448 1.876-.448.532 0 .998.0747 1.4.224.401.14.686.28.854.42l-.924 1.834c-.122-.1213-.35-.2473-.686-.378-.327-.14-.728-.21-1.204-.21-.626 0-1.162.2007-1.61.602-.448.392-.794.8633-1.036 1.414-.234.5507-.35 1.0593-.35 1.526zm9.42-5.306c.009.7093.159 1.3627.448 1.96.299.588.737 1.0593 1.316 1.414.588.3453 1.311.518 2.17.518.728 0 1.339-.1073 1.834-.322.504-.2147.915-.4713 1.232-.77.317-.308.546-.5833.686-.826l1.162 1.386c-.317.4667-.7.8727-1.148 1.218-.439.3453-.975.6067-1.61.784-.625.1867-1.391.28-2.296.28-1.232 0-2.296-.266-3.192-.798-.887-.532-1.573-1.2647-2.058-2.198-.476-.9427-.714-2.016-.714-3.22 0-1.12.224-2.128.672-3.024.457-.9053 1.12-1.6193 1.988-2.142.877-.5227 1.927-.784 3.15-.784 1.12 0 2.095.238 2.926.714.831.4667 1.475 1.1293 1.932 1.988s.686 1.876.686 3.052c0 .0747-.005.2053-.014.392-.009.1773-.019.3033-.028.378zm6.986-1.75c-.019-.4013-.135-.8353-.35-1.302-.205-.476-.551-.882-1.036-1.218-.476-.3453-1.12-.518-1.932-.518-.849 0-1.531.1633-2.044.49s-.891.728-1.134 1.204c-.233.4667-.369.9147-.406 1.344zm11.091 5.53c.747 0 1.349-.1167 1.806-.35.467-.2427.756-.4153.868-.518l1.092 1.61c-.093.084-.313.2147-.658.392s-.793.3407-1.344.49c-.541.1587-1.157.238-1.848.238-1.017 0-1.974-.2333-2.87-.7s-1.624-1.1527-2.184-2.058c-.551-.9053-.826-2.016-.826-3.332 0-1.3253.275-2.436.826-3.332.56-.896 1.288-1.5773 2.184-2.044s1.853-.7 2.87-.7c.691 0 1.297.084 1.82.252.532.1587.966.336 1.302.532.345.196.574.3453.686.448l-1.106 1.624c-.075-.0747-.224-.1913-.448-.35-.215-.168-.504-.3173-.868-.448s-.798-.196-1.302-.196c-.616 0-1.218.168-1.806.504-.588.3267-1.069.8073-1.442 1.442-.373.6253-.56 1.3813-.56 2.268s.187 1.6473.56 2.282.854 1.12 1.442 1.456c.588.3267 1.19.49 1.806.49zm16.354 1.526v-2.282c-.065.2333-.28.56-.644.98s-.858.798-1.484 1.134c-.625.336-1.367.504-2.226.504-1.054 0-2.016-.2473-2.884-.742-.868-.504-1.558-1.2087-2.072-2.114-.504-.9147-.756-1.988-.756-3.22s.252-2.3007.756-3.206c.514-.9147 1.204-1.624 2.072-2.128s1.83-.756 2.884-.756c.85 0 1.582.154 2.198.462.626.308 1.12.6627 1.484 1.064.374.4013.593.742.658 1.022v-2.212h2.184v11.494zm-7.882-5.74c0 .868.187 1.6193.56 2.254.383.6253.878 1.1107 1.484 1.456.607.336 1.251.504 1.932.504.738 0 1.396-.1727 1.974-.518.579-.3453 1.036-.8353 1.372-1.47s.504-1.3767.504-2.226-.168-1.5913-.504-2.226-.793-1.1247-1.372-1.47c-.578-.3547-1.236-.532-1.974-.532-.681 0-1.325.1727-1.932.518-.606.3453-1.101.8353-1.484 1.47-.373.6253-.56 1.372-.56 2.24zm16.418 5.74h-2.198v-11.494h2.198v2.002h-.07c.056-.2333.229-.532.518-.896.299-.3733.709-.7047 1.232-.994.532-.2987 1.157-.448 1.876-.448.532 0 .999.0747 1.4.224.401.14.686.28.854.42l-.924 1.834c-.121-.1213-.35-.2473-.686-.378-.327-.14-.728-.21-1.204-.21-.625 0-1.162.2007-1.61.602-.448.392-.793.8633-1.036 1.414-.233.5507-.35 1.0593-.35 1.526zm19.85 0v-19.264h-2.24v9.982c-.056-.2987-.275-.644-.658-1.036-.382-.4013-.905-.7513-1.568-1.05-.653-.308-1.404-.462-2.254-.462-1.064 0-2.016.252-2.856.756-.83.504-1.488 1.2133-1.974 2.128-.476.9053-.714 1.974-.714 3.206s.238 2.3053.714 3.22c.486.9053 1.144 1.61 1.974 2.114.84.4947 1.792.742 2.856.742.812 0 1.54-.154 2.184-.462.654-.308 1.181-.6673 1.582-1.078.411-.4107.663-.77.756-1.078v2.282zm-10.066-5.74c0-.868.178-1.6147.532-2.24.355-.6347.817-1.1247 1.386-1.47.579-.3453 1.209-.518 1.89-.518.738 0 1.41.1773 2.016.532.616.3453 1.102.8353 1.456 1.47.364.6347.546 1.3767.546 2.226s-.182 1.5913-.546 2.226c-.354.6347-.84 1.1247-1.456 1.47-.606.3453-1.278.518-2.016.518-.681 0-1.311-.168-1.89-.504-.569-.3453-1.031-.8307-1.386-1.456-.354-.6347-.532-1.386-.532-2.254zm17.851-6.09c.579 0 1.12.0607 1.624.182.514.1213.952.266 1.316.434.374.168.644.3173.812.448l-.91 1.428c-.196-.168-.536-.3547-1.022-.56-.485-.2147-1.026-.322-1.624-.322-.681 0-1.26.1353-1.736.406-.476.2613-.714.6533-.714 1.176 0 .4947.243.8913.728 1.19.495.2987 1.148.546 1.96.742.644.1587 1.242.364 1.792.616.551.252.994.5973 1.33 1.036.346.4387.518 1.0267.518 1.764 0 .6533-.14 1.2133-.42 1.68-.27.4573-.639.8307-1.106 1.12-.457.28-.975.4853-1.554.616-.578.14-1.171.21-1.778.21-.69 0-1.316-.0747-1.876-.224-.55-.14-1.022-.308-1.414-.504-.382-.2053-.667-.3827-.854-.532l.938-1.61c.243.2427.64.4947 1.19.756.56.2613 1.195.392 1.904.392.812 0 1.47-.1727 1.974-.518.504-.3547.756-.812.756-1.372 0-.4293-.121-.77-.364-1.022-.242-.252-.564-.4527-.966-.602-.401-.1587-.84-.294-1.316-.406-.457-.112-.9-.252-1.33-.42-.429-.1773-.816-.3967-1.162-.658-.336-.2613-.606-.5833-.812-.966-.205-.3827-.308-.8307-.308-1.344 0-.6533.206-1.2133.616-1.68.411-.4667.952-.826 1.624-1.078s1.4-.378 2.184-.378z" opacity=".9"/></g></svg>