<svg fill="none" height="20" viewBox="0 0 20 20" width="20" xmlns="http://www.w3.org/2000/svg"><path clip-rule="evenodd" d="m13.6061 12.415 4.4833 4.4833c.1576.1577.2461.3715.246.5945-.0001.2229-.0887.4367-.2464.5943-.1577.1575-.3715.246-.5945.2459-.2229 0-.4367-.0887-.5942-.2464l-4.4834-4.4833c-1.3402 1.0381-3.02558 1.5266-4.7132 1.3661-1.68763-.1604-3.25075-.9577-4.37138-2.2298-1.12062-1.272-1.71457-2.92312-1.66102-4.61751s.75058-3.30474 1.94929-4.50345c1.19872-1.19871 2.80907-1.89574 4.50345-1.94929 1.69439-.05356 3.34556.5404 4.61756 1.66102 1.272 1.12063 2.0693 2.68375 2.2298 4.37137.1604 1.68763-.3281 3.37296-1.3661 4.71326zm-5.27084.9175c1.32608 0 2.59784-.5268 3.53554-1.4645s1.4645-2.20945 1.4645-3.53553-.5268-2.59785-1.4645-3.53553c-.9377-.93769-2.20946-1.46447-3.53554-1.46447-1.32609 0-2.59786.52678-3.53554 1.46447-.93768.93768-1.46446 2.20945-1.46446 3.53553s.52678 2.59783 1.46446 3.53553 2.20945 1.4645 3.53554 1.4645z" fill="#fdfdfd" fill-rule="evenodd" opacity=".8"/></svg>