<svg fill="none" height="27" viewBox="0 0 29 27" width="29" xmlns="http://www.w3.org/2000/svg"><path d="m12.937 2.96212c.3738-.9495 1.7886-.9495 2.1636 0l2.4183 6.45075c.1694.4275.6005.71213 1.0818.71213h5.943c1.0982 0 1.5772 1.3162.7138 1.9609l-4.2291 3.6641c-.1894.1402-.3279.3347-.3955.5554-.0675.2207-.0608.4563.0193.6731l1.5445 6.3034c.3762 1.0125-.8412 1.8821-1.7618 1.2588l-5.7443-3.5099c-.1968-.1332-.4314-.2046-.6718-.2046s-.475.0714-.6718.2046l-5.74433 3.5099c-.91943.6233-2.13794-.2475-1.76175-1.2588l1.54445-6.3034c.08012-.2168.08687-.4524.01928-.6731-.06758-.2207-.20602-.4152-.39546-.5554l-4.22914-3.6641c-.86452-.6447-.38319-1.9609.71265-1.9609h5.94298c.23399.0008.46271-.0669.65592-.19409.1931-.12717.3417-.30781.4259-.51804z" fill="#afe9dd" stroke="#000" stroke-linecap="round" stroke-linejoin="round" stroke-width=".5"/></svg>