<svg fill="none" height="17" viewBox="0 0 17 17" width="17" xmlns="http://www.w3.org/2000/svg"><g fill="#1c2624"><path d="m8.5 15.502c-1.85652 0-3.63699-.7375-4.94975-2.0503-1.31275-1.3128-2.05025-3.0932-2.05025-4.94975 0-1.85651.7375-3.63699 2.05025-4.94974 1.31276-1.31276 3.09323-2.05026 4.94975-2.05026 1.8565 0 3.637.7375 4.9497 2.05026 1.3128 1.31275 2.0503 3.09323 2.0503 4.94974 0 1.85655-.7375 3.63695-2.0503 4.94975-1.3127 1.3128-3.0932 2.0503-4.9497 2.0503zm0 1c2.1217 0 4.1566-.8429 5.6569-2.3432 1.5002-1.5003 2.3431-3.5351 2.3431-5.65685 0-2.12173-.8429-4.15656-2.3431-5.65685-1.5003-1.50029-3.5352-2.343147-5.6569-2.343147-2.12173 0-4.15656.842857-5.65685 2.343147-1.5003 1.50029-2.34315 3.53512-2.34315 5.65685 0 2.12175.84285 4.15655 2.34315 5.65685 1.50029 1.5003 3.53512 2.3432 5.65685 2.3432z"/><path d="m7.5 12.002c0-.1327.05268-.2598.14645-.3536.09376-.0938.22094-.1464.35355-.1464h1c.13261 0 .25979.0526.35355.1464.09377.0938.14645.2209.14645.3536 0 .1326-.05268.2597-.14645.3535-.09376.0938-.22094.1465-.35355.1465h-1c-.13261 0-.25979-.0527-.35355-.1465-.09377-.0938-.14645-.2209-.14645-.3535zm-2-3.00005c0-.13261.05268-.25978.14645-.35355.09376-.09377.22094-.14645.35355-.14645h5c.1326 0 .2598.05268.3536.14645.0937.09377.1464.22094.1464.35355s-.0527.25979-.1464.35356c-.0938.09377-.221.14644-.3536.14644h-5c-.13261 0-.25979-.05267-.35355-.14644-.09377-.09377-.14645-.22095-.14645-.35356zm-2-3c0-.13261.05268-.25978.14645-.35355.09376-.09377.22094-.14645.35355-.14645h9c.1326 0 .2598.05268.3536.14645.0937.09377.1464.22094.1464.35355s-.0527.25979-.1464.35356c-.0938.09376-.221.14644-.3536.14644h-9c-.13261 0-.25979-.05268-.35355-.14644-.09377-.09377-.14645-.22095-.14645-.35356z"/></g></svg>