<svg fill="none" height="354" viewBox="0 0 277 354" width="277" xmlns="http://www.w3.org/2000/svg"><g opacity=".3"><path clip-rule="evenodd" d="m34.0006.0675312 1.9989-.0675312.0563 1.77591c.095 3.19545.0512 6.61376.0035 10.34079-.0332 2.5973-.0684 5.3446-.0598 8.2708l.3318 5.7784c-.0089 5.3834-.0467 12.8763-.1134 22.479l-.2174 27.3361c1.4691.4871 2.5733 1.7556 2.7944 3.2986 1.2121.1846 2.1428 1.2138 2.1428 2.4521 0 .8765-.4667 1.6477-1.169 2.0894l.8549 2.0668c.3798.9182 1.0065 1.7033 1.8126 2.2703 3.5326 2.485 5.6122 6.5097 5.5629 10.7661-.0012.1132-.0042.2259-.0084.3385-.0154.4082-.3651.7226-.7824.7115-.4166-.0152-.7418-.3583-.7263-.7663.0038-.0999.0064-.1999.0076-.3003.0437-3.7748-2.4675-7.3443-5.6007-9.5483-1.038-.7302-1.8441-1.7386-2.3312-2.9161l-.2557-2.2298h-1.0733s-.373 2.0069-.373 3.5758.373 4.6764.373 4.6764h1.2371c1.4169 0 2.5697 1.1292 2.5697 2.5172 0 1.3878-1.1528 2.517-2.5697 2.517h-.1772c-1.4169 0-1.903-.725-1.903-2.517 0-.9381-.1036-1.6092-1.6345-1.6092-1.531 0-1.1366 1.6092-1.1366 1.6092 0 1.3878-1.1528 2.517-2.5697 2.517h-.1772c-1.417 0-2.5697-1.1292-2.5697-2.517 0-1.388 2.3898-2.562 3.8068-2.562 0 0 .3773-2.8238.3773-4.2627 0-1.2128-.3773-3.6925-.3773-3.6925h1.5098s-.3151 2.3145-.3151 3.727.3151 4.2282.3151 4.2282.8323.1503 1.229.1588c.3968.0084.8754-.114.8754-.114s.3311-2.8873.3311-4.273-.3311-3.9792-.3311-3.9792h-2.1044-1.5098-1.0733l-.9222 2.2293c-.4633 1.1199-1.8503 2.103-2.9073 2.8522l-.1339.095c-3.063 2.1751-4.225 5.6829-4.225 9.3833 0 3.1257 1.2518 6.0557 3.5247 8.2497 2.2724 2.193 5.2813 4.043 8.4758 3.997 2.5328-.036 5.1226-1.431 7.147-2.944 1.9603-1.465 4.4991-5.471 4.9217-6.396s.6215.535.4984.925c-.8133 2.579-2.4772 4.907-4.6853 6.557-2.2835 1.706-5.0013 2.63-7.8597 2.67-3.6022.051-6.9951-1.282-9.5576-3.756-2.5631-2.474-3.9747-5.778-3.9747-9.3027 0-4.1728 2.0618-8.1282 5.5152-10.5806.8411-.5974 1.4847-1.3945 1.8615-2.3052l.8547-2.0663c-.7023-.4417-1.169-1.2129-1.169-2.0894 0-1.2383.9306-2.2675 2.1428-2.4521.2493-1.7398 1.6212-3.1306 3.3733-3.4459h.0969l1.158-25.4202c.0689-9.676-.836-29.0157-.836-29.0157-.0161-7.4372-.1075-13.95771-.274-19.56093zm-2.9559 95.9534688c.5845 0 1.06-.4656 1.06-1.0381v-1.6092s-2.2971.46-2.2971 1.6092c0 1.0542.4003 1.0479.9177 1.0396.0466-.0007.0941-.0015.1423-.0015zm9.0587-1.0381c-.0978 1.4457-3.0966 2.0759-2.8748 0v-1.6092s2.9726.1634 2.8748 1.6092zm-2.8479-15.7329c-.2772-1.1486-1.3328-2.0057-2.5888-2.0057s-2.3116.8572-2.5889 2.0057zm-6.3263 1.4789h.3226 6.8297.3226c.5645 0 1.0238.4499 1.0238 1.0029s-.4593 1.0028-1.0238 1.0028h-7.475c-.5645 0-1.0238-.4498-1.0238-1.0028s.4594-1.0029 1.0239-1.0029zm-12.9361 6.4382h-1.3195c-.372 0-.6736-.2984-.6736-.6667 0-.3682.3016-.6666.6736-.6666h1.3195c.372 0 .6736.2984.6736.6666 0 .3683-.3016.6667-.6736.6667zm1.0484 4.7195-1.2697.5343c-.3579.1507-.5317.5773-.3881.9528.1436.3756.5501.5578.9082.4072l1.2696-.5343c.3579-.1506.5317-.5772.3881-.9527-.1094-.2863-.3714-.4601-.6484-.4601-.0865 0-.1745.017-.2597.0528zm1.133-10.8718-1.1895-.9542c-.3354-.2691-.4191-.8024-.187-1.1913.1434-.24.3738-.3689.6079-.3689.145 0 .2914.0494.4196.1523l1.1895.9543c.3354.2691.4191.8024.187 1.1912-.232.3887-.6921.4857-1.0275.2166zm31.8324 6.1523h1.3195c.372 0 .6736-.2984.6736-.6667 0-.3682-.3016-.6666-.6736-.6666h-1.3195c-.372 0-.6736.2984-.6736.6666 0 .3683.3016.6667.6736.6667zm-1.0484 4.7195 1.2696.5343c.358.1507.5318.5774.3881.9528-.1436.3756-.5501.5578-.9081.4072l-1.2696-.5343c-.358-.1506-.5317-.5772-.3882-.9527.1095-.2862.3715-.4601.6484-.4601.0866 0 .1745.017.2598.0528zm-1.133-10.8718 1.1895-.9542c.3354-.2691.4191-.8024.187-1.1912-.1433-.2401-.3737-.369-.6079-.369-.1449 0-.2914.0494-.4196.1523l-1.1896.9542c-.3353.2691-.419.8024-.1869 1.1912.232.3886.692.4859 1.0275.2167z" fill="#0bc7a0" fill-rule="evenodd"/><path d="m156.087 205.856c-7.353 1.935-11.127 6.541-14.313 10.831-3.194 4.29 3.826 2.249 7.7.7 3.873-1.548 13.2-7.274 13.2-7.274l30.92-9.352v-14.301l-9.247-.54s-20.9 18-28.26 19.936z" fill="#fff"/><path d="m188.127 101.113c-6.613 25.03-10.026 48.978-10.566 71.952 0 0-6.194.774-5.42 6.194.773 5.419 17.033 20.128 17.033 20.128l5.633-18.673 2.107-68.808z" fill="#fff"/><path clip-rule="evenodd" d="m185.871 113.924 3.797-2.519c.243-.161.563-.036.65.254l1.324 4.398c.111.366-.219.709-.56.584l-5.122-1.879c-.349-.128-.403-.63-.089-.838zm.46.727 4.666 1.35-1.389-4z" fill="#0bc7a0" fill-rule="evenodd"/><path clip-rule="evenodd" d="m187.543 145.59 3.797-2.519c.243-.161.563-.036.65.254l1.324 4.398c.111.366-.219.709-.56.584l-5.122-1.879c-.349-.128-.403-.63-.089-.838zm.46.727 4.666 1.35-1.389-4z" fill="#0bc7a0" fill-rule="evenodd"/><path clip-rule="evenodd" d="m189.54 163.382-.282-4.548c-.018-.291.25-.505.544-.436l4.471 1.052c.373.088.505.545.226.778l-4.188 3.496c-.286.238-.747.033-.771-.342zm.86-.035 3.502-3.366-4.159-.797z" fill="#0bc7a0" fill-rule="evenodd"/><path clip-rule="evenodd" d="m182.339 160.026 4.548-.283c.291-.018.505.25.436.545l-1.052 4.471c-.088.372-.545.505-.778.225l-3.496-4.188c-.238-.285-.034-.747.342-.77zm.035.859 3.366 3.503.797-4.159z" fill="#0bc7a0" fill-rule="evenodd"/><path clip-rule="evenodd" d="m185.851 183.21 4.08 2.029c.261.13.313.47.105.69l-3.146 3.346c-.263.278-.725.165-.787-.194l-.933-5.375c-.064-.366.344-.663.681-.496zm-.4.762 1.165 4.716 2.769-3.203z" fill="#0bc7a0" fill-rule="evenodd"/><path clip-rule="evenodd" d="m183.851 170.544 4.08 2.029c.261.13.313.469.105.69l-3.146 3.346c-.263.278-.725.165-.787-.194l-.933-5.375c-.064-.366.344-.663.681-.496zm-.4.762 1.165 4.716 2.769-3.203z" fill="#0bc7a0" fill-rule="evenodd"/><path d="m210.304 116.165 4.487 13.545c10.255 31.019 15.305 46.764 15.456 48.24.095.917-.461 1.602-1.319 1.836-.515.14-1.145.132-1.928.016-1.218-.181-2.846-.638-4.812-1.317-1.52-.524-3.162-1.155-4.825-1.835l-.7-.289c-.227-.095-.448-.188-.663-.279l-1.111-.479-.317-.14-.185-.294c-.328-.521-.795-1.444-1.255-2.709-.405-1.111-.727-2.302-.939-3.559l-.075-.475c-.066-.462-.7-1.531-2.007-3.356l-.911-1.247c-.747-1.007-2.185-2.932-2.33-3.127l-.845-1.145c-.808-1.101-1.514-2.085-2.203-3.077-3.457-4.977-5.9-9.333-7.341-13.525-1.222-3.556-1.651-6.851-1.167-9.88.742-4.624.458-9.042-.625-13.188-.899-3.445 1.945-6.623 6.044-7.792 4.236-1.207 8.272.16 9.571 4.076z" fill="#fff"/><path d="m202.79 96.1359c-2.498 2.652-4.595 4.6741-6.289 6.0671-2.855 2.346-6.946 4.86-12.275 7.543 16.3 3.775 26.253 4.521 29.859 2.239 0 0-1.502-7.068-3.66-10.097-1.607-2.2543-7.635-5.7521-7.635-5.7521z" fill="#fff"/><path d="m176.861 62.0609c3.387 12.8627 12.64 26.2913 22.493 23.698 9.854-2.594 15.307-20.1747 11.92-33.0373-3.386-12.8627-14.12-21.1874-23.973-18.594-9.853 2.5933-13.827 15.0713-10.44 27.9333" fill="#fff"/><path d="m174.611 66.1631c3.832 14.7201 14.304 30.088 25.455 27.1202 11.151-2.9686 17.323-23.0881 13.49-37.8082-3.833-14.7202-15.98-24.247-27.131-21.2792-11.15 2.9679-15.647 17.2478-11.814 31.9672" fill="#fff"/><path clip-rule="evenodd" d="m192.406 35.8906c-7.598.4317-13.144 2.928-16.253 7.3267l-.35.5087c-1.538 2.2188-2.83 3.6151-3.396 7.8149l-.054.4464c-.323 2.7628-.418 5.6773-.252 6.6444.09.4087.265.5513.486.5081.503-.0982 1.803-2.4094 3.902-6.9334l1.761 2.0617c.959 1.1073 2.991 2.151 4.196 2.9355s9.96-21.313 9.96-21.313z" fill="#e7eaee" fill-rule="evenodd"/><path clip-rule="evenodd" d="m184.732 77.6735c-4.232 1.7646-7.446 4.0566-8.298 3.1034s2.054-3.856 4.312-7.7985c2.364-3.9204 4.61-8.8587 5.03-10.8678l1.075-5.0783c3.144 3.9675 6.087 17.2792-2.119 20.6412z" fill="#fff" fill-rule="evenodd"/><path d="m135.544 320.081.229 14.121h8.032l2.406-16.202z" fill="#fff"/><path d="m223.508 244.992s-52.116-1.151-68.498-3.514c-18.187-2.623-28.132-8.822-32.088-8.09-1.853.344-12.792 2.282-35.6185 4.71-9.6536 1.027-34.7129 1.184-34.7129 1.184l-9.7262-20.701s68.4426-13.741 90.0816-7.793c6.807 1.87 21.546 4.57 39.071 3.584 15.154-.852 56.369-8.857 56.369-8.857s16.64 5.973 13.628 20.663-18.506 18.814-18.506 18.814z" fill="#fff"/><path clip-rule="evenodd" d="m48.4371 227.439-3.2035-9.277s68.3274-12.745 89.9664-6.798c6.806 1.871 12.957 4.956 30.482 3.97 6.709-.378 18.179-1.948 34.411-4.711 8.211-1.397 9.53-.88 3.077 3.34-14.965 9.787-48.254 7.48-78.458 3.07-56.1345-8.196-76.2749 10.406-76.2749 10.406z" fill="#e7eaee" fill-rule="evenodd"/><path d="m144.612 323.289c3.4 3.757 7.906 9.943 5.586 16.137l-40.26 12.386s-1.546-4.646.774-8.513c2.326-3.873 24.292-19.154 24.292-19.154z" fill="#fff"/><path clip-rule="evenodd" d="m126.028 331.678c-.266-.073-.541.085-.613.352-.072.266.085.541.352.613 1.311.355 2.175 1.184 2.479 2.233.392 1.356.435 2.743-.01 4.964-.055.271.121.534.391.588.271.055.535-.121.589-.391.477-2.375.429-3.925-.01-5.439-.402-1.389-1.534-2.475-3.178-2.92z" fill="#e7eaee" fill-rule="evenodd"/><path clip-rule="evenodd" d="m148.195 340.091-39.607 11.654s-5.031-1.057.171-1.796c5.344-.76 36.632-15.087 40.074-12.477.489.371-.335 1.81-.638 2.619z" fill="#e7eaee" fill-rule="evenodd"/><path clip-rule="evenodd" d="m148.195 340.091-39.607 11.654s-5.031-1.057.171-1.796c5.344-.76 36.632-15.087 40.074-12.477.489.371-.335 1.81-.638 2.619z" fill="#e7eaee" fill-rule="evenodd"/><path d="m246.884 242.037s-17.872 5.641-32.264 7.756-43.099 3.318-43.099 3.318-8.963 4.872-9.541 7.128c-.225.879-1.583 12.492-5.338 27.327-1.766 6.978-11.205 38.535-11.205 38.535l-12.493-5.53s.501-58.002 8.476-77.239c7.975-19.238 89.95-37.922 89.95-37.922s17.398-3.147 22.134 11.081c4.737 14.227-6.62 25.546-6.62 25.546z" fill="#fff"/><path clip-rule="evenodd" d="m143.438 324.101-12.494-5.53c.335-38.668 3.16-64.414 8.477-77.239 0 0-5.433 68.274 4.017 82.769z" fill="#e7eaee" fill-rule="evenodd"/><path d="m34.4973 228.2c-3.1092 4.001-8.4193 9.514-14.9214 8.304l-19.189511-37.497s4.937641-2.184 9.148421-.571c4.21849 1.619 22.76759 20.976 22.76759 20.976z" fill="#fff"/><path clip-rule="evenodd" d="m117.849 338.336c-.199-.191-.515-.184-.706.015-.192.2-.185.516.015.707 1.161 1.113 1.377 2.979.71 4.105-.14.237-.062.544.176.685.238.14.544.062.685-.176.899-1.518.624-3.895-.88-5.336z" fill="#e7eaee" fill-rule="evenodd"/><path clip-rule="evenodd" d="m121.928 335.04c-.201-.189-.518-.179-.707.022s-.179.518.022.707l.271.26c2.102 2.069 2.705 3.878.854 5.819-.191.199-.183.516.016.707.2.19.517.183.707-.017 1.369-1.435 1.65-2.984 1.043-4.534-.418-1.07-1.145-1.967-2.206-2.964z" fill="#e7eaee" fill-rule="evenodd"/><path clip-rule="evenodd" d="m141.173 334.385c-1.148 2.194-7.242 1.294-6.181-4.774.502-2.871 9.359-1.302 6.181 4.774z" fill="#e7eaee" fill-rule="evenodd"/><path clip-rule="evenodd" d="m23.3828 237.201c-8.0524-9.202-12.6806-29.897-19.31176-37.018-2.34068-2.514-5.3769-3.078-2.10894 2.873 5.97941 10.888 17.4713 34.145 17.4713 34.145.6081.304 1.36 0 2.0401 0z" fill="#e7eaee" fill-rule="evenodd"/><path clip-rule="evenodd" d="m130.686 245.864c-28.466 6.67-81.0938-4.994-103.4603.958-7.8951 2.101-11.7888 7.538 4.9806 7.061 30.6831-.874 95.1417-.208 95.1417-.208 1.23-.897 1.149-2.69 1.724-4.035z" fill="#1c2624" fill-rule="evenodd"/><path clip-rule="evenodd" d="m165.322 252.044c28.466 6.669 81.094-4.994 103.46.958 7.895 2.101 11.789 7.538-4.981 7.06-30.683-.874-95.141-.208-95.141-.208-1.231-.896-1.15-2.689-1.724-4.034z" fill="#1c2624" fill-rule="evenodd"/><path d="m156.089 205.855c-7.354 1.936-11.127 6.542-14.314 10.832-3.193 4.289 3.827 2.248 7.7.7 3.874-1.548 11.283-7.424 11.283-7.424z" fill="#fff"/><path d="m223.072 188.436s-41.393 17.782-47.226 17.806c-5.827.024-20.127 6.967-20.9 12.386-.94 6.593 24-3.096 24-3.096s55.74 0 65.026-9.29c9.293-9.29 3.1-28.644 3.1-28.644z" fill="#fff"/><path d="m233.137 105.602s-10.066 6.193-11.613 26.321 4.647 44.128 4.647 44.128-3.874 3.096-4.647 6.193 1.58 7.184 1.58 7.184 23.192 11.396 24.741 12.17c1.548.774 7.741-1.549 7.741-7.742s-2.323-11.612-2.323-11.612c-1.111-40.857 5.42-80.513-20.126-76.642" fill="#fff"/><path clip-rule="evenodd" d="m192.134 62.7703c-2.381-3.1885-7.414-4.2267-8.757.8071 0 0-1.032 3.0372 1.048 4.9139 6.371 5.7491 10.09-2.5324 7.709-5.721z" fill="#fff" fill-rule="evenodd"/><path clip-rule="evenodd" d="m178.835 66.2301c-2.263-3.0292-7.044-4.0155-8.32.7667 0 0-.98 2.8854.996 4.6682 6.053 5.4617 9.586-2.4058 7.324-5.4349z" fill="#fff" fill-rule="evenodd"/><path d="m197.355 105.002s0 37.214-.547 58.009 4.22 41.285 13.327 57.308c9.106 16.024 7.867 38.946 14.58 40.65 53.096 13.477 38.801-151.448 19.155-161.9867-19.646-10.5389-26.135-12.7714-26.135-12.7714" fill="#fff"/><g clip-rule="evenodd" fill-rule="evenodd"><path d="m224.59 115.444 4.576 6.832c.38.567.093 1.339-.564 1.521l-6.106 1.688c-.71.196-1.381-.416-1.251-1.141l1.53-8.52c.159-.885 1.315-1.127 1.815-.38zm-.994 1.051-1.367 8.026 5.31-2.245z" fill="#0bc7a0"/><path d="m239.307 108.77 5.393 8.656c.344.553.077 1.282-.544 1.481l-9.415 3.019c-.784.251-1.519-.5-1.251-1.279l4.023-11.674c.274-.796 1.349-.917 1.794-.203zm-1.278 1.055-2.755 10.823 8.163-3.222z" fill="#0bc7a0"/><path d="m242.636 174.258-3.668 13.785c-.225.847-1.354 1.015-1.816.27l-5.453-8.794c-.303-.487-.134-1.128.369-1.404l9.122-4.991c.771-.422 1.673.285 1.446 1.134zm-.966.41-8.455 4.324 4.787 8.794z" fill="#0bc7a0"/><path d="m249.978 224.874-2 9.449c-.184.867-1.321 1.084-1.811.346l-5.404-8.129c-.398-.6-.051-1.412.658-1.538l7.403-1.32c.698-.124 1.301.498 1.154 1.192zm-1.745-.15-6.416 2.275 5.536 6.321z" fill="#0bc7a0"/><path d="m232.642 222.874-2 9.449c-.184.867-1.321 1.084-1.811.346l-5.404-8.129c-.398-.6-.051-1.412.658-1.538l7.403-1.32c.698-.124 1.301.498 1.154 1.192zm-.926.821-7.469-.206 6.147 7.898z" fill="#0bc7a0"/><path d="m241.978 203.542-2 9.449c-.184.867-1.321 1.084-1.811.346l-5.404-8.129c-.398-.6-.051-1.412.658-1.538l7.403-1.32c.698-.125 1.301.498 1.154 1.192zm-.979-.208-6.736 1.987 5.403 6.796z" fill="#0bc7a0"/><path d="m20.6041 234.117c.5026.982 1.3269 1.392 2.4262 1.453 3.9142.217 7.0176-1.51 9.7865-4.026 1.0496-.954 1.9803-2.039 3.0322-2.99.7401-.669 1.5332-1.105 2.6878-.69.8843.317 1.9219.197 2.8888.296 2.1802.222 4.3551.513 6.5398.671 1.3927.102 1.4271 1.29 1.7538 2.109.7395 1.855 1.2919 3.785 1.88 5.697.2285.743.5914 1.036 1.4254 1.026 4.1642-.051 8.3295-.047 12.4941-.013 1.8967.015 3.7947.242 5.6882.2 3.5626-.081 7.1296-.195 10.6815-.468 3.436-.264 6.8537-.759 10.2824-1.125 2.408-.257 4.8311-.393 7.229-.719 2.7892-.378 5.5542-.93 8.3372-1.357 1.392-.214 2.808-.277 4.202-.483 2.39-.351 4.78-.717 7.155-1.16 2.203-.41 4.277.016 6.351.7 4.038 1.334 8.087 2.636 12.138 3.932.72.23.933.419.608 1.294-1.194 3.211-2.311 6.456-3.282 9.74-.686 2.318-1.16 4.705-1.6 7.085-.539 2.917-.99 5.852-1.391 8.791-.307 2.245-.502 4.506-.704 6.765-.256 2.87-.498 5.741-.691 8.616-.193 2.863-.355 5.729-.463 8.597-.185 4.868-.323 9.739-.469 14.609-.089 2.949-.145 5.899-.241 8.848-.028.856-.303 1.734-.173 2.556.099.619.539 1.486 1.044 1.681 1.302.502 1.678 1.47 1.666 2.803-.014 1.703-.228 3.408-.184 5.107.029 1.083-.386 1.839-1.173 2.413-3.578 2.611-7.191 5.172-10.767 7.784-1.698 1.24-3.372 2.516-4.999 3.847-1.742 1.425-3.45 2.896-5.11 4.415-1.656 1.514-2.536 3.364-2.815 5.672-.217 1.79.013 3.452.311 5.155.156.887.662 1.25 1.584.949 3.873-1.264 7.739-2.552 11.631-3.757 6.429-1.989 12.876-3.922 19.315-5.876 2.296-.697 4.591-1.393 6.889-2.081 1.408-.421 1.705-1.683 1.967-2.827.743-3.249-.217-6.207-1.931-8.932-1.049-1.668-2.271-3.227-3.418-4.833-.937-1.312-.695-2.655-.231-4.074 1.509-4.621 2.993-9.25 4.421-13.897 1.408-4.586 2.804-9.179 4.081-13.804 1.349-4.887 2.573-9.81 3.806-14.729.668-2.662 1.297-5.336 1.837-8.026.405-2.011.633-4.057.951-6.086.379-2.424.607-4.889 1.231-7.249.269-1.016 1.254-1.945 2.114-2.681 1.871-1.602 4.021-2.796 6.356-3.612.578-.202 1.203-.341 1.812-.364 2.897-.11 5.798-.138 8.695-.255 2.83-.114 5.659-.271 8.485-.461 2.914-.197 5.827-.431 8.736-.693 3.114-.28 6.239-.502 9.331-.948 3.277-.474 6.525-1.161 9.777-1.798 1.058-.207 1.831.435 1.995 1.926.358 3.262 1.466 6.291 2.782 9.258.949 2.14 2.74 3.21 4.949 3.575 1.576.26 3.192.509 4.778.449 4.514-.171 8.54-1.66 12.121-4.523 4.542-3.632 7.2-8.483 9.462-13.656 1.014-2.318 2.319-4.531 3.115-6.917.865-2.591 1.302-5.326 1.904-8.004.468-2.083.946-4.166 1.34-6.265.311-1.659.508-3.34.744-5.014.315-2.222.625-4.446.924-6.67.099-.736.197-1.476.228-2.217.097-2.319.144-4.639.242-6.958.138-3.251.396-6.501.439-9.753.073-5.563.066-11.128-.001-16.691-.029-2.443-.236-4.888-.455-7.324-.25-2.768-.628-5.525-.904-8.291-.197-1.975-.258-3.964-.485-5.935-.332-2.891-.696-5.782-1.159-8.655-.55-3.417-1.179-6.823-1.844-10.22-1.258-6.428-2.722-12.817-5.118-18.925-1.527-3.892-3.12-7.861-6.237-10.799-1.349-1.271-3.224-2.004-4.9-2.906-4.601-2.4773-9.225-4.9094-13.828-7.3834-.215-.1156-.4-.4519-.435-.7079-.122-.887-.068-1.8102-.286-2.6677-.141-.5584-.533-1.1712-.996-1.5089-1.553-1.1324-3.18-2.165-4.799-3.2033-.289-.1858-.7-.3485-1.018-.2971-1.707.2756-2.564-.7748-3.149-2.0672-.792-1.7502-1.515-3.5406-2.13-5.3603-1.018-3.0139-2.045-6.0354-2.815-9.1167-.266-1.063.143-2.331.383-3.4761.489-2.3304.894-4.7035 1.68-6.937.503-1.4279 1.521-2.7232 2.493-3.9283 2.514-3.1156 3.834-6.6052 3.411-10.6034-.183-1.736-.928-3.3538-2.227-4.6153-1.528-1.4843-3.095-2.9289-4.627-4.4085-1.118-1.0786-1.038-1.9032.417-2.9576 2.037-1.4757 3.99-3.0701 5.938-4.6632 1.664-1.3605 2.38-3.3044 2.82-5.2971.6-2.711.672-5.4459-.434-8.0919-1.768-4.2318-4.316-7.72436-8.981-9.04109-4.112-1.1605-8.213-1.08189-11.903 1.24869-3.352 2.11766-5.482 5.2719-6.419 9.1649-1.099 4.5687.152 8.6801 2.461 12.5906.194.3275.214.7575.314 1.14-.343.0648-.685.1724-1.03.1881-4.441.2023-8.855.6952-12.832 2.812-5.221 2.7782-8.504 7.1815-9.952 12.9126-.217.8579-.215 1.7801-.243 2.6748-.097 3.0511-.106 6.1065-.286 9.1521-.037.6358-.524 1.4162-1.044 1.8235-2.496 1.9547-3.345 6.7417-1.024 9.5752.233.2835.43.5954.658.8826.892 1.1225 2.185 1.6674 3.473 1.4382 1.097-.1954 1.19.1738 1.552.9835.773 1.7274 1.699 3.3988 2.697 5.0096 1.338 2.1591 2.705 4.3156 4.252 6.3247.935 1.2133 2.197 2.1897 3.38 3.1919 1.436 1.2156 2.954 2.3334 4.416 3.5187.729.5912 1.528.8965 2.46.7621.966-.1393 1.509.404 1.792 1.1862.546 1.5111 1.04 3.0441 1.471 4.5915.091.326-.102.8015-.299 1.1261-1.723 2.8364-3.435 5.6824-5.236 8.4704-1.461 2.262-3.123 4.398-4.537 6.687-.875 1.417-1.454 3.015-2.163 4.534-1.236 2.649-2.498 5.286-3.679 7.959-.243.55-.309 1.255-.224 1.855.124.874.986 1.154 1.92.589 1.086-.655 2.108-1.421 3.125-2.184.629-.472 1.195-1.029 1.793-1.543.069-.06.162-.092.244-.137.013.105.049.212.035.313-.167 1.176-.301 2.358-.526 3.523-.232 1.204-.586 2.383-.83 3.584-.486 2.387-.955 4.777-1.39 7.173-.488 2.694-.958 5.393-1.383 8.098-.218 1.391-.292 2.804-.48 4.2-.284 2.112-.641 4.213-.907 6.326-.145 1.155-.177 2.324-.241 3.488-.087 1.586-.145 3.174-.236 4.761-.225 3.913-.452 7.826-.699 11.738-.061.97-.631 1.716-1.504 1.993-2.485.789-4.221 3.689-3.803 6.11.097.563.222 1.146.47 1.653.594 1.217-.181 1.909-.951 2.542-1.252 1.029-2.556 1.995-3.863 2.953-3.103 2.274-6.227 4.519-9.33 6.793-2.811 2.06-5.913 3.492-9.241 4.507-2.672.816-4.945 2.361-7.081 4.141-1.05.875-1.958 2.17-3.62 1.85-2.352-.452-4.697-.942-7.043-1.426-.707-.146-1.402-.359-2.112-.481-2.476-.426-3.937-2.178-5.394-3.989-1.084-1.348-2.293-2.596-3.421-3.909-2.219-2.585-4.414-5.19-6.632-7.775-1.102-1.285-2.237-2.542-3.35-3.818-3.138-3.595-6.257-7.207-9.414-10.785-1.656-1.875-3.3793-3.69-5.0635-5.539-.4532-.498-.9382-.984-1.2967-1.547-.5452-.856-1.1015-1.118-2.1665-.774-2.3289.754-2.2871.611-.6589 2.397 2.9162 3.199 5.7355 6.486 8.6066 9.726 1.404 1.584 2.855 3.127 4.247 4.721 2.443 2.796 4.85 5.625 7.288 8.427 1.73 1.988 3.482 3.958 5.234 5.928 1.356 1.524 2.73 3.031 4.081 4.559.118.134.211.503.169.53-.33.206-.702.512-1.05.499-2.83-.11-5.656-.327-8.486-.424-2.119-.072-4.244-.073-6.362.001-2.715.093-5.434.21-8.1364.47-3.0117.289-6.0065.752-9.0095 1.133-3.079.39-6.1681.712-9.236 1.174-3.0659.463-6.107 1.086-9.1664 1.595-2.5337.421-5.0858.734-7.6159 1.175-3.2269.562-6.4378 1.215-9.6597 1.807-2.262.415-4.5338.777-6.7957 1.193-2.1813.401-4.3509.866-6.5344 1.254-1.376.244-2.7642.491-4.1547.548-.5831.024-1.3255-.293-1.758-.704-3.3079-3.147-6.5138-6.401-9.8362-9.532-3.7181-3.503-7.6065-6.811-11.799-9.751-1.9182-1.346-4.06655-1.111-6.15624-.93-1.21835.106-2.39604.693-3.5892 1.072-.97915.311-1.06637.915-.63096 1.77 1.97801 3.882 3.92089 7.782 5.89974 11.664 1.71036 3.355 3.45206 6.694 5.23766 10.098 2.3333 4.512 4.606 8.967 6.886 13.419zm183.0559-28.628c-1.039-3.007-1.952-6.065-2.772-9.139-.533-1.998-.835-4.061-1.177-6.105-.352-2.1-.646-4.21-.93-6.321-.331-2.451-.844-4.904-.884-7.363-.08-4.936.124-9.877.178-14.817.033-3.019.051-6.039-.008-9.057-.046-2.374 1.335-4.143 2.342-6.09.67-1.296 1.377-2.604 1.805-3.988.785-2.539 1.424-5.126 2.032-7.714.416-1.77.723-3.57.997-5.368.316-2.082 1.001-4.037 1.889-5.925.075-.159.699-.274.766-.185.358.48.625 1.028.914 1.558.514.942 1.297 1.84 1.475 2.843.357 2.006 1.282 3.727 2.227 5.448.588 1.071 1.578 1.099 2.266.116.739-1.056 1.538-2.123 2.01-3.305 1.109-2.78 2.103-5.61 3.027-8.458 1.214-3.742 2.359-7.508 3.448-11.288.569-1.974 1.137-3.978 1.376-6.008.234-1.989.048-4.028.055-6.0451 0-.1805.055-.3608.085-.5411.082.0642.157.1413.246.1908 2.115 1.163 4.216 2.3514 6.35 3.4754 2.117 1.116 4.244 2.217 6.41 3.233 2.373 1.112 4.755 2.26 6.13 4.591 1.487 2.522 3.225 4.926 4.121 7.769.924 2.931 1.969 5.828 2.773 8.79.822 3.031 1.382 6.132 2.123 9.186.474 1.95 1.254 3.842 1.564 5.813.474 3.006.767 6.052.937 9.092.145 2.609.134 5.225.486 7.825.274 2.018.46 4.047.706 6.069.375 3.079 1.049 6.151 1.097 9.234.106 6.825-.175 13.655-.143 20.482.017 3.578-.517 7.076-.938 10.602-.468 3.916-.745 7.853-1.192 11.772-.303 2.663-.607 5.341-1.175 7.955-.924 4.255-1.918 8.508-3.152 12.681-1.541 5.208-3.803 10.113-6.987 14.563-1.991 2.78-4.42 5.058-7.419 6.695-4.066 2.219-8.426 2.027-12.795 1.35-.716-.112-1.644-.663-1.95-1.273-.86-1.71-1.612-3.514-2.101-5.362-.696-2.626-1.003-5.353-1.686-7.983-1.125-4.336-2.541-8.599-3.601-12.95-.874-3.583-2.538-6.817-3.984-10.149-1.065-2.452-2.323-4.819-3.611-7.34-1.118-2.85-2.33-5.668-3.33-8.559zm-38.378 44.264c-2.104 1.287-4.166 2.65-6.168 4.09-1.25.899-2.148 2.205-2.422 3.715-.635 3.498-1.055 7.034-1.669 10.536-.43 2.457-1.049 4.882-1.56 7.325-.417 1.99-.802 3.986-1.197 5.98-.388 1.959-.767 3.921-1.159 5.879-.3 1.493-.61 2.984-.926 4.473-.51 2.408-.916 4.846-1.576 7.213-.65 2.332-1.627 4.57-2.341 6.887-1.187 3.854-2.66 7.586-4.366 11.24-.405.866-1.085.691-1.488.534-2.553-1-5.072-2.091-7.573-3.214-.79-.355-1.209-1.041-1.173-1.98.098-2.549.167-5.099.237-7.65.084-3.051.155-6.102.233-9.153.076-2.987.093-5.978.249-8.961.151-2.914.437-5.822.679-8.731.3-3.624.58-7.251.935-10.87.246-2.499.471-5.012.944-7.474.818-4.262 1.823-8.488 2.746-12.73 1.075-4.943 3.153-9.25 7.261-12.485 3.129-2.464 6.412-4.665 9.96-6.422 3.926-1.945 7.896-3.838 11.971-5.437 4.658-1.827 9.183-4.136 14.312-4.556 2.464-.202 4.909-.634 7.369-.896 1.974-.21 3.963-.269 5.936-.485 3.122-.342 6.233-.796 9.358-1.103.438-.043 1.098.369 1.367.765.618.911 1.083 1.931 1.565 2.928 1.506 3.114 3.27 6.139 4.416 9.381 1.514 4.285 2.541 8.742 3.769 13.127.696 2.484.711 2.595-1.455 3.049-2.506.526-5.053.874-7.592 1.224-1.661.229-3.344.292-5.01.483-3.159.363-6.31.797-9.471 1.138-2.011.217-4.033.348-6.053.468-3.019.179-6.039.347-9.062.457-1.809.066-3.623.012-5.667.012-1.897-.035-3.751.248-5.379 1.243zm-90.6869-14.429c-1.9468.091-3.8942.187-5.8424.228-4.5168.096-9.0342.172-13.5517.227-.9019.011-1.714-.362-1.9572-1.291-1.309-4.997-3.8827-9.63-4.2134-14.916-.0838-1.341.4974-2.288 1.8662-2.527 1.4277-.25 2.8373-.601 4.2615-.872 1.7907-.341 3.5894-.641 5.3824-.97 1.6102-.296 3.2182-.604 4.8256-.914 1.1764-.228 2.3483-.479 3.5256-.701 2.254-.426 4.5096-.843 6.7659-1.257 1.5424-.282 3.0839-.572 4.6318-.82 1.2007-.193 2.4126-.314 3.6163-.49 2.5426-.371 5.0832-.756 7.6245-1.136 1.4516-.218 2.9002-.456 4.3546-.653 1.9399-.261 3.8853-.704 5.8262-.693 4.872.028 9.743.242 14.612.432 2.329.091 4.662.22 6.977.482 1.295.146 2.541.556 3.48 1.647 1.531 1.778 3.174 3.459 4.721 5.224.976 1.114 1.89 2.286 2.782 3.47 1.181 1.565 2.621 2.516 4.679 2.357 3.372-.26 6.749-.452 10.121-.711 1.251-.096 2.497-.283 3.741-.457 2.11-.295 4.213-.638 6.326-.914 2.02-.264 4.047-.484 6.074-.692.572-.059 1.156-.027 1.733.006.115.006.219.202.328.311-.118.054-.238.104-.353.164-1.014.529-2.002 1.119-3.046 1.58-3.063 1.353-6.221 2.509-9.207 4.011-4.335 2.18-8.38 4.843-12.059 8.043-1.14.993-2.235 1.73-4.105 1.481-2.965-.395-5.735-1.126-8.396-2.421-3.581-1.742-7.224-3.171-11.341-2.317-2.382.494-4.778.927-7.156 1.437-1.508.323-2.978.855-4.496 1.081-1.884.279-3.801.329-5.702.494-3.4584.301-6.915.621-10.3733.921-2.348.204-4.6977.388-7.1624.696-3.0977.154-6.195.316-9.2932.46zm120.4889-66.819c-.035.924.002 1.85-.013 2.775-.072 4.323-.14 8.647-.237 12.969-.028 1.255.027 2.548-.26 3.751-.582 2.436-1.345 4.83-2.089 7.224-.318 1.025-.761 2.002-1.92 2.408-1.008.353-1.985.797-2.995 1.144-1.499.514-1.959.32-2.936-1.052-.324-.453-.697-.873-1.06-1.296-2.342-2.732-4.755-5.406-7.011-8.207-1.665-2.067-1.376-5.394 1.412-6.461.3-.115.597-.253.908-.317 1.648-.341 1.572-.337 1.626-1.893.196-5.563-.457-11.14.417-16.696.349-2.218.205-4.511.526-6.736.499-3.461 1.19-6.896 1.824-10.337.599-3.255 1.2-6.51 1.857-9.754.49-2.421 1.079-4.821 1.607-7.234.403-1.841.719-3.703 1.205-5.52.131-.492.741-.855 1.131-1.277.457.441 1.256.842 1.311 1.329.28 2.465.661 4.979.444 7.426-.249 2.81-.671 5.597-.134 8.387.611 3.18 1.628 6.233 3.351 9.015.955 1.542 1.669 3.143 1.506 5.051-.161 1.888-.213 3.788-.24 5.684-.038 2.697-.009 5.395-.009 8.324-.078.431-.205.86-.221 1.293zm12.132-95.537c.195.3014.464.5782.572.908 1.099 3.3628 2.103 6.7584 3.277 10.0942.708 2.0097 1.818 3.8029 3.654 5.0659 1.335.9175 2.579 1.9644 3.884 2.925.644.4738.508.8839.106 1.4593-1.201 1.7212-2.47 3.4143-3.473 5.2495-1.384 2.5331-2.569 5.1751-3.801 7.7891-1.2 2.547-2.453 5.076-3.492 7.689-.883 2.22-1.358 4.603-2.266 6.81-.821 1.995-1.702 3.962-2 6.099-.101.726-.336.732-.887.73-3.309-.011-6.504-.449-9.294-2.418-.238-.169-.44-.515-.485-.805-.11-.703-.091-1.425-.174-2.134-.058-.499-.384-1.04-.267-1.475.435-1.62 1.013-3.2 1.519-4.801.966-3.059 2.233-6.085 2.319-9.311.088-3.284-.207-6.582-.432-9.8665-.092-1.3399-.355-2.6845-.694-3.987-.397-1.5278-.303-1.9458 1.076-2.691 2.269-1.2262 4.225-2.8753 5.624-5.0021 2.282-3.471 4.035-7.2064 4.661-11.5242.191-.268.382-.5361.573-.8042zm-32.915-1.0243c-.063-.1248-.624-.5141.21-.6548.844-.1422 1.796-.5515 2.375-1.1555 1.137-1.1847 2.076-2.5647 3.031-3.9109.271-.381.366-.6122.746-.1554.241.2899.555.52.795.8104 2.087 2.5211 5.089 3.5917 7.9 2.8911 3.37-.8398 5.424-4.4325 5.47-7.5494.019-1.2427.412-2.2839 1.404-2.9986 1.652-1.1895 3.351-2.3148 5.048-3.4389.951-.6291 1.856-.4234 2.101.5689.608 2.4568 1.364 4.9193 1.576 7.4204.262 3.0946.137 6.2189-.602 9.3068-1.245 5.2021-2.861 10.1455-7.106 13.8116-2.737 2.3636-6.118 2.8955-9.377 1.465-3.23-1.4178-5.214-4.04-7.145-6.7693-1.622-2.294-3.24-4.5917-4.975-7.0033-.491-.8759-1-1.7426-1.451-2.6381zm-139.8746 154.5073c-2.2438 2.856-4.8539 5.239-8.4258 6.393-2.2059.712-3.0137.586-4.2348-1.741-2.4908-4.748-4.9523-9.511-7.4068-14.277-.9804-1.904-1.8867-3.846-2.8689-5.749-1.91826-3.717-3.86158-7.421-5.80594-11.124-.35483-.676-.0176-1.288.50519-1.358 1.81411-.242 3.72969-.76 5.41435.361 2.2214 1.478 4.4579 2.964 6.5016 4.67 3.1 2.588 6.0862 5.318 9.0265 8.087 1.3337 1.257 2.4602 2.737 3.6456 4.146.9367 1.112 2.139 2.049 2.4953 3.569.3294 1.406.6546 2.812.9816 4.45.3846.839.8143 1.755.1721 2.573zm76.4226 124.133c-.529.042-1.548-.198-1.553-.34-.068-1.991-.445-4.101 1.342-5.656 2.322-2.02 4.572-4.133 6.994-6.027 3.908-3.054 7.929-5.964 11.905-8.931 1.42-1.06 2.833-2.186 4.641-2.463 1.618-.247 3.269-.28 4.893-.496 1.37-.184 2.302.41 3.134 1.396 2.017 2.392 3.485 5.05 4.039 8.156.435 2.433-.348 3.774-2.313 4.352-3.74 1.102-7.454 2.293-11.187 3.419-2.676.808-5.376 1.535-8.046 2.359-3.894 1.202-7.77 2.459-11.885 3.692-.654.191-1.299.487-1.964.539zm78.555-149.956c2.584-1.023 5.152-2.084 7.741-3.091.765-.297 1.416-.385 1.668.793.274 1.279.858 2.49 1.28 3.74.936 2.773 1.877 5.545 2.764 8.334.164.516.413 1.239-.605 1.338-1.327.128-2.646.349-3.974.446-2.594.188-5.19.374-7.789.459-3.86.128-7.723.174-11.585.241-1.234.022-2.468 0-3.702.007-.3.001-.618-.021-.897.067-3.344 1.045-6.676 2.128-10.023 3.163-3.366 1.04-6.739 2.063-10.336 1.862-1.248-.07-1.477-.304-1.018-1.453.251-.627.599-1.265 1.06-1.749 2.253-2.361 5.003-4.009 7.946-5.364 2.344-1.08 4.636-2.284 7.273-2.556 1.235-.127 2.478-.304 3.677-.615 1.904-.493 3.793-1.064 5.655-1.698 2.328-.793 4.623-1.683 7.163-2.531 1.234-.463 2.476-.908 3.702-1.393zm29.051-102.102c1.082-1.6778 2.222-3.319 3.341-4.9735.155-.2303.326-.4509.489-.676.108.3789.26.7514.316 1.1379.185 1.2771.289 2.5673.508 3.8379.435 2.5147.671 4.9857-.959 7.2217-.104.141-.185.311-.231.48-.6 2.179-1.188 4.361-1.786 6.541-.152.552-.309 1.103-.491 1.645-.779 2.334-1.724 4.627-2.312 7.008-.603 2.445-1.066 4.903-2.319 7.137-.36.642-.477 1.417-.743 2.117-.079.208-.34.545-.424.519-.264-.083-.614-.258-.702-.486-1.036-2.658-1.534-5.561-3.498-7.793-1.667-1.896-1.321-3.833-.298-5.856.4-.791.647-1.658 1.004-2.472.771-1.761 1.51-3.54 2.374-5.255.754-1.499 1.668-2.917 2.498-4.378.584-1.027 1.146-2.067 1.834-3.217.463-.848.876-1.7281 1.399-2.538zm-62.502 106.148c3.38-2.183 6.806-4.303 10.081-6.636 2.741-1.953 5.282-4.186 7.947-6.25.719-.557 1.544-.742 2.279.098 1.191 1.36 2.404 2.701 3.593 4.063.885 1.014 1.736 2.059 2.623 3.072.693.792.62 1.217-.395 1.52-3.26.975-6.544 1.872-9.795 2.878-4.438 1.374-8.87 2.77-13.267 4.265-1.407.479-2.647 1.445-4.053 1.93-1.427.493-2.952.75-4.456.96-1.737.242-3.496.338-5.248.447-.28.018-.576-.232-.864-.358.171-.238.3-.526.519-.705 2.779-2.274 6.096-3.447 9.547-4.699.499-.19 1.05-.301 1.489-.585zm44.001-60.92c-.43 1.63-1.451 2.422-3.023 2.57-1.357.127-1.755-.617-2.086-1.609-.474-1.42-.944-2.843-1.389-4.272-.987-3.176-.846-6.376-.255-9.604.193-1.052.148-2.149.196-3.227.007-.156-.072-.317-.112-.475.159.046.323.078.475.141.953.394 1.87.94 2.861 1.163 1.855.416 3.747.692 5.635.933.729.093 1.161.17.93 1.062-.219.843-.306 1.718-.48 2.574-.375 1.843-.768 3.682-1.154 5.754-.54 1.662-1.154 3.303-1.598 4.99zm-19.775-17.399c-.18.153-.379.282-.57.421.001-.258-.07-.544.015-.77.502-1.333.969-2.685 1.58-3.967 1.305-2.736 2.504-5.55 4.097-8.115 1.567-2.521 3.675-4.7 5.339-7.169 1.192-1.769 2.035-3.771 3.052-5.659.157-.29.415-.525.627-.786.097.307.284.615.277.919-.049 1.972-.074 3.948-.24 5.911-.112 1.339-.338 2.689-.698 3.982-.4 1.436-1.125 2.784-1.498 4.225-.437 1.686-1.238 2.752-2.87 3.653-2.708 1.493-5.502 3.045-7.406 5.887-.568.49-1.133.984-1.705 1.468zm12.053-65.354c.888 1.2938-.759 5.8266-1.655 6.1637-6.271 2.3602-8.058-1.6787-8.141-2.7877-.163-2.2007-.435-4.4321 1.646-6.2167 5.488-1.0916 6.714.75 8.15 2.8407zm-24.011 1.8324c.842-2.0996 2.118-3.469 4.339-2.9898 1.133.2446 2.131 1.1428 3.174 1.7734 2.239 1.3546 2.532 2.0957 1.749 4.497-.783 2.4032-2.61 3.7798-4.935 4.2471-1.925.3868-3.3-.8067-4.317-2.6024-.256-1.6403-.677-3.2635-.01-4.9253zm8.304-2.7147c-.904-.6429-1.884-1.5948-2.859-1.63-1.688-.0609-1.414-1.0913-1.232-1.9029.509-2.2675 1.173-4.5015 1.822-6.7355.444-1.5292.82-1.617 1.897-.5399 1.845 1.8451 3.714 3.6545 6.032 4.9282.725.3984.825 1.3162.307 2.0392-.193.2691-.455.5-.6.7909-.713 1.4331-1.359 2.9009-2.12 4.3071-.168.311-.04 1.4105-1.128.6008-.702-.625-1.358-1.3162-2.119-1.8579zm-136.1688 165.9173c-1.5744-.293-3.261-.697-3.5042-2.791-.0409-.351-.2012-.688-.2812-1.037-.4965-2.165.0658-2.858 2.2334-3.091 2.0407-.219 4.0663-.584 6.0942-.911 1.0849-.175 1.2851.028 1.4049 1.132.166 1.53.4044 3.055.6903 4.567.2505 1.325-.1203 2.373-1.2853 2.633-1.7865-.154-3.5976-.176-5.3521-.502zm94.4908 98.533c-.22-.01-.594-.446-.602-.696-.055-1.654-.015-3.311-.034-4.967-.01-.93.703-.961 1.215-.798 1.114.355 2.173.884 3.248 1.357.777.342 1.651.619 1.557 1.739-.067.791-.067 1.6-.249 2.365-.303 1.27-1.399.666-2.295.919-.947.039-1.896.124-2.84.081zm61.632-134.543c.066-.188.34-.303.519-.452.129.186.355.363.373.559.109 1.189.202 2.382.238 3.575.036 1.166-.789 1.922-1.975 1.814-.201-.018-.557-.372-.531-.514.174-.947.433-1.879.78-2.932.193-.685.359-1.38.596-2.05zm-65.194 21.85c-.128-.254-.398-.963.386-.815 1.198.224 2.375.564 3.552.885.215.058.391.26.585.396-.225.106-.447.296-.676.304-.959.034-1.921.014-2.998-.101-.294-.217-.702-.377-.849-.669zm89.357-121.3354c.185.1073.369.2145.554.3218-.146.1618-.264.3861-.446.4618-.108.0452-.345-.11-.47-.2311-.712-.69-1.411-1.3933-2.106-2.1007-.14-.1417-.241-.3206-.36-.4824.235.0457.528.0175.692.15.695.5623 1.351 1.1724 2.136 1.8806z" fill="#00160a"/><path d="m195.844 77.0677c1.084-.5861 2.157-1.0669 2.382-2.3729.438-2.5377-.477-5.5274-3.784-5.3536-2.982.1567-4.874 2.6331-3.819 5.4304.778 2.0624 2.666 3.0851 5.221 2.2961z" fill="#fddad0"/><path d="m181.142 67.6017c-.06-.389-.119-.6614-.179-.9337-.094.2375-.214.4679-.277.7136-.465 1.8202-1.939 6.3523-.183 8.4379.146.1735.886.2009 1.348.1717.907-.0574 1.963-1.3949 1.795-2.2573-.025-.1293-2.213 1.9944-2.683.8451-.783-1.9168.179-6.3182.179-6.9773z" fill="#00160a"/><path d="m193.483 80.882c.091-.0462.217-.0339.326-.0294.27.0113.639-.4715.481-.6759-.236-.3073-.504-.6177-.824-.82-.191-.1206-.507.2702-.483.443.018.1291-.105.3313-.224.4187-1.811 1.331-3.823 2.1936-6.024 2.6082-.145.0274-.272.1572-.407.2395.135.0936.269.2756.405.2676 2.401-.1402 5.177-1.6538 6.75-2.4517z" fill="#00160a"/><path d="m251.989 185.107 2.281 9.74c.176.753-.533 1.412-1.271 1.182l-7.917-2.465c-.666-.207-.921-1.015-.494-1.567l5.637-7.275c.515-.665 1.572-.435 1.764.385zm-.974 1.561-4.969 5.942 7.25 2.465z" fill="#0bc7a0"/><path d="m244.908 128.911c.834-.075 1.385.846.925 1.545l-5.8 8.817c-.391.595-1.26.602-1.661.015l-5.338-7.818c-.431-.631-.025-1.492.736-1.56zm-.784.999-9.972 1.938 5.881 6.156z" fill="#0bc7a0"/><path d="m208.155 196.334h8.18c.678 0 1.16.661.952 1.306l-2.748 8.542c-.259.806-1.341.945-1.796.23l-5.432-8.541c-.424-.666.055-1.537.844-1.537zm.666 1.667 4.099 7.874 2.749-8.541z" fill="#0bc7a0"/><path d="m234.961 242.616.374 7.405c.039.776-.783 1.298-1.469.933l-9.512-5.067c-.806-.429-.662-1.625.222-1.851l9.138-2.338c.613-.157 1.215.287 1.247.918zm-.723.707-8.741 1.214 8.369 4.947z" fill="#0bc7a0"/><path d="m247.572 151.671 7.334 5.083c.62.431.558 1.367-.113 1.712l-8.582 4.406c-.718.368-1.554-.221-1.448-1.02l1.248-9.489c.098-.742.946-1.118 1.561-.692zm-.294 1.767-1.524 8.544 8.582-4.406z" fill="#0bc7a0"/><path d="m213.918 173.445 4.576 6.832c.394.588.069 1.388-.624 1.534l-5.35 1.132c-.661.14-1.268-.403-1.202-1.075l.774-7.964c.091-.934 1.304-1.24 1.826-.459zm-1.246 1.369v7.316l4.601-1.853z" fill="#0bc7a0"/><path d="m213.055 141.259c-1.331-.869-2.5-.663-1.549 1.249 0 0 6.941 17.597 9.014 17.806 1.967.197 2.916-2.346 5.662-9.617l.117-.31c.01-.028.019-.055.027-.082l.015-.059.018-.032.038-.088.328-.888c.388-1.059 1.364-2.807 1.88-3.414.551-.646-.677-1.047-1.584-1.047-1.692 0-3.762.473-7.019-.467-3.813-1.101-5.122-1.86-6.947-3.051zm2.952 9.04.091.059c.969.596 2.039 1.055 3.208 1.375 1.399.382 3.428.429 4.741.143l.22-.052-.081.202c-.741 1.847-1.4 3.982-1.974 5.068l-.2.37c-.36.647-.677 1.117-.932 1.399l-.08.083-.099-.12c-.428-.547-1.952-2.606-3.01-4.662l-.111-.216c-.453-.889-.948-1.899-1.483-3.029zm-2.857-7.007.161.091c1.506.839 3.996 2.231 6.137 2.848 2.562.74 4.735 1.004 6.522.767l.109-.016-.062.177c-.171.478-.895 2.74-1.151 3.087-1.037.959-2.309 1.05-3.866.673l-.223-.058c-5.576-1.077-7.627-7.569-7.627-7.569z" fill="#0bc7a0"/><path d="m17.3436 204.81c-.2223-.163-.5353-.116-.6992.106-1.1542 1.566-3.1083 1.643-5.7065.2-.2414-.134-.5458-.047-.6799.195-.134.241-.047.545.1944.679 2.9893 1.66 5.4915 1.561 6.9969-.48.1639-.223.1165-.536-.1057-.7z" fill="#e7eaee"/><path d="m21.1254 208.818c-.2043-.186-.5205-.171-.7063.033-1.751 1.926-4.077 2.036-5.9695 1.025-.2436-.13-.5465-.038-.6765.206-.1301.244-.0381.546.2055.676 2.2601 1.207 5.0818 1.074 7.1804-1.234.1858-.204.1707-.521-.0336-.706z" fill="#e7eaee"/><path d="m25.2177 212.784c-.2011-.189-.5175-.179-.7068.022-1.6872 1.792-5.1181 2.669-7.4648 1.425-.244-.129-.5466-.037-.6759.207s-.0364.547.2076.676c2.7791 1.473 6.6863.475 8.6613-1.623.1892-.201.1797-.517-.0214-.707z" fill="#e7eaee"/><path d="m22.0451 228.465c-3.51-1.698.1186-7.991 3.5157-5.444 2.1784 1.634-.2104 7.044-3.5157 5.444z" fill="#e7eaee"/></g></g></svg>