<svg fill="none" height="18" viewBox="0 0 18 18" width="18" xmlns="http://www.w3.org/2000/svg"><path d="m9 0c-4.97009 0-9 4.02991-9 9 0 4.9701 4.02991 9 9 9 4.9701 0 9-4.0299 9-9 0-4.97009-4.0299-9-9-9zm2.933 13.2187c0 .0884-.0723.1608-.1607.1608h-5.50042c-.0884 0-.16072-.0724-.16072-.1608v-.7734c0-.0743.05022-.1386.12255-.1567.88392-.219 1.4625-.9844 1.4625-1.8924 0-.2953-.05023-.59062-.11853-.88794h-1.35c-.08839 0-.16072-.07232-.16072-.16072v-.60267c0-.0884.07233-.16072.16072-.16072h1.07879c-.15669-.50424-.2933-1.01852-.2933-1.54888 0-1.52277 1.17723-2.41674 3.04353-2.41674.5324 0 1.0326.11049 1.4123.25513.0623.02411.1044.08438.1044.15067v.79353c.0001.02565-.0059.05095-.0176.07379-.0116.02284-.0286.04256-.0494.05751-.0209.01494-.045.02468-.0704.0284s-.0513.00131-.0755-.00702c-.3596-.12858-.7835-.21094-1.2134-.21094-1.07076 0-1.7538.53437-1.7538 1.41027 0 .4962.12456.96227.2692 1.41629h2.25c.0884 0 .1607.07232.1607.16071v.60268c0 .0884-.0723.16072-.1607.16072h-1.9808c.06227.26518.10647.54043.10647.82363 0 .8177-.33147 1.4846-.88192 1.8302v.0944h3.61605c.0884 0 .1607.0723.1607.1607z" fill="#404040"/></svg>