<svg fill="none" height="359" viewBox="0 0 359 359" width="359" xmlns="http://www.w3.org/2000/svg" xmlns:xlink="http://www.w3.org/1999/xlink"><clipPath id="a"><path d="m.601562.400391h358.4v358.4h-358.4z"/></clipPath><g clip-path="url(#a)" fill="#fff" opacity=".4"><path d="m112.193 76.2062c-.58.0079-.832.7268-.925 1.2997-.354 2.1804-.708 4.3608-1.062 6.5411 2.726-.0558 5.798-.2669 7.571-2.3375-2.441-.4113-4.267-3.0502-3.79-5.4801.868 1.3414 2.042 2.4839 3.406 3.316.68.4143 1.465.8194 1.73 1.5695.44 1.2405-.795 2.3874-1.873 3.1427-1.077.7553-2.283 1.9593-1.774 3.1729-.996-1.1491-2.455-1.8852-3.972-2.0036-.868-.0678-1.828.0334-2.522-.4921-1.119-.8469-.737-2.6086-.119-3.8684.619-1.2598 1.371-2.7536.678-3.9735-.52-.913-1.735-1.3636-2.009-2.3778-.399-1.4785 1.432-2.5098 2.916-2.8887 1.033-.2636 2.119-.4974 3.154-.2408 1.034.2567 1.987 1.1542 1.949 2.2191-.492 1.3792-1.894 2.3815-3.358 2.4015zm2.421-2.8232c-1.482-.8386-3.458-.7051-4.813.3253-.445.3383-.851.9305-.581 1.42 1.931.1231 3.9-.5142 5.394-1.7453z"/><path d="m219.279 154.046c-.652-.258-1.231-.698-1.654-1.257 1.574-.688 2.865-2.001 3.527-3.586.42-1.009 1.926-1.027 2.831-.414.905.612 1.47 1.612 2.294 2.331.823.718 2.195 1.078 2.95.288.88-.921 2.588-.179 3.036 1.014.447 1.193.054 2.519-.34 3.731-.229.704-.479 1.441-1.027 1.939s-1.493.64-2 .1c-1.987-2.119-5.955-1.775-7.549.655-1.593-.96-2.465-2.983-2.068-4.801zm2.875-3.27c-1.423 1.439-1.905 3.73-1.183 5.62.166.435.724.899 1.012.532 1.322-1.683 3.731-2.419 5.768-1.762.385.124.728-.385.618-.775-.11-.389-.474-.643-.814-.863-1.455-.946-2.909-1.891-4.364-2.837-.169-.11-.356-.224-.557-.204-.19.019-.346.154-.48.289zm7.835 6.857c.593-1.364.996-2.812 1.191-4.286.044-.327-.117-.817-.421-.691-1.8.833-2.235 3.639-.77 4.977z"/><path d="m173.964 154.866c-2.704-2.079-6.128-3.745-7.255-6.963-1.917-5.472-7.998-8.332-11.008-13.288-2.541-4.185-2.618-9.425-1.859-14.262 1.902-12.117 9.393-23.9012 20.866-28.2391 5.475-2.0699 11.45-2.3584 17.303-2.2983 5.037.0518 10.244.3885 14.731 2.6773s8.09 6.9996 7.618 12.0141c-.19 2.019-1.01 3.954-1.048 5.981-.103 5.553 5.337 9.382 10.146 12.159 4.639 2.678 9.278 5.357 13.916 8.035 2.394 1.382 2.721 4.643 2.771 7.406.138 7.558.276 15.116.413 22.673.028 1.511.053 3.045-.337 4.504-.421 1.575-1.303 2.981-2.173 4.36-8.67 13.745-18.078 28.168-32.707 35.245-3.202 1.549-6.579 2.701-9.946 3.848-3.147 1.073-6.293 2.146-9.439 3.218-2.325.792-4.721 1.595-7.173 1.456s-5.004-1.451-5.865-3.75c-.5-1.336-.38-2.817-.171-4.227.712-4.802 2.383-9.459 4.888-13.617 3.495-5.803 5.595-12.569 5.189-19.33-.407-6.762-3.491-13.473-8.86-17.602zm-10.77-16.022c6.513 6.058 12.301 12.896 17.2 20.322 1.687 2.557 3.285 5.219 4.185 8.148 1.745 5.679.708 11.875-1.309 17.464-2.016 5.589-4.972 10.79-7.211 16.294-1.24 3.047-2.007 7.126.595 9.139 2.141 1.656 5.216.796 7.758-.133 3.813-1.394 7.626-2.787 11.44-4.181 3.164-1.157 6.337-2.317 9.342-3.842 13.73-6.967 22.521-20.664 30.651-33.738.737-1.184 1.482-2.387 1.864-3.728.397-1.394.383-2.868.366-4.317-.075-6.394-.151-12.787-.226-19.18-.027-2.25-.075-4.59-1.092-6.597-1.814-3.578-6.046-5.023-9.687-6.71-5.461-2.531-10.347-6.294-14.188-10.929-.99-1.195-1.937-2.502-2.242-4.024-.542-2.705 1.04-5.363 1.275-8.111.385-4.501-3.011-8.6443-7.107-10.5496s-8.764-2.0444-13.281-2.0804c-4.282-.0341-8.618.001-12.762 1.0826-12.339 3.2209-20.782 15.5224-22.594 28.1464-.513 3.581-.552 7.39 1.049 10.635 1.353 2.742 3.735 4.806 5.974 6.889z"/><path d="m103.786 329.708c4.813 2.927 10.531 3.898 16.107 4.696 8.87 1.269 17.782 2.243 26.716 2.92 11.51.872 23.762 1.089 33.773-4.656.74-.425 1.495-.913 1.899-1.664 1.228-2.281-1.575-4.751-4.125-5.207s-5.498-.194-7.362-1.994c3.754-1.864 8.477-1.608 12.007.652s5.739 6.443 5.616 10.632c-.1 3.435-1.644 6.742-1.484 10.174.195 4.187-4.073 7.093-7.969 8.64-12.383 4.917-26.081 5.044-39.403 4.848-11.803-.173-24.062-.659-34.551-6.075-2.638-1.362-5.2148-3.117-6.6732-5.703-1.3091-2.321-1.5831-5.064-1.8301-7.718-.4965-5.336-.8098-11.303 2.6276-15.415 3.2777-3.92 8.8757-4.81 13.9717-5.179 2.462-.178 3.327-3.445 2.877-5.871-.449-2.426-1.52-5.011-.464-7.241 2.108-4.452 9.432-2.263 13.197-5.441 1.249-1.055 3.257.823 2.772 2.384-.486 1.561-2.321 2.291-3.955 2.322-1.635.031-3.263-.419-4.891-.27-1.629.149-3.386 1.19-3.523 2.819 15.008 6.023 31.954 7.099 47.604 3.023-2.694-3.297-7.008-5.202-11.26-4.972.069-1.05 1.243-1.643 2.277-1.834 4.685-.866 9.508 2.412 11.302 6.825 1.795 4.414.954 9.573-1.284 13.78-2.034-.634-1.873-3.509-1.545-5.614.329-2.106-.537-5.146-2.629-4.74-14.295 2.769-29.316 1.693-43.07-3.084-1.05-.365-1.718 1.112-1.846 2.216-.479 4.127-.724 8.933 2.327 11.754 1.498 1.385 3.535 2.001 5.512 2.501 10.749 2.713 22.054 3.203 32.997 1.43 1.531-.249 3.482-.353 4.23 1.006-8.291 3.76-17.845 2.904-26.901 1.974-4.281-.44-8.647-.901-12.572-2.665-3.827-1.719-7.066-4.606-10.979-6.121s-9.155-1.121-11.289 2.492c-.235.399-.428.835-.461 1.296-.096 1.338 1.108 2.384 2.254 3.08zm80.572 16.521c1.743-3.897.138-8.367-.377-12.604-11.89 8.12-27.526 7.419-41.846 5.917-8.302-.871-16.588-1.905-24.849-3.102-5.358-.776-10.985-1.741-15.173-5.171-1.125-.921-2.3748 1.009-2.5609 2.45-.5412 4.191-1.0116 8.751 1.1659 12.373 2.387 3.972 7.234 5.625 11.734 6.735 19.802 4.882 40.761 5.007 60.619.359 4.467-1.045 9.414-2.769 11.287-6.957z"/><path d="m208.835.547927c2.341-.5101489 4.736.392783 6.94 1.331703 42.174 17.96927 75.08 56.35557 86.393 100.78037 11.313 44.424.775 93.874-27.667 129.826-28.443 35.952-74.14 57.587-119.976 56.801-.932 5.324-1.863 10.647-2.795 15.971-.001-4.512-.073-9.287-2.441-13.128-2.367-3.841-7.914-6.091-11.539-3.406-4.954 5.916-1.125 16.636 6.455 18.076-1.483 3.477-7.2 2.394-9.122-.861-1.922-3.256-1.485-7.309-1.782-11.078-.296-3.768-2.035-8.102-5.742-8.841-11.006-2.195-21.8-5.446-32.1866-9.695-6.7221-2.749-14.4701-8.15-12.8948-15.24 1.1636-5.236 7.3599-8.041 12.678-7.336 5.3184.704 9.9054 3.948 14.2524 7.092 2.267-7.835 4.534-15.669 6.801-23.504-7.136.331-9.139-10.124-15.151-13.982-27.5088-17.648-45.8467-48.842-47.8887-81.461-2.0421-32.619 12.2624-65.856 37.3551-86.797 25.0926-20.9409 60.3536-29.0676 92.0806-21.2223 3.764-4.6308 10.802-6.2344 16.201-3.6917 5.048-2.5759 4.79-9.7211 4.156-15.3528-.634-5.6318.336-13.07526 5.873-14.282271zm44.222 170.639073c12.368-32.5 6.553-71.2683-14.806-98.7098-1.547-1.988-3.295-4.0081-5.684-4.8066-5.398-1.8041-10.796-3.6082-16.193-5.4123.585 2.2764-1.235 4.6131-3.434 5.4454-2.198.8323-4.641.5501-6.972.2533-4.154-.5287-8.441-1.1119-12.028-3.2718s-6.306-6.3417-5.438-10.4376c.694-3.2725-3.316-5.3697-6.539-6.2679-8.412-2.3449-16.824-4.6898-25.236-7.0348-1.834-.5112-3.795-1.1052-4.967-2.6055-1.172-1.5004-.941-4.192.862-4.802-14.097.3767-28.098 3.9977-40.61 10.5031 9.975 5.1702 20.14 10.4796 27.949 18.5574 6.125 6.3354 10.729 14.8277 9.987 23.6083-.644 7.6081-5.283 14.4888-11.326 19.1558s-13.388 7.351-20.793 9.212c-10.925 2.746-24.1604 3.178-31.6774-5.212-2.1867-2.441-6.0946-1.808-9.264-.975-5.3479 1.406-10.6958 2.812-16.0437 4.218-1.2451.328-2.7524.964-2.7948 2.25-.1285 3.903 2.7636 7.696 6.5609 8.606 3.7974.909 8.0939-1.163 9.747-4.7.996-2.132 3.998-2.464 6.1976-1.63 2.1996.835 4.0198 2.471 6.2078 3.335 3.4677 1.369 7.5389.682 10.8929 2.311 5.5947 2.715 6.5477 10.335 5.4807 16.461-1.981 11.371-8.4281 21.903-17.6543 28.838-6.0543 4.551-5.0034 13.984-1.9566 20.919 3.0468 6.934 7.5776 13.906 6.5197 21.406-4.1546-8.687-7.6728-17.679-10.5169-26.879-1.5689-5.075-2.4668-11.663 1.8596-14.745 9.1923-6.549 16.0129-16.356 18.9545-27.252 1.763-6.532.886-15.451-5.588-17.414-2.5094-.761-5.2846-.196-7.7767-1.012-2.0869-.683-3.7589-2.263-5.7627-3.161-2.0037-.898-4.825-.821-5.8825 1.103-3.6028 6.557-14.6606 6.825-18.5772.451-4.5481 32.475 7.7527 66.851 31.8712 89.068 24.1189 22.217 59.3869 31.66 91.3799 24.466 31.993-7.193 59.824-30.824 72.111-61.227-3.414-1.522-5.348-5.294-5.847-8.999-.499-3.704.167-7.451.536-11.171.743-7.481.277-15.08-1.375-22.414-.444-1.972-1.315-4.268-3.294-4.676-5.943-1.227-11.582-3.898-16.296-7.718-3.58-2.902-6.586-8.654-3.101-11.671 1.623-1.406-.681-3.721-1.52-5.697-1.772-4.1735 3.653-7.6009 7.989-8.9238 5.085-1.551 10.169-3.1021 15.253-4.6531.549-.1675 1.13-.3362 1.688-.2002 1.621.3955 1.507 3.0124.143 3.9735-1.364.961-3.184.8054-4.851.7658-6.634-.1576-13.296 2.27-18.273 6.6587 2.214 2.4481 2.784 6.2511 1.385 9.2411-1.685 3.599.706 7.966 4.011 10.173 3.305 2.206 7.338 2.958 11.048 4.383s7.449 3.957 8.347 7.828c1.819 7.842 2.215 16.013 1.163 23.995-.795 6.024-1.539 13.853 3.934 16.493zm-133.25 92.153c-2.078-2.301-1.565-5.951-.269-8.768 1.295-2.817 3.252-5.397 3.8-8.449.549-3.052-1.105-6.86-4.197-7.097-2.264 7.461-4.527 14.922-6.791 22.383 41.378 13.977 89.53 5.846 124.024-20.943 34.493-26.789 54.291-71.43 50.991-114.98-3.3-43.5495-29.597-84.6979-67.734-105.9838-.909-.5077-1.928-1.0214-2.946-.8005-1.307.2838-2.05 1.6315-2.624 2.8398-1.915 4.0266-3.829 8.0532-5.743 12.0799 4.509 2.6479 6.919 8.4319 5.623 13.4983 25.807 16.3566 43.778 44.5363 47.724 74.8343s-6.208 62.141-26.965 84.562-51.724 34.995-82.236 33.392c-7.151-.375-14.853-1.366-21.015 2.282-7.124 4.218-9.684 13.106-11.642 21.15zm97.42-257.93137c-2.353-1.04929-4.913-2.0576-7.441-1.55644-2.527.50115-4.772 3.17902-3.851 5.58537 44.305 18.08784 77.379 61.18574 83.389 108.66244 6.01 47.476-15.281 97.456-53.681 126.014s-92.393 34.565-136.1318 15.147c-4.2479-1.886-10.0477-3.65-12.85.058-1.7252 2.283-1.1474 5.694.5923 7.966s4.3759 3.65 6.9589 4.881c46.6586 22.236 105.1106 17.367 147.4486-12.28 42.338-29.648 66.9-82.911 61.96-134.361-4.94-51.4498-39.189-99.0665-86.394-120.11637zm-157.335 105.13437c5.4443-1.487 10.8886-2.973 16.3329-4.46 3.7549-1.025 8.4049-1.811 10.9982 1.092 4.1877 4.687 10.6727 6.832 16.9569 6.951 6.285.119 12.457-1.574 18.435-3.516 8.148-2.647 16.828-6.381 20.728-14.0096 2.293-4.4835 4.647-9.2457 4.336-14.2715-.287-4.6323-2.801-8.7907-5.245-12.7366-2.053-3.3157-4.159-6.693-7.159-9.185-5.118-4.2518-12.349-5.5189-17.026-10.2521-2.703-2.7359-6.998-3.4027-10.749-2.5515s-7.067 3.003-10.162 5.2866c-17.7448 13.0924-31.1195 32.0065-37.5487 53.1007-.4601 1.51-.844 3.289.1027 4.552zm154.536-49.2162c1.737-2.4979 5.661-1.628 8.25-.0286s5.377 3.7646 8.325 3.009c-16.099-16.3292-37.665-27.1727-60.374-30.3562-5.879-.8241-12.619-.8758-16.845 3.2932 10.575 3.1717 21.149 6.3433 31.723 9.515 1.391.4172 2.86.8831 3.813 1.9793 1.675 1.9272 1.076 4.8558 1.542 7.3664.67 3.6188 3.71 6.4354 7.108 7.8505 3.397 1.4151 7.149 1.667 10.822 1.9012 1.277.0814 2.7.1163 3.664-.7245 1.086-.9473 1.148-2.6221 1.972-3.8053zm-3.211-16.0271c.988-2.1608.098-4.8133-1.543-6.5316s-3.893-2.6964-6.098-3.5808c-3.867-1.5507-7.879-2.9658-12.043-3.0777-1.045-.0281-2.193.0681-2.942.7958-.75.7277-.68 2.2752.319 2.5776 7.795 2.3576 15.303 5.6618 22.307 9.8167zm-75.983 192.1313c-7.58-1.414-14.958-3.906-21.842-7.38-.569-.287-1.176-.589-1.81-.529-.635.06-1.262.654-1.101 1.271.108.418.513.678.886.897 3.957 2.327 7.948 4.669 12.29 6.159 4.342 1.491 9.114 2.088 13.536.856-.148-.819-1.141-1.122-1.959-1.274zm76.536-222.2563c-.595-.8716-1.99-.8085-2.815-.1503-.824.6581-1.221 1.7015-1.582 2.6932-1.509 4.1464-3.018 8.2928-4.527 12.4392-.139.3809-.28.7787-.235 1.1815.13 1.1702 1.792 1.5943 2.799.9848s1.486-1.793 1.899-2.8955c1.45-3.8672 2.9-7.7343 4.35-11.6015.323-.8629.631-1.8903.111-2.6514z"/></g></svg>