<svg fill="none" height="32" viewBox="0 0 32 32" width="32" xmlns="http://www.w3.org/2000/svg"><circle cx="16" cy="16" fill="#fdfdfd" r="16"/><path clip-rule="evenodd" d="m12.221 6.88801c.9775-.045 1.2892-.055 3.7792-.055s2.8016.01083 3.7783.055c.9767.04416 1.6433.2 2.2267.42583.6108.23083 1.165.59167 1.6233 1.05833.4667.4575.8267 1.01084 1.0567 1.6225.2266.58333.3816 1.25003.4266 2.22503.045.9791.055 1.2908.055 3.78 0 2.49-.0108 2.8016-.055 3.7791-.0441.975-.2 1.6417-.4266 2.225-.23.6118-.5906 1.166-1.0567 1.6242-.4583.4667-1.0125.8267-1.6233 1.0567-.5834.2266-1.25.3816-2.225.4266-.9784.045-1.29.055-3.78.055s-2.8017-.0108-3.7792-.055c-.975-.0441-1.6417-.2-2.225-.4266-.61174-.2301-1.16599-.5906-1.62417-1.0567-.46635-.4578-.82724-1.0118-1.0575-1.6233-.22583-.5834-.38083-1.25-.42583-2.225-.045-.9792-.055-1.2909-.055-3.78 0-2.49.01083-2.8017.055-3.7784.04416-.9766.2-1.6433.42583-2.22663.2306-.61159.59176-1.16557 1.05833-1.62333.45754-.46625 1.01123-.82713 1.6225-1.0575.58334-.22583 1.25004-.38083 2.22504-.42583zm7.4833 1.65c-.9666-.04417-1.2566-.05334-3.7041-.05334s-2.7375.00917-3.7042.05334c-.8942.04083-1.3792.19-1.7025.31583-.4275.16667-.73334.36417-1.05417.685-.30413.29588-.53818.65606-.685 1.05416-.12583.3233-.275.8083-.31583 1.7025-.04417.9667-.05334 1.2567-.05334 3.7042s.00917 2.7375.05334 3.7041c.04083.8942.19 1.3792.31583 1.7025.14667.3975.38083.7584.685 1.0542.29583.3042.65667.5383 1.05417.685.3233.1258.8083.275 1.7025.3158.9667.0442 1.2558.0534 3.7042.0534 2.4483 0 2.7375-.0092 3.7041-.0534.8942-.0408 1.3792-.19 1.7025-.3158.4275-.1667.7334-.3642 1.0542-.685.3042-.2958.5383-.6567.685-1.0542.1258-.3233.275-.8083.3158-1.7025.0442-.9666.0534-1.2566.0534-3.7041s-.0092-2.7375-.0534-3.7042c-.0408-.8942-.19-1.3792-.3158-1.7025-.1667-.4275-.3642-.73333-.685-1.05416-.2959-.30411-.6561-.53816-1.0542-.685-.3233-.12583-.8083-.275-1.7025-.31583zm-4.875 10.28749c.6539.2722 1.382.3089 2.06.1039.6779-.205 1.2637-.639 1.6572-1.2279s.5704-1.2961.5004-2.0009-.3826-1.3634-.8842-1.8634c-.3198-.3196-.7065-.5643-1.1323-.7166-.4257-.1522-.8799-.2081-1.3298-.1637-.45.0443-.8845.1879-1.2723.4204-.3878.2324-.7192.548-.9704.9239s-.4159.8029-.4823 1.2501-.0328.9036.0983 1.3363c.1312.4327.3567.8309.6602 1.166s.6776.5987 1.0952.7719zm-2.1608-6.1575c.4375-.4375.9569-.7846 1.5286-1.0214.5716-.2367 1.1843-.3586 1.8031-.3586.6187 0 1.2314.1219 1.803.3586.5717.2368 1.0911.5839 1.5286 1.0214s.7846.9569 1.0214 1.5286c.2368.5716.3586 1.1843.3586 1.8031 0 .6187-.1218 1.2314-.3586 1.8031-.2368.5716-.5839 1.091-1.0214 1.5285-.8836.8837-2.082 1.3801-3.3316 1.3801-1.2497 0-2.4481-.4964-3.3317-1.3801-.8836-.8836-1.38-2.082-1.38-3.3316s.4964-2.4481 1.38-3.3317zm9.0883-.6783c.1084-.1023.1952-.2253.2553-.3617.06-.1364.0921-.2835.0942-.4326.0022-.149-.0255-.2969-.0816-.4351-.056-.1381-.1392-.2635-.2446-.3689s-.2308-.1886-.3689-.2446c-.1382-.0561-.2861-.0838-.4351-.0816-.1491.0021-.2962.0342-.4326.0942-.1364.0601-.2594.1469-.3617.2553-.1989.2108-.3078.4909-.3036.7807.0043.2899.1213.5667.3263.7716.2049.205.4817.322.7716.3263.2898.0042.5699-.1047.7807-.3036z" fill="#404040" fill-rule="evenodd"/></svg>