<svg xmlns="http://www.w3.org/2000/svg" width="120" height="120" fill="none" viewBox="0 0 120 120"><path fill="#fff" d="M60 0c33.137 0 60 26.863 60 60s-26.863 60-60 60S0 93.137 0 60 26.863 0 60 0m37 37.531c0-11.287-9.92-7.74-16.041-3.154C72.476 40.729 63.35 53.614 60 60.527c-3.35-6.913-12.476-19.798-20.959-26.153-6.122-4.584-16.04-8.13-16.041 3.157 0 2.255 1.295 18.938 2.061 21.647 2.641 9.419 12.265 11.818 20.829 10.365-14.968 2.54-18.776 10.955-10.552 19.374 15.617 15.985 22.442-4.008 24.194-9.133.32-.943.468-1.383.47-1.007 0-.372.153.068.473 1.007 1.752 5.125 8.577 25.118 24.194 9.133 8.22-8.419 4.413-16.834-10.552-19.374 8.56 1.453 18.187-.95 20.827-10.365C95.704 56.47 97 39.786 97 37.53"/></svg>