<svg xmlns="http://www.w3.org/2000/svg" width="120" height="120" fill="none" viewBox="0 0 120 120"><path fill="#fff" d="M60 0c33.137 0 60 26.863 60 60s-26.863 60-60 60S0 93.137 0 60 26.863 0 60 0m3.45 22-.115 53.059c0 6.51-5.747 11.638-12.254 11.638s-11.78-5.275-11.78-11.785 5.273-11.784 11.78-11.784c.487 0 .953.087 1.427.144v-11.38c-.474-.03-.945-.073-1.427-.073C38.335 51.82 28 62.16 28 74.91S38.335 98 51.081 98s23.082-10.338 23.082-23.09V43.67c3.63 5.521 9.869 9.174 16.969 9.174.63 0 1.253-.038 1.868-.095V40.103C83.19 39.398 75.344 31.724 74.32 22z"/></svg>