<svg xmlns="http://www.w3.org/2000/svg" width="120" height="120" fill="none" viewBox="0 0 120 120"><path fill="#FDFDFD" fill-rule="evenodd" d="M75.064 118.087C100.913 111.412 120 87.937 120 60c0-33.139-26.861-60-60-60S0 26.861 0 60c0 27.938 19.088 51.412 44.933 58.087.135-.375.194-.776.194-1.162 0-1.455-.048-5.325-.075-10.463-16.694 3.72-20.212-8.25-20.212-8.25-2.738-7.102-6.667-9-6.667-9-5.445-3.81.412-3.734.412-3.734 6.023.434 9.188 6.337 9.188 6.337 5.354 9.405 14.047 6.69 17.467 5.115.544-3.975 2.1-6.686 3.806-8.224-13.324-1.549-27.337-6.825-27.337-30.405 0-6.712 2.343-12.21 6.18-16.507-.619-1.556-2.678-7.811.592-16.275 0 0 5.033-1.658 16.5 6.3C49.763 30.458 54.9 29.775 60 29.753c5.1.026 10.23.704 15.022 2.073C86.476 23.861 91.5 25.515 91.5 25.515c3.281 8.468 1.222 14.722.608 16.275 3.843 4.301 6.164 9.799 6.164 16.511 0 23.636-14.025 28.838-27.393 30.356 2.156 1.902 4.072 5.656 4.072 11.4 0 8.213-.075 14.851-.075 16.868 0 .386.064.787.188 1.162" clip-rule="evenodd"/></svg>