<svg fill="none" height="16" viewBox="0 0 16 16" width="16" xmlns="http://www.w3.org/2000/svg" xmlns:xlink="http://www.w3.org/1999/xlink"><clipPath id="a"><path d="m0 0h16v16h-16z"/></clipPath><g clip-path="url(#a)"><path d="m16 8c0 2.1217-.8429 4.1566-2.3431 5.6569-1.5003 1.5002-3.5352 2.3431-5.6569 2.3431-2.12173 0-4.15656-.8429-5.65685-2.3431-1.500295-1.5003-2.34315-3.5352-2.34315-5.6569 0-2.12173.842855-4.15656 2.34315-5.65685 1.50029-1.500295 3.53512-2.34315 5.65685-2.34315 2.1217 0 4.1566.842855 5.6569 2.34315 1.5002 1.50029 2.3431 3.53512 2.3431 5.65685zm-10.504-1.967h.825c.138 0 .248-.113.266-.25.09-.656.54-1.134 1.342-1.134.686 0 1.314.343 1.314 1.168 0 .635-.374.927-.965 1.371-.673.489-1.206 1.06-1.168 1.987l.003.217c.00105.06561.02785.12817.07462.1742.04677.04602.10976.07181.17538.0718h.811c.0663 0 .12989-.02634.17678-.07322.04688-.04689.07322-.11048.07322-.17678v-.105c0-.718.273-.927 1.01-1.486.609-.463 1.244-.977 1.244-2.056 0-1.511-1.276-2.241-2.673-2.241-1.267 0-2.655.59-2.75 2.286-.00137.03229.00388.06453.01543.09472s.02915.05769.05173.08083c.02257.02313.04964.04141.07953.05369.0299.01229.06199.01833.09431.01776zm2.325 6.443c.61 0 1.029-.394 1.029-.927 0-.552-.42-.94-1.029-.94-.584 0-1.009.388-1.009.94 0 .533.425.927 1.01.927z" fill="#fff"/></g></svg>