<svg width="24" height="23" viewBox="0 0 24 23" fill="none" xmlns="http://www.w3.org/2000/svg">
<path d="M10.937 0.962125C11.3108 0.012625 12.7256 0.012625 13.1006 0.962125L15.5189 7.41287C15.6883 7.84037 16.1194 8.125 16.6007 8.125H22.5437C23.6419 8.125 24.1209 9.44125 23.2575 10.0859L19.0284 13.75C18.839 13.8902 18.7005 14.0847 18.6329 14.3054C18.5654 14.5261 18.5721 14.7617 18.6522 14.9785L20.1967 21.2819C20.5729 22.2944 19.3555 23.164 18.4349 22.5407L12.6906 19.0308C12.4938 18.8976 12.2592 18.8262 12.0188 18.8262C11.7784 18.8262 11.5438 18.8976 11.347 19.0308L5.60267 22.5407C4.68324 23.164 3.46473 22.2933 3.84092 21.2819L5.38537 14.9785C5.46549 14.7617 5.47224 14.5261 5.40465 14.3054C5.33707 14.0847 5.19863 13.8902 5.00919 13.75L0.780051 10.0859C-0.0844676 9.44125 0.396859 8.125 1.4927 8.125H7.43568C7.66967 8.12575 7.89839 8.05807 8.09157 7.93091C8.28474 7.80374 8.43327 7.6231 8.5175 7.41287L10.937 0.962125Z" fill="#FFD80B" stroke="black" stroke-width="0.5" stroke-linecap="round" stroke-linejoin="round"/>
</svg>
